<?xml version="1.0" standalone="no"?>
<!DOCTYPE svg PUBLIC "-//W3C//DTD SVG 1.1//EN" "http://www.w3.org/Graphics/SVG/1.1/DTD/svg11.dtd" >
<svg xmlns="http://www.w3.org/2000/svg" xmlns:xlink="http://www.w3.org/1999/xlink" version="1.1">
<metadata>
Created by FontForge 20201107 at Wed Aug  2 22:38:31 2023
 By 
C 2016 Sharp Type Corporation
</metadata>
<defs>
<font id="SharpGrotesk-Black15" horiz-adv-x="890" >
  <font-face 
    font-family="Sharp Grotesk Black 15"
    font-weight="900"
    font-stretch="semi-condensed"
    units-per-em="2048"
    panose-1="0 0 10 6 0 0 0 0 0 0"
    ascent="1638"
    descent="-410"
    x-height="1198"
    cap-height="1475"
    bbox="-131 -504 2267 2052"
    underline-thickness="102"
    underline-position="-255"
    unicode-range="U+0020-3009"
  />
<missing-glyph horiz-adv-x="380" 
 />
    <glyph glyph-name=".notdef" horiz-adv-x="380" 
 />
    <glyph glyph-name=".null" horiz-adv-x="0" 
 />
    <glyph glyph-name="nonmarkingreturn" horiz-adv-x="682" 
 />
    <glyph glyph-name="space" unicode=" " horiz-adv-x="380" 
 />
    <glyph glyph-name="exclam" unicode="!" horiz-adv-x="481" 
d="M92 434q-9 9 -31 94q-45 217 -45 480v467h449v-467q0 -140 -12 -269q-13 -122 -30.5 -207.5t-29.5 -97.5q-56 17 -149 17q-106 0 -152 -17zM242 -16q-93 0 -146 16q-48 17 -67 63.5t-19 141.5t19 137q18 46 66.5 63t146.5 17q88 0 141 -16q49 -17 68.5 -62.5t19.5 -138.5
q0 -83 -18 -139q-20 -46 -68 -64t-143 -18z" />
    <glyph glyph-name="quotedbl" unicode="&#x22;" horiz-adv-x="733" 
d="M53 967q-3 11 -5.5 27.5t-6 41.5t-6.5 43q-23 239 -23 359v37h346v-37q0 -103 -8 -187q-10 -155 -35 -284h-262zM416 967q-11 45 -19 112q-22 163 -22 359v37h346v-37q0 -103 -8 -187q-13 -159 -37 -284h-260z" />
    <glyph glyph-name="numbersign" unicode="#" horiz-adv-x="1198" 
d="M606 291h-112l-33 -291h-383l33 291h-95v399h138l12 113h-150v399h193l31 273h385l-31 -273h111l30 273h383l-31 -273h95v-399h-138l-12 -113h150v-399h-193l-33 -291h-383zM662 803h-111l-14 -113h112z" />
    <glyph glyph-name="dollar" unicode="$" horiz-adv-x="880" 
d="M254 -186v178q-130 30 -188 117.5t-58 242.5v189h412v-176q0 -25 4.5 -34t15.5 -9q12 0 17.5 9.5t5.5 39.5v84q0 42 -10 59q-7 22 -43 47.5t-127 75.5q-104 58 -168 115q-57 52 -79 115t-22 159v94q0 289 246 361v196h379v-200q223 -66 223 -326v-174h-397v147v10
q0 22 -1 30t-5 12t-15 4q-13 0 -16.5 -8t-3.5 -42v-92q0 -28 8 -41q6 -16 35 -35t117 -67q102 -54 174 -115q61 -50 85.5 -112t24.5 -158v-158q0 -148 -56 -233.5t-177 -120.5v-184h-381z" />
    <glyph glyph-name="percent" unicode="%" horiz-adv-x="1257" 
d="M266 768q-130 0 -196 60.5t-66 189.5v229q0 123 72 186.5t194 63.5q124 0 195.5 -63t71.5 -187v-229q0 -250 -271 -250zM895 1475h381l-885 -1475h-391zM270 981q6 0 8.5 2t4.5 11.5t2 29.5v219q0 29 -3.5 38t-11.5 9q-14 0 -14 -47v-219q0 -28 3 -35.5t11 -7.5zM983 -57
q-130 0 -196 60.5t-66 189.5v229q0 123 72 186.5t194 63.5q124 0 195 -63t71 -187v-229q0 -250 -270 -250zM987 156q8 0 11 7t3 36v219q0 29 -3 38t-11 9q-14 0 -14 -47v-219q0 -28 3 -35.5t11 -7.5z" />
    <glyph glyph-name="ampersand" unicode="&#x26;" horiz-adv-x="1159" 
d="M936 -25q-111 0 -209 70q-139 -68 -283 -68q-209 0 -321.5 94t-112.5 277v53q0 133 39 215q34 80 93 135.5t143 102.5q-37 142 -37 266v19q0 182 95 274t253 92q356 0 356 -305v-22q0 -103 -26 -183q-25 -74 -83 -131.5t-161 -118.5q12 -27 34 -81t34 -80q6 -15 17 -38.5
t13 -29.5q56 115 56 266v64h313v-119q0 -235 -131 -428q65 0 131 51v-319q-73 -56 -213 -56zM580 1133q0 -57 14 -117q41 59 41 141v10q0 30 -5.5 42t-19.5 12q-15 0 -22.5 -13.5t-7.5 -52.5v-22zM508 307q-8 16 -64 117q-6 13 -22.5 47t-24.5 53v-100q0 -117 105 -117h6z
" />
    <glyph glyph-name="quotesingle" unicode="'" horiz-adv-x="368" 
d="M53 967q0 1 -18 114q-23 235 -23 357v37h346v-37q0 -103 -8 -187q-10 -155 -35 -284h-262z" />
    <glyph glyph-name="parenleft" unicode="(" horiz-adv-x="563" 
d="M551 -289q-167 -2 -269.5 22.5t-160.5 82.5q-56 58 -78.5 155t-22.5 256v729q0 200 46 316q44 117 158.5 167t326.5 46v-375q-53 0 -74 -8q-24 -7 -31.5 -41t-7.5 -117v-692q0 -80 8 -111q6 -30 28 -37.5t77 -5.5v-387z" />
    <glyph glyph-name="parenright" unicode=")" horiz-adv-x="563" 
d="M12 98q46 -3 70 6q25 10 34 47t9 121v650q0 89 -8 125q-10 40 -33 53t-72 8v375q179 2 282 -21.5t157 -81.5q53 -57 72.5 -161t19.5 -285v-686q0 -175 -21.5 -277.5t-75.5 -160.5q-54 -57 -155.5 -79t-278.5 -20v387z" />
    <glyph glyph-name="asterisk" unicode="*" horiz-adv-x="804" 
d="M481 1077l78 -233h-315l80 235l-166 -184l-158 268l244 54l-244 49l156 274l168 -186l-80 235h315l-76 -229l162 182l160 -272l-248 -53l248 -52l-158 -268z" />
    <glyph glyph-name="plus" unicode="+" horiz-adv-x="833" 
d="M586 559v-237h-332v237h-238v334h238v237h332v-237h231v-334h-231z" />
    <glyph glyph-name="comma" unicode="," horiz-adv-x="489" 
d="M483 195q0 -254 -99 -371t-339 -105l2 185q78 -4 117 16.5t53 73.5q-8 -2 -24 -2q-72 0 -111 20q-41 23 -58.5 76.5t-17.5 155.5q0 98 21 157q23 54 73.5 75.5t145.5 21.5q96 0 145 -21q52 -20 72 -83.5t20 -198.5z" />
    <glyph glyph-name="hyphen" unicode="-" horiz-adv-x="647" 
d="M12 801h623v-373h-623v373z" />
    <glyph glyph-name="period" unicode="." horiz-adv-x="485" 
d="M242 -16q-85 0 -148 18q-50 18 -69 73.5t-19 168.5q0 106 21 164q22 52 71.5 71t145.5 19q98 0 143 -19q52 -18 72 -71t20 -164q0 -116 -20 -166q-19 -56 -67.5 -75t-149.5 -19z" />
    <glyph glyph-name="slash" unicode="/" horiz-adv-x="671" 
d="M254 1475h438l-272 -1475h-440z" />
    <glyph glyph-name="zero" unicode="0" horiz-adv-x="897" 
d="M449 -23q-212 0 -322.5 102.5t-110.5 330.5v659q0 432 433 432q120 0 225 -43q207 -93 207 -389v-659q0 -162 -56 -252q-101 -181 -376 -181zM449 344q17 0 19.5 11t2.5 69v645q0 58 -2.5 69t-19.5 11t-20 -11.5t-3 -68.5v-645q0 -57 3 -68.5t20 -11.5z" />
    <glyph glyph-name="one" unicode="1" horiz-adv-x="645" 
d="M10 0v377h113v522h-100v350q85 4 115 59.5t30 166.5h358v-1098h109v-377h-625z" />
    <glyph glyph-name="two" unicode="2" horiz-adv-x="886" 
d="M16 0v356q0 104 23 172q23 71 76 125.5t153 114.5q64 42 131 82q40 28 52 52.5t12 70.5v151q0 24 -4.5 32.5t-16.5 8.5q-22 0 -22 -49v-217h-404v227q0 187 104 283t329 96q222 0 322.5 -85t100.5 -259v-207q0 -134 -43 -213q-39 -76 -96 -127.5t-135 -97.5
q-84 -48 -112 -75.5t-33 -59.5h419v-381h-856z" />
    <glyph glyph-name="three" unicode="3" horiz-adv-x="894" 
d="M451 -23q-229 0 -335 91.5t-106 281.5v205h412v-172q0 -39 20 -39q16 0 20.5 6.5t4.5 22.5v194q0 31 -37 31h-143v332h145q35 0 35 35v155q0 29 -25 29q-20 0 -20 -37v-141h-412v182q0 168 118.5 260t326.5 92q212 0 319 -86.5t107 -232.5v-168q0 -112 -38 -167t-118 -73
q74 -21 115 -77t41 -166v-201q0 -168 -110 -262.5t-320 -94.5z" />
    <glyph glyph-name="four" unicode="4" horiz-adv-x="940" 
d="M930 225h-99v-225h-374v225h-447v346l455 904h366v-904h99v-346zM430 684l-51 -113h78v117l53 328z" />
    <glyph glyph-name="five" unicode="5" horiz-adv-x="882" 
d="M442 -29q-164 0 -262 39q-90 37 -129 115.5t-39 204.5v270h412v-244q0 -15 3.5 -20.5t16.5 -5.5q21 0 21 26v324q0 39 -21 39q-18 0 -30 -37l-8 -29l-410 76l67 746h785v-125q0 -150 -56 -213.5t-204 -63.5h-174q-6 -48 -17 -130t-14 -109q32 104 88.5 150t151.5 46
q130 0 187.5 -73.5t57.5 -256.5v-370q0 -110 -41 -187q-88 -172 -385 -172z" />
    <glyph glyph-name="six" unicode="6" horiz-adv-x="905" 
d="M889 330q0 -163 -108 -256.5t-324 -93.5q-169 0 -267 49q-94 48 -134 144t-40 249v635q0 233 110 340.5t329 107.5q226 0 327.5 -94.5t106.5 -288.5v-215h-420v199q0 25 -3.5 34t-16.5 9t-18 -11t-5 -40v-357q30 67 82.5 98t140.5 31q113 0 176.5 -64.5t63.5 -199.5v-276
zM451 344q17 0 21.5 10t4.5 41v191q0 28 -20 28q-23 0 -31 -30v-156q0 -55 4 -69.5t21 -14.5z" />
    <glyph glyph-name="seven" unicode="7" horiz-adv-x="780" 
d="M29 0q39 308 115.5 566t170.5 444h-307v465h764v-379q-105 -287 -160 -496q-68 -278 -100 -600h-483z" />
    <glyph glyph-name="eight" unicode="8" horiz-adv-x="892" 
d="M436 -29q-220 0 -321 78.5t-101 241.5v256q0 154 115 217q-113 53 -113 209v219q0 144 107.5 228.5t314.5 84.5q211 0 325 -83t114 -226v-217q0 -159 -109 -211q111 -59 111 -221v-260q0 -150 -111 -233t-332 -83zM424 909q0 -39 22 -39q23 3 23 37v246q0 33 -25 33
q-20 0 -20 -33v-244zM446 307q23 0 23 31v258q0 35 -23 35h-2q-20 0 -20 -39v-252q0 -33 22 -33z" />
    <glyph glyph-name="nine" unicode="9" horiz-adv-x="905" 
d="M451 -20q-225 0 -327.5 95t-107.5 287v177h420v-160q0 -25 4 -34t17 -9t17.5 10.5t4.5 40.5v340q-20 -86 -66.5 -120t-133.5 -34q-134 0 -198.5 64.5t-64.5 216.5v301q0 164 108.5 257t324.5 93q168 0 266 -49q94 -48 134 -142.5t40 -250.5v-635q0 -232 -110 -340
t-328 -108zM449 844q20 0 30 30v183q0 56 -3.5 70t-20.5 14q-27 0 -27 -51v-218q0 -28 21 -28z" />
    <glyph glyph-name="colon" unicode=":" horiz-adv-x="483" 
d="M242 516q-82 0 -148 19q-50 18 -69 72t-19 167q0 112 21 164q22 53 71 72.5t146 19.5q101 0 143 -18q52 -18 72 -72t20 -166q0 -110 -20 -166q-20 -54 -68.5 -73t-148.5 -19zM242 -16q-85 0 -148 18q-50 18 -69 73.5t-19 168.5q0 106 21 164q22 52 71.5 71t145.5 19
q98 0 143 -19q52 -18 72 -71t20 -164q0 -116 -20 -166q-19 -56 -67.5 -75t-149.5 -19z" />
    <glyph glyph-name="semicolon" unicode=";" horiz-adv-x="485" 
d="M242 516q-82 0 -148 19q-50 18 -69 72t-19 167q0 112 21 164q22 53 71 72.5t146 19.5q101 0 143 -18q52 -18 72 -72t20 -166q0 -110 -20 -166q-20 -54 -68.5 -73t-148.5 -19zM483 195q0 -254 -99 -371t-339 -105l2 185q78 -4 117 16.5t53 73.5q-8 -2 -24 -2
q-72 0 -111 20q-41 23 -58.5 76.5t-17.5 155.5q0 98 21 157q23 54 73.5 75.5t145.5 21.5q96 0 145 -21q52 -20 72 -83.5t20 -198.5z" />
    <glyph glyph-name="less" unicode="&#x3c;" horiz-adv-x="737" 
d="M14 580v321l707 297v-369l-256 -88l256 -88v-362z" />
    <glyph glyph-name="equal" unicode="=" horiz-adv-x="759" 
d="M16 1083h727v-331h-727v331zM16 717h727v-334h-727v334z" />
    <glyph glyph-name="greater" unicode="&#x3e;" horiz-adv-x="739" 
d="M16 653l256 88l-256 88v369l709 -297v-321l-709 -289v362z" />
    <glyph glyph-name="question" unicode="?" horiz-adv-x="880" 
d="M227 389q-1 23 -2.5 64.5t-2.5 73.5t-1 55v8q0 38 10 76q22 67 142 137q50 31 67 49.5t17 44.5v238q0 17 -4 23.5t-15 6.5q-20 0 -20 -35v-268h-404v283q0 175 102.5 265.5t321.5 90.5q222 0 325 -88.5t103 -247.5v-262q0 -95 -10 -129q-10 -40 -38 -67t-101 -74l-76 -53
q-21 -17 -28.5 -31t-12.5 -41l-6 -117q-47 33 -180 33q-146 0 -187 -35zM414 -16q-80 0 -138 14q-46 17 -63.5 59t-17.5 129q0 80 18 129q20 43 65.5 58.5t135.5 15.5q75 0 133 -14q47 -13 66.5 -57.5t19.5 -131.5q0 -76 -19 -127q-20 -43 -65.5 -59t-134.5 -16z" />
    <glyph glyph-name="at" unicode="@" horiz-adv-x="1069" 
d="M541 -160q-521 0 -521 539v612q0 265 135 398t382 133q258 0 385 -133t127 -390v-587q0 -87 -19 -140q-18 -61 -69.5 -90.5t-151.5 -29.5q-149 0 -205 81q-40 -77 -139 -77q-197 0 -197 256v534q0 134 42 193t139 59q58 0 86 -23t36 -77l52 90h178v-731q0 -69 2.5 -87
t15.5 -18q12 0 15 10q4 11 4 179v460q0 117 -23 185q-24 75 -88.5 109t-191.5 34q-171 0 -237.5 -81t-66.5 -277v-568q0 -183 71 -275.5t239 -92.5q61 0 102.5 14t60 31.5t39.5 48.5h291q-64 -151 -183 -220t-310 -69zM535 365q12 0 15 11t3 50v508q0 59 -16 59
q-14 0 -17.5 -10t-3.5 -51v-506q0 -40 3 -50.5t16 -10.5z" />
    <glyph glyph-name="A" unicode="A" 
d="M510 113h-129l-10 -113h-391l204 1475h510l217 -1475h-391zM414 436h63l-20 199l-15 301l-10 -301z" />
    <glyph glyph-name="B" unicode="B" horiz-adv-x="854" 
d="M20 0v1475h414q142 0 234 -29q89 -29 128.5 -97.5t39.5 -191.5v-166q0 -101 -28 -152t-108 -75q81 -20 112.5 -76.5t31.5 -169.5v-174q0 -119 -25 -199q-25 -77 -94 -111t-203 -34h-502zM403 1184v-277h15q15 0 21.5 9t6.5 36v191q0 26 -6.5 33.5t-29.5 7.5h-7zM403 598
v-283h9q24 0 31.5 10.5t7.5 43.5v184q0 31 -7.5 38t-33.5 7h-7z" />
    <glyph glyph-name="C" unicode="C" horiz-adv-x="888" 
d="M444 -23q-213 0 -320.5 100t-107.5 333v659q0 432 439 432q221 0 320 -101.5t99 -330.5v-238h-409v238q0 38 -2.5 55.5t-6.5 21t-12 3.5q-17 0 -19.5 -11t-2.5 -69v-645q0 -54 4 -67t18 -13q13 0 17 13.5t4 66.5v260h409v-274q0 -433 -430 -433z" />
    <glyph glyph-name="D" unicode="D" horiz-adv-x="899" 
d="M20 1475h426q125 0 228 -39q209 -88 209 -377v-641q0 -158 -58 -246q-109 -172 -385 -172h-420v1475zM420 350q30 0 37.5 11.5t7.5 60.5v653q0 38 -8 49t-35 11h-2v-785z" />
    <glyph glyph-name="E" unicode="E" horiz-adv-x="727" 
d="M711 0h-691v1475h691v-385h-293v-150h293v-387h-293v-158h293v-395z" />
    <glyph glyph-name="F" unicode="F" horiz-adv-x="679" 
d="M416 537v-537h-396v1475h648v-398h-252v-143h252v-397h-252z" />
    <glyph glyph-name="G" unicode="G" horiz-adv-x="907" 
d="M541 199q-18 -113 -74 -167.5t-168 -54.5q-156 0 -219.5 97t-63.5 329v670q0 426 439 426q225 0 328.5 -98.5t103.5 -321.5v-127h-416v133q0 45 -4 54.5t-18 9.5q-15 0 -19 -10.5t-4 -57.5v-653q0 -59 9 -78.5t36 -19.5q26 0 35.5 20t9.5 78v57h-59v394h430v-879h-330z
" />
    <glyph glyph-name="H" unicode="H" horiz-adv-x="882" 
d="M461 551h-41v-551h-400v1475h400v-543h41v543h401v-1475h-401v551z" />
    <glyph glyph-name="I" unicode="I" horiz-adv-x="460" 
d="M23 1475h415v-1475h-415v1475z" />
    <glyph glyph-name="J" unicode="J" horiz-adv-x="909" 
d="M451 -23q-153 0 -248 39q-98 39 -143.5 134.5t-45.5 267.5v362h416v-385q0 -32 4.5 -42.5t18.5 -10.5q13 0 16.5 15t3.5 73v1045h418v-1037q0 -251 -103 -356t-337 -105z" />
    <glyph glyph-name="K" unicode="K" horiz-adv-x="950" 
d="M426 578l-4 -35v-543h-399v1475h399v-273l-37 -303l64 277l90 299h430l-211 -629l219 -846h-445l-90 410z" />
    <glyph glyph-name="L" unicode="L" horiz-adv-x="669" 
d="M20 0v1475h418v-1063h217v-412h-635z" />
    <glyph glyph-name="M" unicode="M" horiz-adv-x="1343" 
d="M434 0h-414v1475h605l41 -506l10 -586l10 586l39 506h598v-1475h-408v260l66 889l-133 -1149h-348l-133 1169l67 -911v-258z" />
    <glyph glyph-name="N" unicode="N" horiz-adv-x="980" 
d="M412 0h-392v1475h474l178 -998l-92 709v289h381v-1475h-455l-178 975l84 -643v-332z" />
    <glyph glyph-name="O" unicode="O" horiz-adv-x="897" 
d="M449 -23q-212 0 -322.5 102.5t-110.5 330.5v659q0 432 433 432q120 0 225 -43q207 -93 207 -389v-659q0 -162 -56 -252q-101 -181 -376 -181zM449 344q17 0 19.5 11t2.5 69v645q0 58 -2.5 69t-19.5 11t-20 -11.5t-3 -68.5v-645q0 -57 3 -68.5t20 -11.5z" />
    <glyph glyph-name="P" unicode="P" horiz-adv-x="878" 
d="M414 279v-279h-394v1475h416q226 0 325 -90t99 -277v-432q0 -195 -101 -296t-325 -101h-20zM414 625q45 0 45 61v404q0 55 -45 55v-520z" />
    <glyph glyph-name="Q" unicode="Q" horiz-adv-x="897" 
d="M467 -166l-53 143q-398 16 -398 433v659q0 219 113.5 325.5t319.5 106.5q202 0 317 -107t115 -325v-659q0 -211 -113 -324l141 -254zM449 344q17 0 19.5 11t2.5 69v645q0 58 -2.5 69t-19.5 11t-20 -11.5t-3 -68.5v-645q0 -57 3 -68.5t20 -11.5z" />
    <glyph glyph-name="R" unicode="R" horiz-adv-x="864" 
d="M461 438q0 37 -9.5 49.5t-33.5 14.5v-502h-398v1475h437q131 0 223 -29q87 -27 128.5 -104.5t41.5 -221.5v-200q0 -113 -26 -168.5t-95 -79.5q71 -22 94 -71.5t23 -156.5v-331q0 -53 5 -74.5t23 -38.5h-387q-26 11 -26 111v327zM418 1143v-314q28 1 36.5 12.5t8.5 39.5
v213q0 29 -8 39t-33 10h-4z" />
    <glyph glyph-name="S" unicode="S" horiz-adv-x="884" 
d="M434 -27q-227 0 -326.5 90.5t-99.5 288.5v197h414v-184q0 -25 4.5 -34t15.5 -9q12 0 17.5 9.5t5.5 39.5v84q0 44 -8 63q-7 24 -42.5 48.5t-129.5 74.5q-100 55 -168 113q-59 48 -81 110.5t-22 167.5v88q0 383 437 383q415 0 415 -352v-178h-399v151v10q0 22 -1 30t-5 12
t-15 4q-13 0 -16.5 -8t-3.5 -42v-94q0 -28 8 -41q7 -16 39 -37t115 -67q103 -54 176 -113q61 -54 84.5 -113t23.5 -155v-158q0 -199 -104 -289t-334 -90z" />
    <glyph glyph-name="T" unicode="T" horiz-adv-x="745" 
d="M580 1092v-1092h-414v1092h-154v383h721v-383h-153z" />
    <glyph glyph-name="U" unicode="U" 
d="M444 -23q-230 0 -328 106.5t-98 332.5v1059h406v-1035q0 -53 3 -64t17 -11t17.5 11t3.5 64v1035h407v-1059q0 -225 -103 -332t-325 -107z" />
    <glyph glyph-name="V" unicode="V" horiz-adv-x="903" 
d="M186 0l-206 1475h417l45 -435l15 -663l12 663l45 435h410l-207 -1475h-531z" />
    <glyph glyph-name="W" unicode="W" horiz-adv-x="1384" 
d="M633 0h-527l-124 1475h421l21 -535l-2 -616l22 618l48 533h403l45 -533l27 -618l-6 616l30 535h412l-133 -1475h-520l-45 547l-11 475l-12 -475z" />
    <glyph glyph-name="X" unicode="X" horiz-adv-x="917" 
d="M391 0h-422l226 791l-209 684h405l55 -250l17 -232l16 230l56 252h399l-209 -689l225 -786h-407l-64 279l-16 292l-17 -292z" />
    <glyph glyph-name="Y" unicode="Y" horiz-adv-x="870" 
d="M225 0v399l-260 1076h408l49 -306l14 -317l8 317l56 306h403l-262 -1035v-440h-416z" />
    <glyph glyph-name="Z" unicode="Z" horiz-adv-x="710" 
d="M14 0v356l250 734h-248v385h678v-363l-248 -729h248v-383h-680z" />
    <glyph glyph-name="bracketleft" unicode="[" horiz-adv-x="550" 
d="M539 -281h-519v1756h519v-371h-121v-1012h121v-373z" />
    <glyph glyph-name="backslash" unicode="\" horiz-adv-x="671" 
d="M-20 1475h438l274 -1475h-440z" />
    <glyph glyph-name="bracketright" unicode="]" horiz-adv-x="550" 
d="M12 -281v373h121v1012h-121v371h518v-1756h-518z" />
    <glyph glyph-name="asciicircum" unicode="^" horiz-adv-x="761" 
d="M377 1128l-68 -215h-315l217 562h336l221 -562h-322z" />
    <glyph glyph-name="uni005F" unicode="_" horiz-adv-x="886" 
d="M4 -115h879v-303h-879v303z" />
    <glyph glyph-name="grave" unicode="`" horiz-adv-x="641" 
d="M31 1569h354l102 -307h-245z" />
    <glyph glyph-name="a" unicode="a" horiz-adv-x="868" 
d="M475 160q-13 -103 -67 -145t-154 -42q-121 0 -181.5 62t-60.5 205v110q0 87 19 139t59 89q12 10 26 19.5t25.5 16t31.5 15t31 13t37 12.5t36 11t42.5 12.5t42.5 12.5q36 9 68 23q20 10 26.5 29t6.5 59v65q0 28 -4 35.5t-17 7.5t-17.5 -9t-4.5 -38v-143h-397v139
q0 188 100 273.5t319 85.5q156 0 238 -33q90 -32 129 -107t39 -209v-868h-336zM440 272q23 0 23 37v228l-4 -5q-3 -3 -13.5 -7.5t-15.5 -8.5q-12 -10 -12 -45v-158v-18.5t2 -11.5t7 -9t13 -2z" />
    <glyph glyph-name="b" unicode="b" horiz-adv-x="872" 
d="M602 -16q-155 0 -194 178l-39 -162h-349v1573h398v-541q47 180 207 180q83 0 133 -36q52 -37 75 -126t23 -253v-396q0 -226 -57.5 -321.5t-196.5 -95.5zM436 313q11 0 15 4t7 26.5t3 72.5v372q0 69 -3 85t-20 16q-14 0 -18 -18.5t-4 -94.5v-381q0 -38 3.5 -57.5t6.5 -22
t10 -2.5z" />
    <glyph glyph-name="c" unicode="c" horiz-adv-x="858" 
d="M428 -25q-222 0 -317 96t-95 312v418q0 208 111.5 310.5t321.5 102.5q206 0 300.5 -94.5t94.5 -296.5v-168h-393v142q0 60 -3.5 74t-15.5 14q-14 0 -18 -15t-4 -73v-404q0 -50 4 -63t18 -13q13 0 16 12t3 62v164h393v-178q0 -206 -95.5 -304t-320.5 -98z" />
    <glyph glyph-name="d" unicode="d" horiz-adv-x="872" 
d="M471 168q-13 -91 -57.5 -137.5t-141.5 -46.5q-98 0 -153 39q-57 37 -80 129t-23 262v401q0 156 29 248q29 82 82.5 115.5t134.5 33.5q147 0 193 -155v516h397v-1573h-340zM438 313q9 0 12.5 3t6 21.5t2.5 57.5v381q0 80 -3 96.5t-20 16.5q-14 0 -18 -18t-4 -83v-372
q0 -50 2.5 -72t6.5 -26.5t15 -4.5z" />
    <glyph glyph-name="e" unicode="e" horiz-adv-x="862" 
d="M846 385q0 -122 -37 -215q-78 -195 -369 -195q-167 0 -258 48q-89 46 -127.5 137t-38.5 235v416q0 201 106.5 302t307.5 101q216 0 316 -99.5t100 -311.5v-299h-440v-119q0 -56 4.5 -69t19.5 -13q16 0 18.5 16.5t2.5 94.5v47h395v-76zM406 721h51v98q0 54 -4 66t-21 12
q-18 0 -22 -14.5t-4 -75.5v-86z" />
    <glyph glyph-name="f" unicode="f" horiz-adv-x="618" 
d="M506 799v-799h-408v799h-88v399h88v96q0 125 29 207q26 78 106 113t236 35h137v-396h-86q-28 0 -37.5 -11t-9.5 -38v-6h133v-399h-100z" />
    <glyph glyph-name="g" unicode="g" horiz-adv-x="862" 
d="M358 -377q-145 0 -235 25t-126 66.5t-36 101.5q0 86 60 126.5t194 34.5h21q-122 7 -177 52.5t-55 132.5q0 187 234 213q-116 13 -171 88t-55 217v180q0 160 69 241t226 101l45 6q67 10 83 29t16 90v72h419v-2q0 -102 -18 -144q-17 -46 -77.5 -60.5t-201.5 -8.5
q152 -20 214.5 -88.5t62.5 -218.5v-201q0 -192 -101 -274.5t-331 -82.5h-88q-38 0 -51 -3.5t-13 -14.5q0 -8 16 -10t74 -2h119q217 0 306 -76t89 -240v-4q0 -123 -45 -194q-45 -78 -150 -115t-290 -37h-27zM428 588q23 0 23 45v260q0 32 -3 39.5t-20 7.5q-14 0 -19.5 -9.5
t-5.5 -39.5v-256q0 -26 5.5 -36.5t19.5 -10.5zM453 -68q65 0 65 23v4q0 16 -47 16h-76q-34 0 -46.5 -5t-12.5 -17v-2q0 -19 67 -19h50z" />
    <glyph glyph-name="h" unicode="h" horiz-adv-x="882" 
d="M420 0h-400v1573h402v-541q39 180 219 180q119 0 170 -77.5t51 -253.5v-881h-399v807q0 43 -3.5 54t-15.5 11q-14 0 -19 -11.5t-5 -53.5v-807z" />
    <glyph glyph-name="i" unicode="i" horiz-adv-x="454" 
d="M225 1171q-80 0 -133 17q-46 17 -63 59.5t-17 130.5q0 74 17 127q19 42 64 60t132 18q85 0 135 -16q46 -18 64 -61t18 -128q0 -77 -16 -127q-17 -44 -62.5 -62t-138.5 -18zM20 1194q28 -31 72 -44t135 -13q92 0 134 13t73 46v-1196h-414v1194z" />
    <glyph glyph-name="j" unicode="j" horiz-adv-x="454" 
d="M225 1171q-80 0 -133 17q-46 17 -63 59.5t-17 130.5q0 74 17 127q19 42 64 60t132 18q85 0 135 -16q46 -18 64 -61t18 -128q0 -77 -16 -127q-17 -44 -62.5 -62t-138.5 -18zM-131 -39h106q29 0 37 9t8 40v1184q28 -31 72 -44t135 -13q92 0 134 13t73 46v-1268
q0 -188 -77 -262t-267 -74h-221v369z" />
    <glyph glyph-name="k" unicode="k" horiz-adv-x="899" 
d="M412 522l-2 -16v-506h-390v1573h390v-592l-27 -264l51 254l72 227h395l-182 -522l186 -676h-401l-80 338z" />
    <glyph glyph-name="l" unicode="l" horiz-adv-x="452" 
d="M20 0v1573h412v-1573h-412z" />
    <glyph glyph-name="m" unicode="m" horiz-adv-x="1333" 
d="M422 0h-402v1198h328l45 -162q52 176 240 176q87 0 137.5 -42.5t69.5 -131.5q25 89 79.5 131.5t143.5 42.5q134 0 192 -83.5t58 -249.5v-879h-406v807q0 42 -3 51.5t-17 9.5t-19.5 -12t-5.5 -49v-807h-397v807q0 42 -3.5 51.5t-17.5 9.5t-18 -11.5t-4 -49.5v-807z" />
    <glyph glyph-name="n" unicode="n" horiz-adv-x="886" 
d="M424 0h-404v1198h330l45 -162q47 176 234 176q121 0 179 -79t58 -252v-881h-399v807q0 44 -3.5 54.5t-17.5 10.5t-18 -11t-4 -54v-807z" />
    <glyph glyph-name="o" unicode="o" horiz-adv-x="864" 
d="M432 -25q-216 0 -316 96t-100 312v418q0 413 416 413q209 0 312.5 -100.5t103.5 -312.5v-418q0 -217 -98.5 -312.5t-317.5 -95.5zM432 313q13 0 18 11t5 47v458q0 39 -5 49.5t-18 10.5t-17.5 -10.5t-4.5 -49.5v-458q0 -37 4.5 -47.5t17.5 -10.5z" />
    <glyph glyph-name="p" unicode="p" horiz-adv-x="870" 
d="M596 -16q-86 0 -128.5 40.5t-55.5 116.5v-501h-392v1558h359l33 -164q20 95 66 136.5t130 41.5q128 0 187 -92.5t59 -320.5v-385q0 -235 -56.5 -332.5t-201.5 -97.5zM432 313q11 0 15 4t7 26.5t3 72.5v372q0 69 -3 85t-20 16q-14 0 -18 -18.5t-4 -94.5v-381
q0 -38 3.5 -57.5t6.5 -22t10 -2.5z" />
    <glyph glyph-name="q" unicode="q" horiz-adv-x="872" 
d="M461 -360v501q-42 -157 -191 -157q-92 0 -153 39q-53 38 -76 131t-23 260v401q0 156 29 248q28 82 80 115.5t133 33.5q89 0 139 -40.5t70 -131.5l45 158h338v-1558h-391zM440 313q9 0 12.5 3t6 21.5t2.5 57.5v381q0 80 -3 96.5t-20 16.5q-14 0 -18 -18t-4 -83v-372
q0 -50 2.5 -72t6.5 -26.5t15 -4.5z" />
    <glyph glyph-name="r" unicode="r" horiz-adv-x="604" 
d="M20 0v1198h287l39 -280v18q0 106 14 178q17 56 59 76t130 20h39v-557h-82q-66 0 -82 -15t-16 -81v-557h-388z" />
    <glyph glyph-name="s" unicode="s" horiz-adv-x="858" 
d="M430 -27q-158 0 -256 39q-90 40 -130 115.5t-40 189.5v115h399v-86q0 -45 29 -45q19 0 26 9.5t7 39.5q0 26 -10 49q-12 18 -47 38t-117 57q-111 54 -166 98q-61 47 -88 109.5t-27 154.5v10q0 174 104.5 263.5t309.5 89.5q160 0 254 -43q172 -77 172 -295v-78h-385v51
q0 41 -6 54.5t-25 13.5q-31 0 -31 -45v-9q0 -19 11 -34q19 -24 143 -82q109 -49 174 -101q65 -50 92 -116.5t27 -165.5v-11q0 -118 -37 -202q-81 -183 -383 -183z" />
    <glyph glyph-name="t" unicode="t" horiz-adv-x="598" 
d="M586 0h-146q-129 0 -211 29q-76 29 -107.5 100.5t-31.5 206.5v463h-82v389q55 0 74 8q31 14 39 47q12 47 12 166h350v-211h103v-399h-103v-330q0 -58 13 -72t69 -14h21v-383z" />
    <glyph glyph-name="u" unicode="u" horiz-adv-x="874" 
d="M487 158q-19 -91 -69 -133.5t-142 -42.5q-138 0 -198 79t-60 261v876h400v-809q0 -39 3 -50t15 -11q16 0 19.5 12t3.5 53v805h395v-1198h-324z" />
    <glyph glyph-name="v" unicode="v" horiz-adv-x="854" 
d="M143 0l-168 1198h404l37 -412l10 -497l16 497l33 412h404l-168 -1198h-568z" />
    <glyph glyph-name="w" unicode="w" horiz-adv-x="1277" 
d="M596 0h-492l-129 1198h402l24 -496l-4 -370l23 362l45 504h371l34 -500l17 -360l2 362l37 498h377l-136 -1198h-465l-51 371l-6 360l-14 -360z" />
    <glyph glyph-name="x" unicode="x" horiz-adv-x="917" 
d="M397 0h-428l178 641l-153 557h420l37 -207l10 -252l14 252l41 207h412l-156 -551l176 -647h-413l-58 242l-14 254l-12 -254z" />
    <glyph glyph-name="y" unicode="y" horiz-adv-x="868" 
d="M53 -399v366h84q51 0 65.5 10.5t20.5 53.5l-248 1167h414l39 -291l10 -501l19 499l37 293h399l-223 -1194q-27 -142 -60.5 -222t-85.5 -118q-48 -36 -124 -49.5t-201 -13.5h-146z" />
    <glyph glyph-name="z" unicode="z" horiz-adv-x="663" 
d="M12 0v313l217 543h-217v342h639v-319l-207 -519h207v-360h-639z" />
    <glyph glyph-name="braceleft" unicode="{" horiz-adv-x="548" 
d="M274 -281q-262 0 -262 240q0 96 68 211q51 83 61 115q6 20 6 39q0 44 -23 61.5t-79 17.5h-31v371h19q56 0 79 19t23 69q0 43 -31 103q-58 101 -74 152q-20 59 -20 118q0 111 63 175.5t197 64.5h258v-330h-36q-78 0 -78 -43q0 -44 30 -84q29 -39 43.5 -61.5t31 -67.5
t16.5 -90q0 -93 -50.5 -138.5t-169.5 -46.5v-49q122 -1 169.5 -45t47.5 -139q0 -71 -26 -119q-10 -19 -34 -56.5t-35 -62.5t-11 -51t15 -35.5t53 -9.5h34v-328h-254z" />
    <glyph glyph-name="bar" unicode="|" horiz-adv-x="434" 
d="M20 1548h394v-1640h-394v1640z" />
    <glyph glyph-name="braceright" unicode="}" horiz-adv-x="548" 
d="M20 47h35q38 0 53 9.5t15 35.5q0 42 -27 82q-20 29 -28.5 42.5t-23.5 43t-21.5 59t-6.5 62.5q0 95 47.5 139t169.5 45v49q-119 1 -169 46.5t-50 138.5q0 78 31 125q12 21 39 61.5t39 66t12 50.5q0 43 -78 43h-37v330h259q134 0 197 -64.5t63 -175.5q0 -78 -31 -152
q-13 -27 -40.5 -77t-40.5 -82t-13 -62q0 -50 23 -69t79 -19h19v-371h-31q-56 0 -79.5 -17.5t-23.5 -61.5q0 -9 2 -19l3.5 -17.5t7 -19t8 -18t11 -20.5t11 -18.5t13 -21t12.5 -20.5q68 -115 68 -211q0 -112 -62.5 -176t-200.5 -64h-254v328z" />
    <glyph glyph-name="asciitilde" unicode="~" horiz-adv-x="659" 
d="M471 1122q-42 0 -88 17q-13 6 -38 18t-37 17.5t-29 10.5t-29 5q-17 0 -21 -14t-4 -50h-219q0 148 19 217q17 76 57.5 108t112.5 32q49 0 90 -15q21 -7 48.5 -18.5t45.5 -18t29 -6.5q16 0 21 12t5 38h219q0 -134 -18 -222q-20 -74 -58 -102.5t-106 -28.5z" />
    <glyph glyph-name="uni00A0" unicode="&#xa0;" horiz-adv-x="380" 
 />
    <glyph glyph-name="exclamdown" unicode="&#xa1;" horiz-adv-x="481" 
d="M242 1225q85 0 141 -17q49 -17 68.5 -63.5t19.5 -140.5q0 -82 -18 -138q-20 -46 -67.5 -63t-143.5 -17q-90 0 -146 17q-49 17 -67.5 62.5t-18.5 138.5q0 96 19 141q18 46 66.5 63t146.5 17zM393 774q15 -15 29 -96q43 -208 43 -477v-467h-449v467q0 141 15 270
q13 122 30.5 206t30.5 97q43 -16 152 -16q96 0 149 16z" />
    <glyph glyph-name="cent" unicode="&#xa2;" horiz-adv-x="856" 
d="M842 379q0 -150 -50 -241t-159 -132v-205h-381v197q-236 71 -236 387v418q0 305 238 385v192h381v-188q207 -73 207 -367v-168h-396v136q0 44 -2.5 64.5t-6.5 25t-13 4.5q-14 0 -17.5 -14.5t-3.5 -73.5v-404q0 -49 4.5 -62.5t18.5 -13.5q13 0 16.5 12t3.5 62v164h396
v-178z" />
    <glyph glyph-name="sterling" unicode="&#xa3;" horiz-adv-x="999" 
d="M702 -18q-134 0 -233 71q-91 -71 -205 -71q-151 0 -209.5 59.5t-58.5 191.5q0 123 66.5 188.5t175.5 65.5q73 0 127 -32q-12 52 -46 104h-260v252h107q-103 170 -105 322q0 183 98.5 273.5t321.5 90.5q177 0 273 -45q94 -43 134 -131t40 -229v-240h-393v221
q0 57 -4.5 70.5t-22.5 13.5q-17 0 -22 -12.5t-5 -61.5q0 -128 19 -272h252v-252h-185q29 -95 29 -219q0 -43 -6 -66l4 -1q4 -1 8 -1q18 0 23.5 11t5.5 47v184h362v-188q0 -152 -32 -220q-31 -70 -93 -97t-166 -27zM262 201q30 0 51 12q-31 39 -55 39q-27 0 -27 -23
q0 -28 31 -28z" />
    <glyph glyph-name="currency" unicode="&#xa4;" horiz-adv-x="913" 
d="M459 358q-63 0 -121 15l-141 -160l-211 182l139 156q-29 69 -29 147v88q0 73 33 152l-137 149l196 185l146 -160q50 18 125 18t125 -18l143 158l203 -180l-142 -154q31 -58 31 -148v-88q0 -76 -28 -143l135 -151l-201 -187l-141 158q-74 -19 -125 -19zM453 643
q26 0 26 25v151q0 23 -24 23q-25 0 -25 -23v-151q0 -25 23 -25z" />
    <glyph glyph-name="yen" unicode="&#xa5;" horiz-adv-x="870" 
d="M641 115v-115h-416v115h-205v190h205v33h-205v190h175l-230 947h408l49 -306l14 -317l8 317l56 306h403l-239 -947h186v-190h-209v-33h209v-190h-209z" />
    <glyph glyph-name="brokenbar" unicode="&#xa6;" horiz-adv-x="434" 
d="M20 1548h394v-794h-394v794zM20 719h394v-811h-394v811z" />
    <glyph glyph-name="section" unicode="&#xa7;" horiz-adv-x="909" 
d="M467 -53q-161 0 -264 28q-98 31 -141.5 96.5t-43.5 180.5v88h412v-57q0 -30 6.5 -42t26.5 -12q21 0 30 9t9 34v9q0 22 -15 43q-23 35 -186 67q-159 34 -225 92t-66 148q0 97 53 144.5t168 47.5q25 0 39 -2q-107 27 -161 78q-53 45 -75 107.5t-22 150.5v6q0 116 41 193
q42 81 142 121.5t274 40.5q232 0 329 -68.5t97 -237.5v-84h-401v76q0 43 -39 43t-39 -41v-10q0 -30 12 -45q10 -16 44.5 -29.5t125.5 -38.5q87 -23 139.5 -42.5t92.5 -47t56.5 -63t16.5 -86.5q0 -86 -65.5 -132t-167.5 -46q-17 0 -27 2q98 -24 162 -82q96 -86 96 -267v-6
q0 -118 -39 -204q-78 -162 -395 -162zM371 770q0 -19 31 -33.5t122 -38.5q15 9 15 21q0 18 -31.5 33t-118.5 39q-18 -11 -18 -21z" />
    <glyph glyph-name="dieresis" unicode="&#xa8;" horiz-adv-x="636" 
d="M156 1260q-88 0 -115 28.5t-27 118.5q0 95 30.5 129.5t111.5 34.5q85 0 116 -34t31 -130q0 -86 -30.5 -116.5t-116.5 -30.5zM475 1260q-88 0 -114.5 28.5t-26.5 118.5q0 97 28.5 130.5t112.5 33.5t116 -34t32 -130q0 -86 -31.5 -116.5t-116.5 -30.5z" />
    <glyph glyph-name="copyright" unicode="&#xa9;" horiz-adv-x="1220" 
d="M616 -27q-177 0 -315 66t-212.5 192t-74.5 306v376q0 171 78 306q80 130 214 201t302 71q178 0 312 -70q137 -68 211.5 -195t74.5 -298v-389q0 -165 -73 -293q-74 -129 -208 -201t-309 -72zM616 225q154 0 241 84t87 240v369q0 156 -83 238.5t-253 82.5q-151 0 -239 -90
t-88 -248v-352q0 -324 335 -324zM614 256q-143 0 -223 76t-80 219v342q0 156 78.5 235.5t222.5 79.5q155 0 230.5 -73t75.5 -224v-155h-285v155q0 34 -3 42t-14 8q-5 0 -8 -4t-4.5 -18t-1.5 -42v-328q0 -35 3 -45t11 -10q11 0 14 9t3 38v168h285v-186q0 -136 -79.5 -211.5
t-224.5 -75.5z" />
    <glyph glyph-name="ordfeminine" unicode="&#xaa;" horiz-adv-x="638" 
d="M354 772q-14 -56 -49 -82t-102 -26q-102 0 -146.5 44t-44.5 146v90q0 105 66 148q50 32 166 47q61 8 75.5 17t14.5 44v66q0 22 -15 22q-16 0 -16 -33v-90h-278v101q0 233 307 233q150 0 217 -58t67 -177v-586h-223zM315 852q19 0 19 31v149q-1 -3 -12 -14
q-19 -12 -21 -17q-4 -12 -4 -38v-84q0 -27 18 -27z" />
    <glyph glyph-name="guillemotleft" unicode="&#xab;" horiz-adv-x="1001" 
d="M240 219l-242 373v20l254 400h346l-254 -406l252 -387h-356zM647 219l-248 375v33l244 385h356l-254 -394l267 -399h-365z" />
    <glyph glyph-name="logicalnot" unicode="&#xac;" horiz-adv-x="835" 
d="M449 338v268h-437v344h809v-612h-372z" />
    <glyph glyph-name="uni00AD" unicode="&#xad;" horiz-adv-x="647" 
d="M12 801h623v-373h-623v373z" />
    <glyph glyph-name="registered" unicode="&#xae;" horiz-adv-x="696" 
d="M354 770q-159 0 -251.5 83t-92.5 247v37q0 164 93 254t247 90t245 -89.5t91 -250.5v-41q0 -158 -91.5 -244t-240.5 -86zM354 903q95 0 146 39h-117q-10 3 -10 23v30q0 31 -7 40t-30 9v-102h-127v369h156q80 0 115.5 -29t35.5 -98q0 -64 -51 -90q35 -22 35 -88v-43
q0 -7 4 -19q51 48 51 162v27q0 227 -205 227q-203 0 -203 -232v-22q0 -112 48 -157.5t159 -45.5zM336 1206v-67h6q26 0 35.5 7.5t9.5 27.5q0 19 -9.5 25.5t-35.5 6.5h-6z" />
    <glyph glyph-name="macron" unicode="&#xaf;" horiz-adv-x="641" 
d="M113 1528h413v-266h-413v266z" />
    <glyph glyph-name="degree" unicode="&#xb0;" horiz-adv-x="583" 
d="M291 944q-146 0 -217.5 62.5t-71.5 193.5v12q0 137 78.5 207t212.5 70t211.5 -69t77.5 -208v-12q0 -130 -76.5 -193t-214.5 -63zM293 1186q31 0 31 28q0 20 -6.5 26.5t-24.5 6.5q-31 0 -31 -33q0 -28 31 -28z" />
    <glyph glyph-name="plusminus" unicode="&#xb1;" horiz-adv-x="708" 
d="M520 813v-184h-327v184h-177v322h177v184h327v-184h172v-322h-172zM16 555h676v-330h-676v330z" />
    <glyph glyph-name="uni00B2" unicode="&#xb2;" horiz-adv-x="534" 
d="M4 1042v185q0 64 25 106q42 66 141 101q5 2 19 8t19.5 8t17 7.5t16.5 8.5t13 8.5t12 10t8.5 10t6 12t1.5 13.5v67q0 17 -15 17q-14 0 -14 -25v-92h-250v108q0 89 65 143t197 54q136 0 199 -47t63 -143v-84q0 -62 -22 -101q-22 -34 -54 -56t-79 -44q-3 -1 -13.5 -5.5
t-14.5 -6t-12.5 -5.5t-12.5 -6l-11 -5.5t-11 -6.5t-9 -6.5t-8.5 -7.5t-6.5 -8h254v-218h-524z" />
    <glyph glyph-name="uni00B3" unicode="&#xb3;" horiz-adv-x="544" 
d="M276 1024q-113 0 -174 25q-55 23 -75.5 65.5t-20.5 112.5v71h250v-49q0 -11 0.5 -15.5t4 -7.5t11.5 -3q13 0 13 24v53q0 22 -7.5 27.5t-33.5 5.5h-76v162h88q29 0 29 27v61q0 21 -15 21q-14 0 -14 -23v-51h-250v65q0 195 268 195q263 0 263 -182v-70q0 -95 -103 -119
q103 -14 103 -116v-95q0 -81 -66.5 -132.5t-194.5 -51.5z" />
    <glyph glyph-name="acute" unicode="&#xb4;" horiz-adv-x="641" 
d="M180 1569h355l-226 -307h-272z" />
    <glyph glyph-name="paragraph" unicode="&#xb6;" horiz-adv-x="1204" 
d="M457 0v461h-74q-226 0 -305 149q-68 128 -68 373q0 146 41 258q91 234 387 234h746v-1475h-342v1141h-41v-1141h-344zM457 809v332h-6q-16 0 -27 -11q-16 -16 -16 -157q0 -61 4 -111q4 -33 13.5 -43t29.5 -10h2z" />
    <glyph glyph-name="periodcentered" unicode="&#xb7;" horiz-adv-x="446" 
d="M225 375q-83 0 -133 16q-47 13 -65.5 62.5t-18.5 152.5q0 89 19 152q19 50 63 66t135 16q75 0 131 -17q47 -13 65.5 -63t18.5 -154q0 -88 -18 -147q-18 -48 -63.5 -66t-133.5 -18z" />
    <glyph glyph-name="cedilla" unicode="&#xb8;" horiz-adv-x="641" 
d="M332 -467q-294 0 -328 246h281q15 -41 55 -41q45 0 45 31q0 30 -41 30h-133v240h231v-90q100 -8 148.5 -49t48.5 -142q0 -107 -81 -166t-226 -59z" />
    <glyph glyph-name="uni00B9" unicode="&#xb9;" horiz-adv-x="403" 
d="M6 1042v226h70v202h-70v201q51 5 90 33t49 76h177v-512h75v-226h-391z" />
    <glyph glyph-name="ordmasculine" unicode="&#xba;" horiz-adv-x="618" 
d="M305 668q-150 0 -225.5 68t-75.5 216v262q0 141 83 213t222 72q140 0 221.5 -71.5t81.5 -213.5v-262q0 -284 -307 -284zM309 911q6 0 9 2.5t5.5 14t2.5 33.5v249q0 35 -3 44.5t-14 9.5q-10 0 -13 -9.5t-3 -44.5v-249q0 -32 3 -41t13 -9z" />
    <glyph glyph-name="guillemotright" unicode="&#xbb;" horiz-adv-x="1001" 
d="M-6 219l266 399l-254 394h356l244 -385v-33l-248 -375h-364zM410 219l252 387l-254 406h346l254 -400v-20l-242 -373h-356z" />
    <glyph glyph-name="onequarter" unicode="&#xbc;" horiz-adv-x="1171" 
d="M606 766l244 770l313 -168l-549 -608zM92 735v226h70v202h-70v201q51 5 90 33t49 76h177v-512h75v-226h-391zM41 125l553 623l8 -7l-244 -802zM1083 76v-76h-239v76h-277v207l232 454h284v-440h56v-221h-56zM797 297h47v55l16 127l-33 -123z" />
    <glyph glyph-name="onehalf" unicode="&#xbd;" horiz-adv-x="1171" 
d="M606 766l244 770l313 -168l-549 -608zM92 735v226h70v202h-70v201q51 5 90 33t49 76h177v-512h75v-226h-391zM647 0v184q0 65 25 107q41 65 141 100q5 2 19 8t19.5 8t17 7.5t16.5 8.5t13 8.5t12 10t8.5 10t6 12t1.5 13.5v68q0 16 -15 16q-14 0 -14 -24v-93h-250v109
q0 89 65 143t197 54q136 0 199 -47t63 -144v-84q0 -61 -22 -100q-22 -34 -54.5 -56.5t-78.5 -44.5q-82 -34 -98 -57h253v-217h-524zM41 125l553 623l8 -7l-244 -802z" />
    <glyph glyph-name="threequarters" unicode="&#xbe;" horiz-adv-x="1171" 
d="M618 766l244 770l314 -168l-549 -608zM289 717q-115 0 -174 24q-55 23 -76 66t-21 113v71h250v-49q0 -15 3 -21t14 -6q12 0 12 25v53q0 22 -7.5 27.5t-33.5 5.5h-76v162h88q29 0 29 26v62q0 20 -14 20q-15 0 -15 -22v-51h-250v65q0 195 269 195q262 0 262 -183v-69
q0 -95 -103 -119q103 -14 103 -117v-94q0 -81 -66 -132.5t-194 -51.5zM53 125l553 623l8 -7l-243 -802zM1083 76v-76h-239v76h-277v207l232 454h284v-440h56v-221h-56zM797 297h47v55l16 127l-33 -123z" />
    <glyph glyph-name="questiondown" unicode="&#xbf;" horiz-adv-x="880" 
d="M467 1225q75 0 137 -15q47 -17 64.5 -58.5t17.5 -129.5q0 -80 -18 -129q-18 -42 -65 -58t-136 -16q-71 0 -133 15q-47 17 -66.5 59.5t-19.5 128.5q0 78 18 127q20 43 66.5 59.5t134.5 16.5zM653 819q6 -66 6 -192v-9q0 -37 -10 -75q-11 -33 -43.5 -64.5t-97.5 -72.5
q-50 -31 -67 -50t-17 -45v-237q0 -13 5 -22t13 -9q21 0 21 35v268h403v-283q0 -175 -102 -265.5t-322 -90.5q-222 0 -325 88.5t-103 247.5v262q0 92 11 129q10 41 39 69t100 72q57 38 76 54q38 31 41 71l6 117q60 -33 180 -33q133 0 186 35z" />
    <glyph glyph-name="Agrave" unicode="&#xc0;" 
d="M137 1806h355l102 -307h-246zM510 113h-129l-10 -113h-391l204 1475h510l217 -1475h-391zM414 436h63l-20 199l-15 301l-10 -301z" />
    <glyph glyph-name="Aacute" unicode="&#xc1;" 
d="M440 1806h355l-226 -307h-272zM510 113h-129l-10 -113h-391l204 1475h510l217 -1475h-391zM414 436h63l-20 199l-15 301l-10 -301z" />
    <glyph glyph-name="Acircumflex" unicode="&#xc2;" 
d="M449 1597l-41 -98h-244l168 326h237l166 -326h-252zM510 113h-129l-10 -113h-391l204 1475h510l217 -1475h-391zM414 436h63l-20 199l-15 301l-10 -301z" />
    <glyph glyph-name="Atilde" unicode="&#xc3;" 
d="M123 1499q0 137 16 219q17 76 57.5 108t112.5 32q39 0 86 -15q13 -6 35 -16.5t33.5 -16t26 -10t26.5 -4.5q39 0 39 53h221q0 -131 -18 -223q-18 -75 -57.5 -104t-110.5 -29q-54 0 -86 18q-13 6 -43 22t-48 23t-36 7q-23 0 -31 -15.5t-8 -48.5h-215zM510 113h-129
l-10 -113h-391l204 1475h510l217 -1475h-391zM414 436h63l-20 199l-15 301l-10 -301z" />
    <glyph glyph-name="Adieresis" unicode="&#xc4;" 
d="M283 1497q-88 0 -115 29t-27 119q0 95 30.5 129t111.5 34q85 0 116 -33.5t31 -129.5q0 -86 -30.5 -117t-116.5 -31zM602 1497q-88 0 -114.5 28.5t-26.5 119.5q0 97 28.5 130t112.5 33q85 0 116.5 -34t31.5 -129q0 -86 -31.5 -117t-116.5 -31zM510 113h-129l-10 -113h-391
l204 1475h510l217 -1475h-391zM414 436h63l-20 199l-15 301l-10 -301z" />
    <glyph glyph-name="Aring" unicode="&#xc5;" 
d="M444 1495q-122 0 -190 55.5t-68 161.5q0 115 72 173.5t186 58.5q117 0 187.5 -60.5t70.5 -167.5q0 -104 -66.5 -162.5t-191.5 -58.5zM446 1692q33 0 33 26q0 29 -33 29q-32 0 -32 -29q0 -13 6.5 -19.5t25.5 -6.5zM510 113h-129l-10 -113h-391l204 1475h510l217 -1475
h-391zM414 436h63l-20 199l-15 301l-10 -301z" />
    <glyph glyph-name="AE" unicode="&#xc6;" horiz-adv-x="1191" 
d="M575 109h-167l-17 -109h-422l262 1475h945v-385h-314l19 -152h295v-383h-252l18 -160h234v-395h-586zM453 414h82l-23 172l-12 405l-21 -391z" />
    <glyph glyph-name="Ccedilla" unicode="&#xc7;" horiz-adv-x="888" 
d="M434 -465q-294 0 -328 246h281q15 -41 55 -41q45 0 45 31q0 30 -41 30h-133v187q-149 27 -223 127t-74 295v659q0 432 439 432q221 0 320 -101.5t99 -330.5v-238h-409v238q0 38 -2.5 55.5t-6.5 21t-12 3.5q-17 0 -19.5 -11t-2.5 -69v-645q0 -54 4 -67t18 -13
q13 0 17 13.5t4 66.5v260h409v-274q0 -377 -329 -426v-33q100 -8 148 -49t48 -142q0 -107 -81 -166t-226 -59z" />
    <glyph glyph-name="Egrave" unicode="&#xc8;" horiz-adv-x="727" 
d="M70 1806h354l102 -307h-245zM711 0h-691v1475h691v-385h-293v-150h293v-387h-293v-158h293v-395z" />
    <glyph glyph-name="Eacute" unicode="&#xc9;" horiz-adv-x="727" 
d="M373 1806h354l-225 -307h-273zM711 0h-691v1475h691v-385h-293v-150h293v-387h-293v-158h293v-395z" />
    <glyph glyph-name="Ecircumflex" unicode="&#xca;" horiz-adv-x="727" 
d="M381 1597l-41 -98h-244l168 326h238l166 -326h-252zM711 0h-691v1475h691v-385h-293v-150h293v-387h-293v-158h293v-395z" />
    <glyph glyph-name="Edieresis" unicode="&#xcb;" horiz-adv-x="727" 
d="M215 1497q-88 0 -114.5 28.5t-26.5 119.5q0 95 30 129t111 34q85 0 116 -33.5t31 -129.5q0 -86 -30.5 -117t-116.5 -31zM535 1497q-88 0 -115 29t-27 119q0 97 28.5 130t113.5 33q84 0 115.5 -33.5t31.5 -129.5q0 -86 -31 -117t-116 -31zM711 0h-691v1475h691v-385h-293
v-150h293v-387h-293v-158h293v-395z" />
    <glyph glyph-name="Igrave" unicode="&#xcc;" horiz-adv-x="460" 
d="M-78 1806h354l103 -307h-246zM23 1475h415v-1475h-415v1475z" />
    <glyph glyph-name="Iacute" unicode="&#xcd;" horiz-adv-x="460" 
d="M225 1806h355l-226 -307h-272zM23 1475h415v-1475h-415v1475z" />
    <glyph glyph-name="Icircumflex" unicode="&#xce;" horiz-adv-x="460" 
d="M233 1597l-40 -98h-244l168 326h237l166 -326h-252zM23 1475h415v-1475h-415v1475z" />
    <glyph glyph-name="Idieresis" unicode="&#xcf;" horiz-adv-x="460" 
d="M68 1497q-88 0 -115 29t-27 119q0 95 30.5 129t111.5 34q85 0 116 -33.5t31 -129.5q0 -86 -30.5 -117t-116.5 -31zM387 1497q-88 0 -114.5 28.5t-26.5 119.5q0 97 28.5 130t112.5 33q85 0 116.5 -34t31.5 -129q0 -86 -31.5 -117t-116.5 -31zM23 1475h415v-1475h-415v1475
z" />
    <glyph glyph-name="Eth" unicode="&#xd0;" horiz-adv-x="909" 
d="M31 0v582h-31v348h31v545h426q124 0 227 -39q209 -88 209 -377v-641q0 -160 -57 -246q-109 -172 -385 -172h-420zM430 582v-232h14q30 0 37.5 11.5t7.5 60.5v653q0 38 -8 49t-35 11h-16v-205h37v-348h-37z" />
    <glyph glyph-name="Ntilde" unicode="&#xd1;" horiz-adv-x="980" 
d="M473 1806h354l-225 -307h-272zM412 0h-392v1475h474l178 -998l-92 709v289h381v-1475h-455l-178 975l84 -643v-332z" />
    <glyph glyph-name="Ograve" unicode="&#xd2;" horiz-adv-x="897" 
d="M137 1833h355l102 -307h-246zM449 -23q-212 0 -322.5 102.5t-110.5 330.5v659q0 432 433 432q120 0 225 -43q207 -93 207 -389v-659q0 -162 -56 -252q-101 -181 -376 -181zM449 344q17 0 19.5 11t2.5 69v645q0 58 -2.5 69t-19.5 11t-20 -11.5t-3 -68.5v-645
q0 -57 3 -68.5t20 -11.5z" />
    <glyph glyph-name="Oacute" unicode="&#xd3;" horiz-adv-x="897" 
d="M131 1513q0 138 16 220q17 76 57 107.5t113 31.5q42 0 86 -14q13 -6 43 -21t46.5 -21t31.5 -6q39 0 39 54h221q0 -132 -18 -224q-18 -75 -57.5 -104t-110.5 -29q-52 0 -86 19q-13 6 -34.5 17t-33.5 17.5t-28.5 11.5t-30.5 5q-23 0 -31 -15.5t-8 -48.5h-215zM449 -23
q-212 0 -322.5 102.5t-110.5 330.5v659q0 432 433 432q120 0 225 -43q207 -93 207 -389v-659q0 -162 -56 -252q-101 -181 -376 -181zM449 344q17 0 19.5 11t2.5 69v645q0 58 -2.5 69t-19.5 11t-20 -11.5t-3 -68.5v-645q0 -57 3 -68.5t20 -11.5z" />
    <glyph glyph-name="Ocircumflex" unicode="&#xd4;" horiz-adv-x="897" 
d="M449 1622l-41 -98h-244l168 325h237l166 -325h-252zM449 -23q-212 0 -322.5 102.5t-110.5 330.5v659q0 432 433 432q120 0 225 -43q207 -93 207 -389v-659q0 -162 -56 -252q-101 -181 -376 -181zM449 344q17 0 19.5 11t2.5 69v645q0 58 -2.5 69t-19.5 11t-20 -11.5
t-3 -68.5v-645q0 -57 3 -68.5t20 -11.5z" />
    <glyph glyph-name="Otilde" unicode="&#xd5;" horiz-adv-x="897" 
d="M129 1513q0 138 16 220q17 76 57 107.5t113 31.5q42 0 86 -14q13 -6 43 -21t46.5 -21t31.5 -6q39 0 39 54h221q0 -132 -18 -224q-18 -75 -57.5 -104t-110.5 -29q-52 0 -86 19q-13 6 -34.5 17t-33.5 17.5t-28.5 11.5t-30.5 5q-23 0 -31 -15.5t-8 -48.5h-215zM449 -23
q-212 0 -322.5 102.5t-110.5 330.5v659q0 432 433 432q120 0 225 -43q207 -93 207 -389v-659q0 -162 -56 -252q-101 -181 -376 -181zM449 344q17 0 19.5 11t2.5 69v645q0 58 -2.5 69t-19.5 11t-20 -11.5t-3 -68.5v-645q0 -57 3 -68.5t20 -11.5z" />
    <glyph glyph-name="Odieresis" unicode="&#xd6;" horiz-adv-x="897" 
d="M283 1509q-88 0 -115 29t-27 119q0 95 30.5 129.5t111.5 34.5q85 0 116 -34t31 -130q0 -86 -30.5 -117t-116.5 -31zM602 1509q-88 0 -114.5 28.5t-26.5 119.5q0 97 28.5 130.5t112.5 33.5t116 -34t32 -130q0 -86 -31.5 -117t-116.5 -31zM449 -23q-212 0 -322.5 102.5
t-110.5 330.5v659q0 432 433 432q120 0 225 -43q207 -93 207 -389v-659q0 -162 -56 -252q-101 -181 -376 -181zM449 344q17 0 19.5 11t2.5 69v645q0 58 -2.5 69t-19.5 11t-20 -11.5t-3 -68.5v-645q0 -57 3 -68.5t20 -11.5z" />
    <glyph glyph-name="multiply" unicode="&#xd7;" horiz-adv-x="782" 
d="M393 510l-178 -176l-217 213l178 176l-174 168l215 217l174 -172l172 170l217 -217l-170 -166l174 -170l-213 -217z" />
    <glyph glyph-name="Oslash" unicode="&#xd8;" horiz-adv-x="897" 
d="M88 -229l72 280q-144 107 -144 359v659q0 416 398 432l35 160h405l-72 -283q99 -107 99 -309v-659q0 -375 -334 -426l-47 -213h-412zM449 344q17 0 19.5 11t2.5 69v645q0 58 -2.5 69t-19.5 11t-20 -11.5t-3 -68.5v-645q0 -57 3 -68.5t20 -11.5z" />
    <glyph glyph-name="Ugrave" unicode="&#xd9;" 
d="M137 1806h355l102 -307h-246zM444 -23q-230 0 -328 106.5t-98 332.5v1059h406v-1035q0 -53 3 -64t17 -11t17.5 11t3.5 64v1035h407v-1059q0 -225 -103 -332t-325 -107z" />
    <glyph glyph-name="Uacute" unicode="&#xda;" 
d="M440 1806h355l-226 -307h-272zM444 -23q-230 0 -328 106.5t-98 332.5v1059h406v-1035q0 -53 3 -64t17 -11t17.5 11t3.5 64v1035h407v-1059q0 -225 -103 -332t-325 -107z" />
    <glyph glyph-name="Ucircumflex" unicode="&#xdb;" 
d="M449 1597l-41 -98h-244l168 326h237l166 -326h-252zM444 -23q-230 0 -328 106.5t-98 332.5v1059h406v-1035q0 -53 3 -64t17 -11t17.5 11t3.5 64v1035h407v-1059q0 -225 -103 -332t-325 -107z" />
    <glyph glyph-name="Udieresis" unicode="&#xdc;" 
d="M283 1497q-88 0 -115 29t-27 119q0 95 30.5 129t111.5 34q85 0 116 -33.5t31 -129.5q0 -86 -30.5 -117t-116.5 -31zM602 1497q-88 0 -114.5 28.5t-26.5 119.5q0 97 28.5 130t112.5 33q85 0 116.5 -34t31.5 -129q0 -86 -31.5 -117t-116.5 -31zM444 -23q-230 0 -328 106.5
t-98 332.5v1059h406v-1035q0 -53 3 -64t17 -11t17.5 11t3.5 64v1035h407v-1059q0 -225 -103 -332t-325 -107z" />
    <glyph glyph-name="Yacute" unicode="&#xdd;" horiz-adv-x="870" 
d="M430 1806h354l-225 -307h-272zM225 0v399l-260 1076h408l49 -306l14 -317l8 317l56 306h403l-262 -1035v-440h-416z" />
    <glyph glyph-name="Thorn" unicode="&#xde;" horiz-adv-x="876" 
d="M414 162v-162h-394v1475h394v-160h22q227 0 327.5 -90t100.5 -275v-391q0 -194 -102.5 -295.5t-327.5 -101.5h-20zM414 508q45 0 45 61v361q0 57 -45 57v-479z" />
    <glyph glyph-name="germandbls" unicode="&#xdf;" horiz-adv-x="929" 
d="M621 -6q-116 0 -164 6v344h14q25 0 25 33v194q0 31 -29 31h-12v332h12q27 0 27 35v186q0 29 -33 29q-35 0 -35 -37v-1147h-406v1188q0 169 120.5 260.5t334.5 91.5q211 0 318.5 -89t107.5 -237v-213q0 -93 -23 -145.5t-71 -77.5q106 -52 106 -219v-225q0 -146 -24 -219
q-24 -71 -83.5 -96t-184.5 -25z" />
    <glyph glyph-name="agrave" unicode="&#xe0;" horiz-adv-x="868" 
d="M133 1548h354l103 -307h-246zM475 160q-13 -103 -67 -145t-154 -42q-121 0 -181.5 62t-60.5 205v110q0 87 19 139t59 89q12 10 26 19.5t25.5 16t31.5 15t31 13t37 12.5t36 11t42.5 12.5t42.5 12.5q36 9 68 23q20 10 26.5 29t6.5 59v65q0 28 -4 35.5t-17 7.5t-17.5 -9
t-4.5 -38v-143h-397v139q0 188 100 273.5t319 85.5q156 0 238 -33q90 -32 129 -107t39 -209v-868h-336zM440 272q23 0 23 37v228l-4 -5q-3 -3 -13.5 -7.5t-15.5 -8.5q-12 -10 -12 -45v-158v-18.5t2 -11.5t7 -9t13 -2z" />
    <glyph glyph-name="aacute" unicode="&#xe1;" horiz-adv-x="868" 
d="M436 1548h355l-226 -307h-272zM475 160q-13 -103 -67 -145t-154 -42q-121 0 -181.5 62t-60.5 205v110q0 87 19 139t59 89q12 10 26 19.5t25.5 16t31.5 15t31 13t37 12.5t36 11t42.5 12.5t42.5 12.5q36 9 68 23q20 10 26.5 29t6.5 59v65q0 28 -4 35.5t-17 7.5t-17.5 -9
t-4.5 -38v-143h-397v139q0 188 100 273.5t319 85.5q156 0 238 -33q90 -32 129 -107t39 -209v-868h-336zM440 272q23 0 23 37v228l-4 -5q-3 -3 -13.5 -7.5t-15.5 -8.5q-12 -10 -12 -45v-158v-18.5t2 -11.5t7 -9t13 -2z" />
    <glyph glyph-name="acircumflex" unicode="&#xe2;" horiz-adv-x="868" 
d="M444 1339l-41 -98h-243l168 326h237l166 -326h-252zM475 160q-13 -103 -67 -145t-154 -42q-121 0 -181.5 62t-60.5 205v110q0 87 19 139t59 89q12 10 26 19.5t25.5 16t31.5 15t31 13t37 12.5t36 11t42.5 12.5t42.5 12.5q36 9 68 23q20 10 26.5 29t6.5 59v65q0 28 -4 35.5
t-17 7.5t-17.5 -9t-4.5 -38v-143h-397v139q0 188 100 273.5t319 85.5q156 0 238 -33q90 -32 129 -107t39 -209v-868h-336zM440 272q23 0 23 37v228l-4 -5q-3 -3 -13.5 -7.5t-15.5 -8.5q-12 -10 -12 -45v-158v-18.5t2 -11.5t7 -9t13 -2z" />
    <glyph glyph-name="atilde" unicode="&#xe3;" horiz-adv-x="868" 
d="M143 1237q0 132 17 219q17 76 57 107.5t113 31.5q42 0 86 -14q13 -6 35 -16.5t33.5 -16t26 -10t26.5 -4.5q22 0 30 13t8 40h222q0 -126 -19 -223q-18 -75 -57.5 -104t-110.5 -29q-54 0 -86 18q-13 6 -34.5 17t-33.5 17.5t-28.5 11.5t-30.5 5q-23 0 -31 -15.5t-8 -47.5
h-215zM475 160q-13 -103 -67 -145t-154 -42q-121 0 -181.5 62t-60.5 205v110q0 87 19 139t59 89q12 10 26 19.5t25.5 16t31.5 15t31 13t37 12.5t36 11t42.5 12.5t42.5 12.5q36 9 68 23q20 10 26.5 29t6.5 59v65q0 28 -4 35.5t-17 7.5t-17.5 -9t-4.5 -38v-143h-397v139
q0 188 100 273.5t319 85.5q156 0 238 -33q90 -32 129 -107t39 -209v-868h-336zM440 272q23 0 23 37v228l-4 -5q-3 -3 -13.5 -7.5t-15.5 -8.5q-12 -10 -12 -45v-158v-18.5t2 -11.5t7 -9t13 -2z" />
    <glyph glyph-name="adieresis" unicode="&#xe4;" horiz-adv-x="868" 
d="M287 1229q-88 0 -115 28.5t-27 118.5q0 95 30.5 129.5t111.5 34.5q85 0 116 -34t31 -130q0 -86 -30.5 -116.5t-116.5 -30.5zM606 1229q-88 0 -114.5 28.5t-26.5 118.5q0 97 28.5 130.5t112.5 33.5t116 -34t32 -130q0 -86 -31.5 -116.5t-116.5 -30.5zM475 160
q-13 -103 -67 -145t-154 -42q-121 0 -181.5 62t-60.5 205v110q0 87 19 139t59 89q12 10 26 19.5t25.5 16t31.5 15t31 13t37 12.5t36 11t42.5 12.5t42.5 12.5q36 9 68 23q20 10 26.5 29t6.5 59v65q0 28 -4 35.5t-17 7.5t-17.5 -9t-4.5 -38v-143h-397v139q0 188 100 273.5
t319 85.5q156 0 238 -33q90 -32 129 -107t39 -209v-868h-336zM440 272q23 0 23 37v228l-4 -5q-3 -3 -13.5 -7.5t-15.5 -8.5q-12 -10 -12 -45v-158v-18.5t2 -11.5t7 -9t13 -2z" />
    <glyph glyph-name="aring" unicode="&#xe5;" horiz-adv-x="868" 
d="M442 1239q-122 0 -190 55.5t-68 161.5q0 115 72 173.5t186 58.5q117 0 187.5 -60.5t70.5 -167.5q0 -104 -66.5 -162.5t-191.5 -58.5zM444 1436q33 0 33 26q0 29 -33 29q-32 0 -32 -29q0 -13 6.5 -19.5t25.5 -6.5zM475 160q-13 -103 -67 -145t-154 -42q-121 0 -181.5 62
t-60.5 205v110q0 87 19 139t59 89q12 10 26 19.5t25.5 16t31.5 15t31 13t37 12.5t36 11t42.5 12.5t42.5 12.5q36 9 68 23q20 10 26.5 29t6.5 59v65q0 28 -4 35.5t-17 7.5t-17.5 -9t-4.5 -38v-143h-397v139q0 188 100 273.5t319 85.5q156 0 238 -33q90 -32 129 -107t39 -209
v-868h-336zM440 272q23 0 23 37v228l-4 -5q-3 -3 -13.5 -7.5t-15.5 -8.5q-12 -10 -12 -45v-158v-18.5t2 -11.5t7 -9t13 -2z" />
    <glyph glyph-name="ae" unicode="&#xe6;" horiz-adv-x="1286" 
d="M881 -25q-138 0 -218.5 34t-119.5 106q-65 -142 -254 -142q-147 0 -211 60.5t-64 206.5v157q0 78 17.5 124.5t58.5 78.5q19 16 40 28t51 22t49.5 15.5t64 16t65.5 16.5q68 17 83.5 37t15.5 82v49q0 28 -5 37.5t-18 9.5t-17.5 -10t-4.5 -41v-131h-389v127
q0 166 101.5 262.5t305.5 96.5q153 0 238 -58q80 55 209 55q201 0 296 -100t95 -311v-299h-434v-119q0 -56 4.5 -69t19.5 -13q16 0 18.5 16.5t2.5 94.5v47h389v-76q0 -122 -37 -215q-78 -195 -352 -195zM836 721h51v98q0 54 -4 66t-21 12q-18 0 -22 -14.5t-4 -75.5v-86z
M436 272q23 0 23 37v221l-4 -4q-3 -3 -16 -7.5t-17 -8.5q-10 -10 -10 -45v-152q0 -23 4 -32t20 -9z" />
    <glyph glyph-name="ccedilla" unicode="&#xe7;" horiz-adv-x="858" 
d="M428 -469q-294 0 -328 246h281q15 -41 55 -41q45 0 45 31q0 30 -41 30h-133v187q-155 24 -223 119.5t-68 279.5v418q0 208 111.5 310.5t321.5 102.5q206 0 300.5 -94.5t94.5 -296.5v-168h-393v142q0 60 -3.5 74t-15.5 14q-14 0 -18 -15t-4 -73v-404q0 -50 4 -63t18 -13
q13 0 16 12t3 62v164h393v-178q0 -179 -70.5 -275t-234.5 -120v-35q100 -8 148 -49t48 -142q0 -107 -81 -166t-226 -59z" />
    <glyph glyph-name="egrave" unicode="&#xe8;" horiz-adv-x="862" 
d="M123 1546h354l103 -307h-246zM846 385q0 -122 -37 -215q-78 -195 -369 -195q-167 0 -258 48q-89 46 -127.5 137t-38.5 235v416q0 201 106.5 302t307.5 101q216 0 316 -99.5t100 -311.5v-299h-440v-119q0 -56 4.5 -69t19.5 -13q16 0 18.5 16.5t2.5 94.5v47h395v-76z
M406 721h51v98q0 54 -4 66t-21 12q-18 0 -22 -14.5t-4 -75.5v-86z" />
    <glyph glyph-name="eacute" unicode="&#xe9;" horiz-adv-x="862" 
d="M426 1546h354l-225 -307h-272zM846 385q0 -122 -37 -215q-78 -195 -369 -195q-167 0 -258 48q-89 46 -127.5 137t-38.5 235v416q0 201 106.5 302t307.5 101q216 0 316 -99.5t100 -311.5v-299h-440v-119q0 -56 4.5 -69t19.5 -13q16 0 18.5 16.5t2.5 94.5v47h395v-76z
M406 721h51v98q0 54 -4 66t-21 12q-18 0 -22 -14.5t-4 -75.5v-86z" />
    <glyph glyph-name="ecircumflex" unicode="&#xea;" horiz-adv-x="862" 
d="M434 1333l-41 -98h-243l167 326h238l166 -326h-252zM846 385q0 -122 -37 -215q-78 -195 -369 -195q-167 0 -258 48q-89 46 -127.5 137t-38.5 235v416q0 201 106.5 302t307.5 101q216 0 316 -99.5t100 -311.5v-299h-440v-119q0 -56 4.5 -69t19.5 -13q16 0 18.5 16.5
t2.5 94.5v47h395v-76zM406 721h51v98q0 54 -4 66t-21 12q-18 0 -22 -14.5t-4 -75.5v-86z" />
    <glyph glyph-name="edieresis" unicode="&#xeb;" horiz-adv-x="862" 
d="M268 1225q-88 0 -114.5 28.5t-26.5 118.5q0 96 30 130t111 34q85 0 116.5 -34t31.5 -130q0 -86 -31 -116.5t-117 -30.5zM588 1225q-88 0 -115 28.5t-27 118.5q0 97 29 130.5t113 33.5t115.5 -34t31.5 -130q0 -86 -31 -116.5t-116 -30.5zM846 385q0 -122 -37 -215
q-78 -195 -369 -195q-167 0 -258 48q-89 46 -127.5 137t-38.5 235v416q0 201 106.5 302t307.5 101q216 0 316 -99.5t100 -311.5v-299h-440v-119q0 -56 4.5 -69t19.5 -13q16 0 18.5 16.5t2.5 94.5v47h395v-76zM406 721h51v98q0 54 -4 66t-21 12q-18 0 -22 -14.5t-4 -75.5v-86
z" />
    <glyph glyph-name="igrave" unicode="&#xec;" horiz-adv-x="454" 
d="M-80 1530h354l103 -307h-246zM20 0v1198h414v-1198h-414z" />
    <glyph glyph-name="iacute" unicode="&#xed;" horiz-adv-x="454" 
d="M229 1532h355l-226 -307h-272zM20 0v1198h414v-1198h-414z" />
    <glyph glyph-name="icircumflex" unicode="&#xee;" horiz-adv-x="454" 
d="M231 1321l-41 -98h-243l168 325h237l166 -325h-252zM20 0v1198h414v-1198h-414z" />
    <glyph glyph-name="idieresis" unicode="&#xef;" horiz-adv-x="454" 
d="M66 1221q-88 0 -115 28.5t-27 118.5q0 95 30.5 129.5t111.5 34.5q85 0 116 -34t31 -130q0 -86 -30.5 -116.5t-116.5 -30.5zM385 1221q-88 0 -114.5 28.5t-26.5 118.5q0 97 28.5 130.5t112.5 33.5t115.5 -34t31.5 -130q0 -86 -31 -116.5t-116 -30.5zM20 0v1198h414v-1198
h-414z" />
    <glyph glyph-name="eth" unicode="&#xf0;" horiz-adv-x="860" 
d="M416 -25q-206 0 -303 92t-97 289v422q0 196 62.5 283.5t206.5 87.5q94 0 143.5 -36.5t75.5 -111.5q-37 129 -142 248l-67 -41h-293l250 152q-72 68 -279 211h498q21 -9 59 -43l70 43h293l-250 -152q203 -243 203 -596v-420q0 -218 -112.5 -323t-317.5 -105zM430 317
q13 0 18 11t5 47v389q0 39 -5 49t-18 10t-17.5 -10t-4.5 -49v-389q0 -37 4.5 -47.5t17.5 -10.5z" />
    <glyph glyph-name="ntilde" unicode="&#xf1;" horiz-adv-x="886" 
d="M131 1231q0 137 16 219q17 76 57 107.5t113 31.5q42 0 86 -14q13 -6 35 -16.5t33.5 -16t26 -10t26.5 -4.5q39 0 39 53h221q0 -131 -18 -223q-18 -75 -57.5 -104t-110.5 -29q-54 0 -86 18q-13 6 -34.5 17t-33.5 17.5t-28.5 11.5t-30.5 5q-23 0 -31 -15.5t-8 -47.5h-215z
M424 0h-404v1198h330l45 -162q47 176 234 176q121 0 179 -79t58 -252v-881h-399v807q0 44 -3.5 54.5t-17.5 10.5t-18 -11t-4 -54v-807z" />
    <glyph glyph-name="ograve" unicode="&#xf2;" horiz-adv-x="864" 
d="M125 1544h354l103 -307h-246zM432 -25q-216 0 -316 96t-100 312v418q0 413 416 413q209 0 312.5 -100.5t103.5 -312.5v-418q0 -217 -98.5 -312.5t-317.5 -95.5zM432 313q13 0 18 11t5 47v458q0 39 -5 49.5t-18 10.5t-17.5 -10.5t-4.5 -49.5v-458q0 -37 4.5 -47.5
t17.5 -10.5z" />
    <glyph glyph-name="oacute" unicode="&#xf3;" horiz-adv-x="864" 
d="M428 1544h354l-225 -307h-272zM432 -25q-216 0 -316 96t-100 312v418q0 413 416 413q209 0 312.5 -100.5t103.5 -312.5v-418q0 -217 -98.5 -312.5t-317.5 -95.5zM432 313q13 0 18 11t5 47v458q0 39 -5 49.5t-18 10.5t-17.5 -10.5t-4.5 -49.5v-458q0 -37 4.5 -47.5
t17.5 -10.5z" />
    <glyph glyph-name="ocircumflex" unicode="&#xf4;" horiz-adv-x="864" 
d="M436 1331l-41 -98h-243l167 326h238l166 -326h-252zM432 -25q-216 0 -316 96t-100 312v418q0 413 416 413q209 0 312.5 -100.5t103.5 -312.5v-418q0 -217 -98.5 -312.5t-317.5 -95.5zM432 313q13 0 18 11t5 47v458q0 39 -5 49.5t-18 10.5t-17.5 -10.5t-4.5 -49.5v-458
q0 -37 4.5 -47.5t17.5 -10.5z" />
    <glyph glyph-name="otilde" unicode="&#xf5;" horiz-adv-x="864" 
d="M133 1227q0 132 17 219q17 76 57 107.5t112 31.5q43 0 87 -14q14 -6 35 -16.5t32.5 -16t26 -10t26.5 -4.5q39 0 39 53h221q0 -131 -18 -223q-18 -75 -57.5 -104t-110.5 -29q-54 0 -86 18q-13 6 -34.5 17t-33.5 17.5t-28.5 11.5t-30.5 5q-23 0 -31 -15.5t-8 -47.5h-215z
M432 -25q-216 0 -316 96t-100 312v418q0 413 416 413q209 0 312.5 -100.5t103.5 -312.5v-418q0 -217 -98.5 -312.5t-317.5 -95.5zM432 313q13 0 18 11t5 47v458q0 39 -5 49.5t-18 10.5t-17.5 -10.5t-4.5 -49.5v-458q0 -37 4.5 -47.5t17.5 -10.5z" />
    <glyph glyph-name="odieresis" unicode="&#xf6;" horiz-adv-x="864" 
d="M276 1223q-88 0 -114.5 28.5t-26.5 118.5q0 96 30 130t111 34q85 0 116.5 -34t31.5 -130q0 -86 -31 -116.5t-117 -30.5zM596 1223q-88 0 -114.5 28.5t-26.5 118.5q0 97 28.5 130.5t112.5 33.5t115.5 -34t31.5 -130q0 -86 -31 -116.5t-116 -30.5zM432 -25q-216 0 -316 96
t-100 312v418q0 413 416 413q209 0 312.5 -100.5t103.5 -312.5v-418q0 -217 -98.5 -312.5t-317.5 -95.5zM432 313q13 0 18 11t5 47v458q0 39 -5 49.5t-18 10.5t-17.5 -10.5t-4.5 -49.5v-458q0 -37 4.5 -47.5t17.5 -10.5z" />
    <glyph glyph-name="divide" unicode="&#xf7;" horiz-adv-x="833" 
d="M416 918q-87 0 -121 10q-40 10 -56 38t-16 85q0 82 39.5 107.5t153.5 25.5t153 -25.5t39 -107.5t-38 -107.5t-154 -25.5zM16 889h801v-340h-801v340zM416 246q-120 0 -156.5 26t-36.5 109t40 109t153 26t152.5 -26t39.5 -109q0 -82 -38.5 -108.5t-153.5 -26.5z" />
    <glyph glyph-name="oslash" unicode="&#xf8;" horiz-adv-x="878" 
d="M23 -217l81 307q-81 97 -81 293v418q0 373 339 409l41 146h422l-67 -248q98 -101 98 -307v-418q0 -201 -85 -297.5t-273 -108.5l-52 -194h-423zM440 317q8 0 12.5 5t7.5 22t3 49v406v72q-3 14 -23 14q-16 0 -19 -11t-3 -54v-21v-406q0 -76 22 -76z" />
    <glyph glyph-name="ugrave" unicode="&#xf9;" horiz-adv-x="874" 
d="M129 1530h354l103 -307h-246zM487 158q-19 -91 -69 -133.5t-142 -42.5q-138 0 -198 79t-60 261v876h400v-809q0 -39 3 -50t15 -11q16 0 19.5 12t3.5 53v805h395v-1198h-324z" />
    <glyph glyph-name="uacute" unicode="&#xfa;" horiz-adv-x="874" 
d="M432 1530h354l-225 -307h-272zM487 158q-19 -91 -69 -133.5t-142 -42.5q-138 0 -198 79t-60 261v876h400v-809q0 -39 3 -50t15 -11q16 0 19.5 12t3.5 53v805h395v-1198h-324z" />
    <glyph glyph-name="ucircumflex" unicode="&#xfb;" horiz-adv-x="874" 
d="M440 1321l-41 -98h-243l168 325h237l166 -325h-252zM487 158q-19 -91 -69 -133.5t-142 -42.5q-138 0 -198 79t-60 261v876h400v-809q0 -39 3 -50t15 -11q16 0 19.5 12t3.5 53v805h395v-1198h-324z" />
    <glyph glyph-name="udieresis" unicode="&#xfc;" horiz-adv-x="874" 
d="M274 1221q-88 0 -114.5 28.5t-26.5 118.5q0 96 30 130t111 34q85 0 116.5 -34t31.5 -130q0 -86 -31 -116.5t-117 -30.5zM594 1221q-88 0 -114.5 28.5t-26.5 118.5q0 97 28.5 130.5t112.5 33.5t115.5 -34t31.5 -130q0 -86 -31 -116.5t-116 -30.5zM487 158
q-19 -91 -69 -133.5t-142 -42.5q-138 0 -198 79t-60 261v876h400v-809q0 -39 3 -50t15 -11q16 0 19.5 12t3.5 53v805h395v-1198h-324z" />
    <glyph glyph-name="yacute" unicode="&#xfd;" horiz-adv-x="868" 
d="M416 1532h354l-225 -307h-273zM53 -399v366h84q51 0 65.5 10.5t20.5 53.5l-248 1167h414l39 -291l10 -501l19 499l37 293h399l-223 -1194q-27 -142 -60.5 -222t-85.5 -118q-48 -36 -124 -49.5t-201 -13.5h-146z" />
    <glyph glyph-name="thorn" unicode="&#xfe;" horiz-adv-x="876" 
d="M594 -16q-86 0 -128.5 40.5t-55.5 116.5v-501h-394v1933h394v-508q50 147 202 147q80 0 129 -38q113 -80 113 -386v-339q0 -252 -57.5 -358.5t-202.5 -106.5zM430 313q11 0 15 4t7 26.5t3 72.5v372q0 69 -3 85t-20 16q-14 0 -18 -18.5t-4 -94.5v-381q0 -38 3.5 -57.5
t6.5 -22t10 -2.5z" />
    <glyph glyph-name="ydieresis" unicode="&#xff;" horiz-adv-x="868" 
d="M281 1223q-88 0 -115 28.5t-27 118.5q0 95 30.5 129.5t111.5 34.5q85 0 116 -34t31 -130q0 -86 -30.5 -116.5t-116.5 -30.5zM600 1223q-88 0 -114.5 28.5t-26.5 118.5q0 97 28.5 130.5t112.5 33.5t116 -34t32 -130q0 -86 -31.5 -116.5t-116.5 -30.5zM53 -399v366h84
q51 0 65.5 10.5t20.5 53.5l-248 1167h414l39 -291l10 -501l19 499l37 293h399l-223 -1194q-27 -142 -60.5 -222t-85.5 -118q-48 -36 -124 -49.5t-201 -13.5h-146z" />
    <glyph glyph-name="Amacron" unicode="&#x100;" 
d="M238 1765h413v-266h-413v266zM510 113h-129l-10 -113h-391l204 1475h510l217 -1475h-391zM414 436h63l-20 199l-15 301l-10 -301z" />
    <glyph glyph-name="amacron" unicode="&#x101;" horiz-adv-x="868" 
d="M233 1507h414v-266h-414v266zM475 160q-13 -103 -67 -145t-154 -42q-121 0 -181.5 62t-60.5 205v110q0 87 19 139t59 89q12 10 26 19.5t25.5 16t31.5 15t31 13t37 12.5t36 11t42.5 12.5t42.5 12.5q36 9 68 23q20 10 26.5 29t6.5 59v65q0 28 -4 35.5t-17 7.5t-17.5 -9
t-4.5 -38v-143h-397v139q0 188 100 273.5t319 85.5q156 0 238 -33q90 -32 129 -107t39 -209v-868h-336zM440 272q23 0 23 37v228l-4 -5q-3 -3 -13.5 -7.5t-15.5 -8.5q-12 -10 -12 -45v-158v-18.5t2 -11.5t7 -9t13 -2z" />
    <glyph glyph-name="Abreve" unicode="&#x102;" 
d="M446 1497q-148 0 -211 68.5t-63 230.5h240q0 -50 4.5 -60t29.5 -10q23 0 28 11t5 59h240q0 -165 -63 -232t-210 -67zM510 113h-129l-10 -113h-391l204 1475h510l217 -1475h-391zM414 436h63l-20 199l-15 301l-10 -301z" />
    <glyph glyph-name="abreve" unicode="&#x103;" horiz-adv-x="868" 
d="M442 1239q-148 0 -211 68.5t-63 230.5h240q0 -50 4.5 -60t29.5 -10q23 0 28 11t5 59h240q0 -165 -63 -232t-210 -67zM475 160q-13 -103 -67 -145t-154 -42q-121 0 -181.5 62t-60.5 205v110q0 87 19 139t59 89q12 10 26 19.5t25.5 16t31.5 15t31 13t37 12.5t36 11
t42.5 12.5t42.5 12.5q36 9 68 23q20 10 26.5 29t6.5 59v65q0 28 -4 35.5t-17 7.5t-17.5 -9t-4.5 -38v-143h-397v139q0 188 100 273.5t319 85.5q156 0 238 -33q90 -32 129 -107t39 -209v-868h-336zM440 272q23 0 23 37v228l-4 -5q-3 -3 -13.5 -7.5t-15.5 -8.5
q-12 -10 -12 -45v-158v-18.5t2 -11.5t7 -9t13 -2z" />
    <glyph glyph-name="Aogonek" unicode="&#x104;" 
d="M1040 -143q-26 -293 -329 -293q-277 0 -277 227q0 56 23 105t84 104h-21l-10 113h-129l-10 -113h-391l204 1475h510l217 -1475q-46 -33 -145 -113q-59 -53 -59 -75q0 -21 16 -21q31 0 29 66h288zM414 436h63l-20 199l-15 301l-10 -301z" />
    <glyph glyph-name="aogonek" unicode="&#x105;" horiz-adv-x="868" 
d="M977 -143q-26 -293 -330 -293q-276 0 -276 227q0 64 28.5 118t106.5 116l-31 135q-13 -103 -67 -145t-154 -42q-121 0 -181.5 62t-60.5 205v110q0 87 19 139t59 89q12 10 26 19.5t25.5 16t31.5 15t31 13t37 12.5t36 11t42.5 12.5t42.5 12.5q36 9 68 23q20 10 26.5 29
t6.5 59v65q0 28 -4 35.5t-17 7.5t-17.5 -9t-4.5 -38v-143h-397v139q0 188 100 273.5t319 85.5q156 0 238 -33q90 -32 129 -107t39 -209v-868q-55 -40 -146 -113q-59 -53 -59 -75q0 -21 16 -21q31 0 29 66h289zM440 272q23 0 23 37v228l-4 -5q-3 -3 -13.5 -7.5t-15.5 -8.5
q-12 -10 -12 -45v-158v-18.5t2 -11.5t7 -9t13 -2z" />
    <glyph glyph-name="Cacute" unicode="&#x106;" horiz-adv-x="888" 
d="M444 1833h355l-226 -307h-272zM444 -23q-213 0 -320.5 100t-107.5 333v659q0 432 439 432q221 0 320 -101.5t99 -330.5v-238h-409v238q0 38 -2.5 55.5t-6.5 21t-12 3.5q-17 0 -19.5 -11t-2.5 -69v-645q0 -54 4 -67t18 -13q13 0 17 13.5t4 66.5v260h409v-274
q0 -433 -430 -433z" />
    <glyph glyph-name="cacute" unicode="&#x107;" horiz-adv-x="858" 
d="M442 1548h355l-226 -307h-272zM428 -25q-222 0 -317 96t-95 312v418q0 208 111.5 310.5t321.5 102.5q206 0 300.5 -94.5t94.5 -296.5v-168h-393v142q0 60 -3.5 74t-15.5 14q-14 0 -18 -15t-4 -73v-404q0 -50 4 -63t18 -13q13 0 16 12t3 62v164h393v-178
q0 -206 -95.5 -304t-320.5 -98z" />
    <glyph glyph-name="Ccircumflex" unicode="&#x108;" horiz-adv-x="888" 
d="M453 1618l-41 -98h-244l168 325h237l166 -325h-252zM444 -23q-213 0 -320.5 100t-107.5 333v659q0 432 439 432q221 0 320 -101.5t99 -330.5v-238h-409v238q0 38 -2.5 55.5t-6.5 21t-12 3.5q-17 0 -19.5 -11t-2.5 -69v-645q0 -54 4 -67t18 -13q13 0 17 13.5t4 66.5v260
h409v-274q0 -433 -430 -433z" />
    <glyph glyph-name="ccircumflex" unicode="&#x109;" horiz-adv-x="858" 
d="M451 1339l-41 -98h-244l168 326h237l166 -326h-252zM428 -25q-222 0 -317 96t-95 312v418q0 208 111.5 310.5t321.5 102.5q206 0 300.5 -94.5t94.5 -296.5v-168h-393v142q0 60 -3.5 74t-15.5 14q-14 0 -18 -15t-4 -73v-404q0 -50 4 -63t18 -13q13 0 16 12t3 62v164h393
v-178q0 -206 -95.5 -304t-320.5 -98z" />
    <glyph glyph-name="Cdotaccent" unicode="&#x10a;" horiz-adv-x="888" 
d="M444 1524q-76 0 -114 12q-40 12 -55 50t-15 120q0 78 16 121q17 37 55 51t113 14q72 0 113 -12q42 -14 59 -52.5t17 -121.5q0 -73 -17 -119q-17 -37 -56 -50t-116 -13zM444 -23q-213 0 -320.5 100t-107.5 333v659q0 432 439 432q221 0 320 -101.5t99 -330.5v-238h-409
v238q0 38 -2.5 55.5t-6.5 21t-12 3.5q-17 0 -19.5 -11t-2.5 -69v-645q0 -54 4 -67t18 -13q13 0 17 13.5t4 66.5v260h409v-274q0 -433 -430 -433z" />
    <glyph glyph-name="cdotaccent" unicode="&#x10b;" horiz-adv-x="858" 
d="M442 1239q-76 0 -114 12q-40 12 -55 50t-15 120q0 78 16 121q17 37 55.5 51.5t112.5 14.5q69 0 113 -13q42 -14 59 -52.5t17 -121.5q0 -72 -17 -118q-17 -37 -56 -50.5t-116 -13.5zM428 -25q-222 0 -317 96t-95 312v418q0 208 111.5 310.5t321.5 102.5q206 0 300.5 -94.5
t94.5 -296.5v-168h-393v142q0 60 -3.5 74t-15.5 14q-14 0 -18 -15t-4 -73v-404q0 -50 4 -63t18 -13q13 0 16 12t3 62v164h393v-178q0 -206 -95.5 -304t-320.5 -98z" />
    <glyph glyph-name="Ccaron" unicode="&#x10c;" horiz-adv-x="888" 
d="M328 1526l-168 325h256l35 -100l41 100h245l-172 -325h-237zM444 -23q-213 0 -320.5 100t-107.5 333v659q0 432 439 432q221 0 320 -101.5t99 -330.5v-238h-409v238q0 38 -2.5 55.5t-6.5 21t-12 3.5q-17 0 -19.5 -11t-2.5 -69v-645q0 -54 4 -67t18 -13q13 0 17 13.5
t4 66.5v260h409v-274q0 -433 -430 -433z" />
    <glyph glyph-name="ccaron" unicode="&#x10d;" horiz-adv-x="858" 
d="M326 1241l-168 326h256l35 -101l40 101h246l-172 -326h-237zM428 -25q-222 0 -317 96t-95 312v418q0 208 111.5 310.5t321.5 102.5q206 0 300.5 -94.5t94.5 -296.5v-168h-393v142q0 60 -3.5 74t-15.5 14q-14 0 -18 -15t-4 -73v-404q0 -50 4 -63t18 -13q13 0 16 12t3 62
v164h393v-178q0 -206 -95.5 -304t-320.5 -98z" />
    <glyph glyph-name="Dcaron" unicode="&#x10e;" horiz-adv-x="899" 
d="M311 1499l-168 326h256l35 -101l41 101h246l-172 -326h-238zM20 1475h426q125 0 228 -39q209 -88 209 -377v-641q0 -158 -58 -246q-109 -172 -385 -172h-420v1475zM420 350q30 0 37.5 11.5t7.5 60.5v653q0 38 -8 49t-35 11h-2v-785z" />
    <glyph glyph-name="dcaron" unicode="&#x10f;" horiz-adv-x="872" 
d="M471 168q-13 -91 -57.5 -137.5t-141.5 -46.5q-98 0 -153 39q-57 37 -80 129t-23 262v401q0 156 29 248q29 82 82.5 115.5t134.5 33.5q147 0 193 -155v516h397v-1573h-340zM915 1573h189l-146 -340h-104zM438 313q9 0 12.5 3t6 21.5t2.5 57.5v381q0 80 -3 96.5t-20 16.5
q-14 0 -18 -18t-4 -83v-372q0 -50 2.5 -72t6.5 -26.5t15 -4.5z" />
    <glyph glyph-name="Dcroat" unicode="&#x110;" horiz-adv-x="909" 
d="M31 0v582h-31v348h31v545h426q124 0 227 -39q209 -88 209 -377v-641q0 -160 -57 -246q-109 -172 -385 -172h-420zM430 582v-232h14q30 0 37.5 11.5t7.5 60.5v653q0 38 -8 49t-35 11h-16v-205h37v-348h-37z" />
    <glyph glyph-name="dcroat" unicode="&#x111;" horiz-adv-x="862" 
d="M461 166q-12 -88 -55.5 -135t-139.5 -47q-144 0 -197 105t-53 360v339q0 159 29 254q48 170 211 170q75 0 119.5 -36.5t68.5 -114.5v156h-96v253h96v103h398v-103h20v-253h-20v-1217h-340zM428 313q9 0 12.5 3t6 21.5t2.5 57.5v381q0 80 -3 96.5t-20 16.5
q-14 0 -18.5 -18.5t-4.5 -82.5v-372q0 -50 3 -72.5t7 -26.5t15 -4z" />
    <glyph glyph-name="Emacron" unicode="&#x112;" horiz-adv-x="727" 
d="M170 1765h414v-266h-414v266zM711 0h-691v1475h691v-385h-293v-150h293v-387h-293v-158h293v-395z" />
    <glyph glyph-name="emacron" unicode="&#x113;" horiz-adv-x="862" 
d="M223 1505h414v-266h-414v266zM846 385q0 -122 -37 -215q-78 -195 -369 -195q-167 0 -258 48q-89 46 -127.5 137t-38.5 235v416q0 201 106.5 302t307.5 101q216 0 316 -99.5t100 -311.5v-299h-440v-119q0 -56 4.5 -69t19.5 -13q16 0 18.5 16.5t2.5 94.5v47h395v-76z
M406 721h51v98q0 54 -4 66t-21 12q-18 0 -22 -14.5t-4 -75.5v-86z" />
    <glyph glyph-name="Ebreve" unicode="&#x114;" horiz-adv-x="727" 
d="M379 1497q-148 0 -211.5 68.5t-63.5 230.5h240q0 -50 5 -60t30 -10q23 0 28 11t5 59h239q0 -165 -62.5 -232t-209.5 -67zM711 0h-691v1475h691v-385h-293v-150h293v-387h-293v-158h293v-395z" />
    <glyph glyph-name="ebreve" unicode="&#x115;" horiz-adv-x="862" 
d="M432 1237q-148 0 -211 68.5t-63 230.5h239q0 -50 5 -60t30 -10q23 0 28 11t5 59h240q0 -165 -63 -232t-210 -67zM846 385q0 -122 -37 -215q-78 -195 -369 -195q-167 0 -258 48q-89 46 -127.5 137t-38.5 235v416q0 201 106.5 302t307.5 101q216 0 316 -99.5t100 -311.5
v-299h-440v-119q0 -56 4.5 -69t19.5 -13q16 0 18.5 16.5t2.5 94.5v47h395v-76zM406 721h51v98q0 54 -4 66t-21 12q-18 0 -22 -14.5t-4 -75.5v-86z" />
    <glyph glyph-name="Edotaccent" unicode="&#x116;" horiz-adv-x="727" 
d="M373 1497q-77 0 -115 12q-40 12 -55 50t-15 120q0 75 17 121q17 37 55.5 51.5t112.5 14.5q68 0 112 -13q42 -14 59 -52.5t17 -121.5q0 -75 -16 -118q-17 -37 -56 -50.5t-116 -13.5zM711 0h-691v1475h691v-385h-293v-150h293v-387h-293v-158h293v-395z" />
    <glyph glyph-name="edotaccent" unicode="&#x117;" horiz-adv-x="862" 
d="M426 1237q-78 0 -115 12q-40 12 -54.5 50t-14.5 120q0 78 16 121q17 37 55.5 51.5t112.5 14.5q69 0 113 -13q41 -14 58 -52.5t17 -121.5q0 -76 -16 -119q-17 -37 -56 -50t-116 -13zM846 385q0 -122 -37 -215q-78 -195 -369 -195q-167 0 -258 48q-89 46 -127.5 137
t-38.5 235v416q0 201 106.5 302t307.5 101q216 0 316 -99.5t100 -311.5v-299h-440v-119q0 -56 4.5 -69t19.5 -13q16 0 18.5 16.5t2.5 94.5v47h395v-76zM406 721h51v98q0 54 -4 66t-21 12q-18 0 -22 -14.5t-4 -75.5v-86z" />
    <glyph glyph-name="Eogonek" unicode="&#x118;" horiz-adv-x="727" 
d="M840 -143q-26 -293 -330 -293q-277 0 -277 227q0 56 23 105t84 104h-320v1475h691v-385h-293v-150h293v-387h-293v-158h293v-395q-55 -40 -146 -113q-59 -53 -59 -75q0 -21 16 -21q31 0 29 66h289z" />
    <glyph glyph-name="eogonek" unicode="&#x119;" horiz-adv-x="862" 
d="M506 -393q-277 0 -277 227q0 84 56 156q-150 29 -209.5 127t-59.5 278v416q0 201 106.5 302t307.5 101q216 0 316 -99.5t100 -311.5v-299h-440v-119q0 -56 4.5 -69t19.5 -13q16 0 18.5 16.5t2.5 94.5v47h395v-76q0 -244 -144 -344q-107 -79 -141 -111q-59 -53 -59 -75
q0 -21 16 -21q31 0 29 66h289q-26 -293 -330 -293zM406 721h51v98q0 54 -4 66t-21 12q-18 0 -22 -14.5t-4 -75.5v-86z" />
    <glyph glyph-name="Ecaron" unicode="&#x11a;" horiz-adv-x="727" 
d="M256 1499l-168 326h256l35 -101l41 101h246l-172 -326h-238zM711 0h-691v1475h691v-385h-293v-150h293v-387h-293v-158h293v-395z" />
    <glyph glyph-name="ecaron" unicode="&#x11b;" horiz-adv-x="862" 
d="M309 1239l-168 326h256l35 -101l41 101h246l-172 -326h-238zM846 385q0 -122 -37 -215q-78 -195 -369 -195q-167 0 -258 48q-89 46 -127.5 137t-38.5 235v416q0 201 106.5 302t307.5 101q216 0 316 -99.5t100 -311.5v-299h-440v-119q0 -56 4.5 -69t19.5 -13
q16 0 18.5 16.5t2.5 94.5v47h395v-76zM406 721h51v98q0 54 -4 66t-21 12q-18 0 -22 -14.5t-4 -75.5v-86z" />
    <glyph glyph-name="Gcircumflex" unicode="&#x11c;" horiz-adv-x="907" 
d="M457 1618l-41 -98h-244l168 325h238l165 -325h-251zM541 199q-18 -113 -74 -167.5t-168 -54.5q-156 0 -219.5 97t-63.5 329v670q0 426 439 426q225 0 328.5 -98.5t103.5 -321.5v-127h-416v133q0 45 -4 54.5t-18 9.5q-15 0 -19 -10.5t-4 -57.5v-653q0 -59 9 -78.5
t36 -19.5q26 0 35.5 20t9.5 78v57h-59v394h430v-879h-330z" />
    <glyph glyph-name="gcircumflex" unicode="&#x11d;" horiz-adv-x="864" 
d="M438 1477l-41 -99h-243l168 326h237l166 -326h-252zM379 -379q-147 0 -236 25q-86 24 -123.5 66.5t-37.5 103.5q0 86 58.5 126.5t188.5 34.5q-118 7 -171.5 53t-53.5 132q0 189 234 215q-116 13 -171 88t-55 217v180q0 162 69 243t226 101l45 6q67 10 83 29t16 90v21h419
v-2q0 -68 -9 -101.5t-34 -50.5q-46 -21 -254 -12q152 -20 214.5 -88t62.5 -219v-201q0 -192 -101 -274t-331 -82h-88q-37 0 -50.5 -4t-13.5 -15q0 -10 14 -12t76 -2h119q217 0 306 -76t89 -240v-4q0 -122 -45 -196q-45 -77 -150.5 -114.5t-289.5 -37.5h-6zM428 590
q23 0 23 45v260q0 34 -3 41.5t-20 7.5q-14 0 -19.5 -10t-5.5 -41v-256q0 -26 5.5 -36.5t19.5 -10.5zM453 -68q65 0 65 23v4q0 16 -47 16h-76q-34 0 -46.5 -5t-12.5 -17v-2q0 -19 67 -19h50z" />
    <glyph glyph-name="Gbreve" unicode="&#x11e;" horiz-adv-x="907" 
d="M455 1522q-148 0 -211.5 68.5t-63.5 230.5h240q0 -49 5 -59.5t30 -10.5q23 0 27.5 11t4.5 59h240q0 -165 -62.5 -232t-209.5 -67zM541 199q-18 -113 -74 -167.5t-168 -54.5q-156 0 -219.5 97t-63.5 329v670q0 426 439 426q225 0 328.5 -98.5t103.5 -321.5v-127h-416v133
q0 45 -4 54.5t-18 9.5q-15 0 -19 -10.5t-4 -57.5v-653q0 -59 9 -78.5t36 -19.5q26 0 35.5 20t9.5 78v57h-59v394h430v-879h-330z" />
    <glyph glyph-name="gbreve" unicode="&#x11f;" horiz-adv-x="864" 
d="M436 1376q-148 0 -211 68.5t-63 230.5h239q0 -49 5 -59t30 -10q23 0 28 10.5t5 58.5h240q0 -165 -63 -232t-210 -67zM379 -379q-147 0 -236 25q-86 24 -123.5 66.5t-37.5 103.5q0 86 58.5 126.5t188.5 34.5q-118 7 -171.5 53t-53.5 132q0 189 234 215q-116 13 -171 88
t-55 217v180q0 162 69 243t226 101l45 6q67 10 83 29t16 90v21h419v-2q0 -68 -9 -101.5t-34 -50.5q-46 -21 -254 -12q152 -20 214.5 -88t62.5 -219v-201q0 -192 -101 -274t-331 -82h-88q-37 0 -50.5 -4t-13.5 -15q0 -10 14 -12t76 -2h119q217 0 306 -76t89 -240v-4
q0 -122 -45 -196q-45 -77 -150.5 -114.5t-289.5 -37.5h-6zM428 590q23 0 23 45v260q0 34 -3 41.5t-20 7.5q-14 0 -19.5 -10t-5.5 -41v-256q0 -26 5.5 -36.5t19.5 -10.5zM453 -68q65 0 65 23v4q0 16 -47 16h-76q-34 0 -46.5 -5t-12.5 -17v-2q0 -19 67 -19h50z" />
    <glyph glyph-name="Gdotaccent" unicode="&#x120;" horiz-adv-x="907" 
d="M449 1522q-77 0 -115 12q-40 12 -55 50t-15 120q0 75 17 121q17 37 55 51t113 14q71 0 112 -12q42 -14 59 -52.5t17 -121.5q0 -76 -16 -119q-17 -37 -56 -50t-116 -13zM541 199q-18 -113 -74 -167.5t-168 -54.5q-156 0 -219.5 97t-63.5 329v670q0 426 439 426
q225 0 328.5 -98.5t103.5 -321.5v-127h-416v133q0 45 -4 54.5t-18 9.5q-15 0 -19 -10.5t-4 -57.5v-653q0 -59 9 -78.5t36 -19.5q26 0 35.5 20t9.5 78v57h-59v394h430v-879h-330z" />
    <glyph glyph-name="gdotaccent" unicode="&#x121;" horiz-adv-x="864" 
d="M430 1376q-74 0 -115 13q-40 12 -54.5 50t-14.5 120q0 77 16 120q17 37 55.5 51.5t112.5 14.5q72 0 113 -12q41 -14 58 -52.5t17 -121.5q0 -76 -16 -119q-17 -37 -56 -50.5t-116 -13.5zM379 -379q-147 0 -236 25q-86 24 -123.5 66.5t-37.5 103.5q0 86 58.5 126.5
t188.5 34.5q-118 7 -171.5 53t-53.5 132q0 189 234 215q-116 13 -171 88t-55 217v180q0 162 69 243t226 101l45 6q67 10 83 29t16 90v21h419v-2q0 -68 -9 -101.5t-34 -50.5q-46 -21 -254 -12q152 -20 214.5 -88t62.5 -219v-201q0 -192 -101 -274t-331 -82h-88
q-37 0 -50.5 -4t-13.5 -15q0 -10 14 -12t76 -2h119q217 0 306 -76t89 -240v-4q0 -122 -45 -196q-45 -77 -150.5 -114.5t-289.5 -37.5h-6zM428 590q23 0 23 45v260q0 34 -3 41.5t-20 7.5q-14 0 -19.5 -10t-5.5 -41v-256q0 -26 5.5 -36.5t19.5 -10.5zM453 -68q65 0 65 23v4
q0 16 -47 16h-76q-34 0 -46.5 -5t-12.5 -17v-2q0 -19 67 -19h50z" />
    <glyph glyph-name="uni0122" unicode="&#x122;" horiz-adv-x="907" 
d="M541 199q-18 -113 -74 -167.5t-168 -54.5q-156 0 -219.5 97t-63.5 329v670q0 426 439 426q225 0 328.5 -98.5t103.5 -321.5v-127h-416v133q0 45 -4 54.5t-18 9.5q-15 0 -19 -10.5t-4 -57.5v-653q0 -59 9 -78.5t36 -19.5q26 0 35.5 20t9.5 78v57h-59v394h430v-879h-330z
M301 -342q119 0 173 10.5t67 44.5q-23 -6 -70 -6q-114 0 -151 23t-37 108q0 83 43.5 110t171.5 27q82 0 131 -12q47 -13 66.5 -52.5t19.5 -119.5q0 -101 -43 -147q-41 -50 -129 -70t-242 -20v104z" />
    <glyph glyph-name="uni0123" unicode="&#x123;" horiz-adv-x="864" 
d="M436 1376q-77 0 -131 13q-47 13 -66.5 52.5t-19.5 119.5q0 101 43 147q41 50 129 70t242 20v-104q-118 0 -172.5 -11t-67.5 -45q27 7 70 7q114 0 151 -23t37 -109q0 -83 -43.5 -110t-171.5 -27zM379 -379q-147 0 -236 25q-86 24 -123.5 66.5t-37.5 103.5q0 86 58.5 126.5
t188.5 34.5q-118 7 -171.5 53t-53.5 132q0 189 234 215q-116 13 -171 88t-55 217v180q0 162 69 243t226 101l45 6q67 10 83 29t16 90v21h419v-2q0 -68 -9 -101.5t-34 -50.5q-46 -21 -254 -12q152 -20 214.5 -88t62.5 -219v-201q0 -192 -101 -274t-331 -82h-88
q-37 0 -50.5 -4t-13.5 -15q0 -10 14 -12t76 -2h119q217 0 306 -76t89 -240v-4q0 -122 -45 -196q-45 -77 -150.5 -114.5t-289.5 -37.5h-6zM428 590q23 0 23 45v260q0 34 -3 41.5t-20 7.5q-14 0 -19.5 -10t-5.5 -41v-256q0 -26 5.5 -36.5t19.5 -10.5zM453 -68q65 0 65 23v4
q0 16 -47 16h-76q-34 0 -46.5 -5t-12.5 -17v-2q0 -19 67 -19h50z" />
    <glyph glyph-name="Hcircumflex" unicode="&#x124;" horiz-adv-x="882" 
d="M442 1597l-41 -98h-243l168 326h237l166 -326h-252zM461 551h-41v-551h-400v1475h400v-543h41v543h401v-1475h-401v551z" />
    <glyph glyph-name="hcircumflex" unicode="&#x125;" horiz-adv-x="882" 
d="M219 1696l-41 -99h-244l168 326h238l166 -326h-252zM420 0h-400v1573h402v-541q39 180 219 180q119 0 170 -77.5t51 -253.5v-881h-399v807q0 43 -3.5 54t-15.5 11q-14 0 -19 -11.5t-5 -53.5v-807z" />
    <glyph glyph-name="Hbar" unicode="&#x126;" horiz-adv-x="903" 
d="M475 551h-49v-551h-395v1042h-33v281h33v152h395v-152h49v152h397v-152h33v-281h-33v-1042h-397v551zM475 1042h-49v-172h49v172z" />
    <glyph glyph-name="hbar" unicode="&#x127;" horiz-adv-x="878" 
d="M420 0h-400v1243h-20v230h20v100h402v-100h61v-230h-61v-211q39 180 219 180q119 0 170 -77.5t51 -253.5v-881h-399v807q0 43 -3.5 54t-15.5 11q-14 0 -19 -11.5t-5 -53.5v-807z" />
    <glyph glyph-name="Itilde" unicode="&#x128;" horiz-adv-x="460" 
d="M-92 1499q0 137 16 219q17 76 57.5 108t112.5 32q39 0 86 -15q13 -6 35 -16.5t33.5 -16t26 -10t26.5 -4.5q39 0 39 53h221q0 -131 -18 -223q-18 -75 -57.5 -104t-110.5 -29q-54 0 -86 18q-13 6 -43 22t-48 23t-36 7q-23 0 -31 -15.5t-8 -48.5h-215zM23 1475h415v-1475
h-415v1475z" />
    <glyph glyph-name="itilde" unicode="&#x129;" horiz-adv-x="454" 
d="M-94 1223q0 137 16 219q17 76 57 107.5t113 31.5q42 0 86 -14q13 -6 35 -16.5t33.5 -16t26 -10t26.5 -4.5q39 0 39 53h221q0 -131 -18 -223q-18 -75 -57.5 -104t-110.5 -29q-54 0 -86 18q-13 6 -34.5 17t-33.5 17.5t-28.5 11.5t-30.5 5q-23 0 -31 -15.5t-8 -47.5h-215z
M20 0v1198h414v-1198h-414z" />
    <glyph glyph-name="Imacron" unicode="&#x12a;" horiz-adv-x="460" 
d="M23 1765h413v-266h-413v266zM23 1475h415v-1475h-415v1475z" />
    <glyph glyph-name="imacron" unicode="&#x12b;" horiz-adv-x="454" 
d="M20 1489h414v-266h-414v266zM20 0v1198h414v-1198h-414z" />
    <glyph glyph-name="Ibreve" unicode="&#x12c;" horiz-adv-x="460" 
d="M231 1497q-148 0 -211 68.5t-63 230.5h240q0 -50 4.5 -60t29.5 -10q23 0 28 11t5 59h240q0 -165 -63 -232t-210 -67zM23 1475h415v-1475h-415v1475z" />
    <glyph glyph-name="ibreve" unicode="&#x12d;" horiz-adv-x="454" 
d="M229 1221q-148 0 -211 68.5t-63 230.5h240q0 -50 4.5 -60t29.5 -10q23 0 28 11t5 59h240q0 -165 -63 -232t-210 -67zM20 0v1198h414v-1198h-414z" />
    <glyph glyph-name="Iogonek" unicode="&#x12e;" horiz-adv-x="460" 
d="M567 -143q-26 -293 -329 -293q-277 0 -277 227q0 56 23 105t84 104h-45v1475h415v-1475q-46 -33 -145 -113q-60 -54 -60 -75t17 -21q31 0 29 66h288z" />
    <glyph glyph-name="iogonek" unicode="&#x12f;" horiz-adv-x="454" 
d="M225 1171q-80 0 -133 17q-46 17 -63 59.5t-17 130.5q0 74 17 127q19 42 64 60t132 18q85 0 135 -16q46 -18 64 -61t18 -128q0 -77 -16 -127q-17 -44 -62.5 -62t-138.5 -18zM563 -143q-26 -293 -330 -293q-276 0 -276 227q0 57 22 105.5t84 103.5h-43v1194q28 -31 72 -44
t135 -13q92 0 134 13t73 46v-1196q-46 -33 -145 -113q-60 -54 -60 -75t17 -21q30 0 28 66h289z" />
    <glyph glyph-name="Idotaccent" unicode="&#x130;" horiz-adv-x="460" 
d="M225 1497q-77 0 -114 12q-40 12 -55 50t-15 120q0 78 16 121q17 37 55.5 51.5t112.5 14.5q69 0 113 -13q42 -14 59 -52.5t17 -121.5q0 -72 -17 -118q-17 -37 -56 -50.5t-116 -13.5zM23 1475h415v-1475h-415v1475z" />
    <glyph glyph-name="dotlessi" unicode="&#x131;" horiz-adv-x="454" 
d="M20 0v1198h414v-1198h-414z" />
    <glyph glyph-name="IJ" unicode="&#x132;" horiz-adv-x="958" 
d="M471 377h14q26 0 31.5 7t5.5 40v1057h416v-1055q0 -154 -12.5 -236t-46.5 -122q-33 -40 -96.5 -54t-180.5 -14h-131v377zM23 1475h415v-1475h-415v1475z" />
    <glyph glyph-name="ij" unicode="&#x133;" horiz-adv-x="913" 
d="M227 1169q-124 0 -168.5 36.5t-44.5 144.5q0 105 45 140.5t168 35.5q119 0 165 -36t46 -140q0 -105 -46.5 -143t-164.5 -38zM682 1169q-122 0 -165.5 36t-43.5 145q0 105 44.5 140.5t164.5 35.5q122 0 166.5 -35.5t44.5 -140.5t-46.5 -143t-164.5 -38zM23 1186
q31 -25 74.5 -36t129.5 -11q85 0 130 12t77 37v-1188h-411v1186zM23 -39h409q25 0 34 7t9 32v1186q35 -25 78 -36t129 -11q85 0 130.5 11.5t80.5 37.5v-1231q0 -144 -33 -217q-32 -75 -112.5 -104t-239.5 -29h-485v354z" />
    <glyph glyph-name="Jcircumflex" unicode="&#x134;" horiz-adv-x="909" 
d="M684 1597l-41 -98h-244l168 326h238l166 -326h-252zM451 -23q-153 0 -248 39q-98 39 -143.5 134.5t-45.5 267.5v362h416v-385q0 -32 4.5 -42.5t18.5 -10.5q13 0 16.5 15t3.5 73v1045h418v-1037q0 -251 -103 -356t-337 -105z" />
    <glyph glyph-name="jcircumflex" unicode="&#x135;" horiz-adv-x="454" 
d="M231 1321l-41 -98h-243l168 325h237l166 -325h-252zM-131 -39h106q29 0 37 9t8 40v1188h414v-1270q0 -188 -77 -262t-267 -74h-221v369z" />
    <glyph glyph-name="uni0136" unicode="&#x136;" horiz-adv-x="950" 
d="M426 578l-4 -35v-543h-399v1475h399v-273l-37 -303l64 277l90 299h430l-211 -629l219 -846h-445l-90 410zM285 -336q119 0 172.5 10.5t66.5 44.5q-23 -6 -69 -6q-114 0 -151.5 23t-37.5 108q0 83 43.5 110.5t171.5 27.5q77 0 131 -13q47 -13 66.5 -52.5t19.5 -119.5
q0 -101 -43 -147q-41 -50 -128.5 -70t-241.5 -20v104z" />
    <glyph glyph-name="uni0137" unicode="&#x137;" horiz-adv-x="899" 
d="M412 522l-2 -16v-506h-390v1573h390v-592l-27 -264l51 254l72 227h395l-182 -522l186 -676h-401l-80 338zM262 -340q119 0 173 10.5t67 44.5q-23 -6 -70 -6q-114 0 -151 23t-37 108q0 83 43.5 110t171.5 27q81 0 131 -12q47 -13 66.5 -52.5t19.5 -119.5q0 -101 -43 -147
q-41 -50 -129 -70t-242 -20v104z" />
    <glyph glyph-name="kgreenlandic" unicode="&#x138;" horiz-adv-x="897" 
d="M410 522l-2 -16v-506h-390v1198h392v-217l-27 -264l51 254l72 227h393l-182 -522l186 -676h-401l-80 338z" />
    <glyph glyph-name="Lacute" unicode="&#x139;" horiz-adv-x="669" 
d="M223 1806h355l-226 -307h-272zM20 0v1475h418v-1063h217v-412h-635z" />
    <glyph glyph-name="lacute" unicode="&#x13a;" horiz-adv-x="452" 
d="M217 1905h354l-225 -308h-272zM20 0v1573h412v-1573h-412z" />
    <glyph glyph-name="uni013B" unicode="&#x13b;" horiz-adv-x="669" 
d="M20 0v1475h418v-1063h217v-412h-635zM162 -340q119 0 172.5 10.5t66.5 44.5q-23 -6 -69 -6q-114 0 -151.5 23t-37.5 108q0 83 43.5 110t171.5 27q82 0 131 -12q47 -13 66.5 -52.5t19.5 -119.5q0 -101 -43 -147q-41 -50 -128.5 -70t-241.5 -20v104z" />
    <glyph glyph-name="uni013C" unicode="&#x13c;" horiz-adv-x="452" 
d="M20 0v1573h412v-1573h-412zM37 -340q119 0 172.5 10.5t66.5 44.5q-23 -6 -69 -6q-114 0 -151.5 23t-37.5 108q0 83 43.5 110t171.5 27q83 0 132 -12q47 -13 66.5 -52.5t19.5 -119.5q0 -101 -43 -147q-41 -50 -129 -70t-242 -20v104z" />
    <glyph glyph-name="Lcaron" unicode="&#x13d;" horiz-adv-x="669" 
d="M20 0v1475h418v-1063h217v-412h-635zM502 1475h188l-145 -340h-105z" />
    <glyph glyph-name="lcaron" unicode="&#x13e;" horiz-adv-x="452" 
d="M20 0v1573h412v-1573h-412zM496 1573h188l-145 -340h-105z" />
    <glyph glyph-name="Ldot" unicode="&#x13f;" horiz-adv-x="884" 
d="M20 0v1475h418v-1063h434v-412h-852zM664 598q-80 0 -127 12q-42 13 -59 56t-17 133q0 96 18 131q17 41 60 56t125 15q81 0 124 -14q44 -14 63 -56.5t19 -131.5q0 -94 -18 -129q-18 -41 -61.5 -56.5t-126.5 -15.5z" />
    <glyph glyph-name="ldot" unicode="&#x140;" horiz-adv-x="579" 
d="M20 0v1573h412v-1573h-412zM508 266q-27 0 -39 21q-25 43 -25 317q0 168 7 225q6 71 18.5 97t38.5 26q24 0 39 -24q24 -44 24 -324q0 -172 -6 -219q-4 -69 -17.5 -94t-39.5 -25z" />
    <glyph glyph-name="Lslash" unicode="&#x141;" horiz-adv-x="675" 
d="M27 0v545l-27 -6v292l27 7v637h417v-525l82 23v-295l-82 -23v-243h218v-412h-635z" />
    <glyph glyph-name="lslash" unicode="&#x142;" horiz-adv-x="458" 
d="M29 0v416l-29 -6v348l29 6v809h399v-727l31 6v-346l-31 -6v-500h-399z" />
    <glyph glyph-name="Nacute" unicode="&#x143;" horiz-adv-x="980" 
d="M473 1806h354l-225 -307h-272zM412 0h-392v1475h474l178 -998l-92 709v289h381v-1475h-455l-178 975l84 -643v-332z" />
    <glyph glyph-name="nacute" unicode="&#x144;" horiz-adv-x="886" 
d="M451 1528h354l-225 -307h-273zM424 0h-404v1198h330l45 -162q47 176 234 176q121 0 179 -79t58 -252v-881h-399v807q0 44 -3.5 54.5t-17.5 10.5t-18 -11t-4 -54v-807z" />
    <glyph glyph-name="uni0145" unicode="&#x145;" horiz-adv-x="980" 
d="M412 0h-392v1475h474l178 -998l-92 709v289h381v-1475h-455l-178 975l84 -643v-332zM307 -338q119 0 173 10.5t67 44.5q-23 -6 -70 -6q-114 0 -151 23t-37 108q0 83 43.5 110.5t171.5 27.5q77 0 131 -13q47 -13 66.5 -52.5t19.5 -119.5q0 -101 -43 -147q-41 -50 -129 -70
t-242 -20v104z" />
    <glyph glyph-name="uni0146" unicode="&#x146;" horiz-adv-x="886" 
d="M424 0h-404v1198h330l45 -162q47 176 234 176q121 0 179 -79t58 -252v-881h-399v807q0 44 -3.5 54.5t-17.5 10.5t-18 -11t-4 -54v-807zM250 -336q119 0 172.5 10.5t66.5 44.5q-23 -6 -69 -6q-114 0 -151.5 23t-37.5 108q0 83 43.5 110.5t171.5 27.5q78 0 132 -13
q47 -13 66.5 -52.5t19.5 -119.5q0 -101 -43 -147q-41 -50 -129 -70t-242 -20v104z" />
    <glyph glyph-name="Ncaron" unicode="&#x147;" horiz-adv-x="980" 
d="M356 1499l-168 326h256l35 -101l41 101h246l-172 -326h-238zM412 0h-392v1475h474l178 -998l-92 709v289h381v-1475h-455l-178 975l84 -643v-332z" />
    <glyph glyph-name="ncaron" unicode="&#x148;" horiz-adv-x="886" 
d="M334 1221l-168 325h256l35 -100l41 100h245l-172 -325h-237zM424 0h-404v1198h330l45 -162q47 176 234 176q121 0 179 -79t58 -252v-881h-399v807q0 44 -3.5 54.5t-17.5 10.5t-18 -11t-4 -54v-807z" />
    <glyph glyph-name="Eng" unicode="&#x14a;" horiz-adv-x="968" 
d="M383 -410v371h129q25 0 31 6l-209 938l57 -504v-401h-371v1475h443l196 -932l-75 594v338h364v-1547q0 -188 -77 -263t-267 -75h-221z" />
    <glyph glyph-name="eng" unicode="&#x14b;" horiz-adv-x="882" 
d="M342 -408v369h78q29 0 37 9t8 40v797q0 44 -3.5 54.5t-17.5 10.5t-17 -10.5t-3 -54.5v-807h-404v1198h330l45 -162q47 176 234 176q121 0 178 -79t57 -252v-953q0 -134 -30 -198q-31 -73 -101.5 -105.5t-197.5 -32.5h-193z" />
    <glyph glyph-name="Omacron" unicode="&#x14c;" horiz-adv-x="897" 
d="M238 1792h413v-266h-413v266zM449 -23q-212 0 -322.5 102.5t-110.5 330.5v659q0 432 433 432q120 0 225 -43q207 -93 207 -389v-659q0 -162 -56 -252q-101 -181 -376 -181zM449 344q17 0 19.5 11t2.5 69v645q0 58 -2.5 69t-19.5 11t-20 -11.5t-3 -68.5v-645
q0 -57 3 -68.5t20 -11.5z" />
    <glyph glyph-name="omacron" unicode="&#x14d;" horiz-adv-x="864" 
d="M225 1503h414v-266h-414v266zM432 -25q-216 0 -316 96t-100 312v418q0 413 416 413q209 0 312.5 -100.5t103.5 -312.5v-418q0 -217 -98.5 -312.5t-317.5 -95.5zM432 313q13 0 18 11t5 47v458q0 39 -5 49.5t-18 10.5t-17.5 -10.5t-4.5 -49.5v-458q0 -37 4.5 -47.5
t17.5 -10.5z" />
    <glyph glyph-name="Obreve" unicode="&#x14e;" horiz-adv-x="897" 
d="M446 1524q-148 0 -211 68.5t-63 230.5h240q0 -50 4.5 -60t29.5 -10q23 0 28 11t5 59h240q0 -165 -63 -232t-210 -67zM449 -23q-212 0 -322.5 102.5t-110.5 330.5v659q0 432 433 432q120 0 225 -43q207 -93 207 -389v-659q0 -162 -56 -252q-101 -181 -376 -181zM449 344
q17 0 19.5 11t2.5 69v645q0 58 -2.5 69t-19.5 11t-20 -11.5t-3 -68.5v-645q0 -57 3 -68.5t20 -11.5z" />
    <glyph glyph-name="obreve" unicode="&#x14f;" horiz-adv-x="864" 
d="M434 1235q-148 0 -211 68.5t-63 230.5h239q0 -50 5 -60t30 -10q23 0 28 11t5 59h240q0 -165 -63 -232t-210 -67zM432 -25q-216 0 -316 96t-100 312v418q0 413 416 413q209 0 312.5 -100.5t103.5 -312.5v-418q0 -217 -98.5 -312.5t-317.5 -95.5zM432 313q13 0 18 11t5 47
v458q0 39 -5 49.5t-18 10.5t-17.5 -10.5t-4.5 -49.5v-458q0 -37 4.5 -47.5t17.5 -10.5z" />
    <glyph glyph-name="Ohungarumlaut" unicode="&#x150;" horiz-adv-x="897" 
d="M248 1829h264l-113 -307h-186zM543 1829h276l-155 -307h-193zM449 -23q-212 0 -322.5 102.5t-110.5 330.5v659q0 432 433 432q120 0 225 -43q207 -93 207 -389v-659q0 -162 -56 -252q-101 -181 -376 -181zM449 344q17 0 19.5 11t2.5 69v645q0 58 -2.5 69t-19.5 11
t-20 -11.5t-3 -68.5v-645q0 -57 3 -68.5t20 -11.5z" />
    <glyph glyph-name="ohungarumlaut" unicode="&#x151;" horiz-adv-x="864" 
d="M236 1538h264l-113 -307h-186zM530 1538h277l-156 -307h-192zM432 -25q-216 0 -316 96t-100 312v418q0 413 416 413q209 0 312.5 -100.5t103.5 -312.5v-418q0 -217 -98.5 -312.5t-317.5 -95.5zM432 313q13 0 18 11t5 47v458q0 39 -5 49.5t-18 10.5t-17.5 -10.5
t-4.5 -49.5v-458q0 -37 4.5 -47.5t17.5 -10.5z" />
    <glyph glyph-name="OE" unicode="&#x152;" horiz-adv-x="1179" 
d="M473 94q-20 -59 -63 -86.5t-119 -27.5q-112 0 -170 47q-58 46 -81.5 140.5t-23.5 254.5v641q0 234 61.5 336t207.5 102q81 0 124.5 -25.5t63.5 -89.5v89h690v-385h-293v-150h293v-387h-293v-158h293v-395h-690v94zM457 344q17 0 19.5 11t2.5 69v645q0 58 -2.5 69
t-19.5 11t-20 -11.5t-3 -68.5v-645q0 -57 3 -68.5t20 -11.5z" />
    <glyph glyph-name="oe" unicode="&#x153;" horiz-adv-x="1288" 
d="M1272 385q0 -107 -31 -215q-65 -195 -336 -195q-171 0 -252 68q-87 -68 -245 -68q-213 0 -303.5 94.5t-90.5 313.5v418q0 215 96.5 314t297.5 99q170 0 256 -77q86 77 235 77q194 0 283.5 -99.5t89.5 -311.5v-299h-438v-119q0 -56 4.5 -69t19.5 -13q16 0 18.5 16.5
t2.5 94.5v47h393v-76zM834 721h51v98q0 54 -4 66t-21 12q-18 0 -22 -14.5t-4 -75.5v-86zM428 313q13 0 18 11t5 47v458q0 39 -5 49.5t-18 10.5t-17.5 -10.5t-4.5 -49.5v-458q0 -37 4.5 -47.5t17.5 -10.5z" />
    <glyph glyph-name="Racute" unicode="&#x154;" horiz-adv-x="864" 
d="M446 1806h355l-226 -307h-272zM461 438q0 37 -9.5 49.5t-33.5 14.5v-502h-398v1475h437q131 0 223 -29q87 -27 128.5 -104.5t41.5 -221.5v-200q0 -113 -26 -168.5t-95 -79.5q71 -22 94 -71.5t23 -156.5v-331q0 -53 5 -74.5t23 -38.5h-387q-26 11 -26 111v327zM418 1143
v-314q28 1 36.5 12.5t8.5 39.5v213q0 29 -8 39t-33 10h-4z" />
    <glyph glyph-name="racute" unicode="&#x155;" horiz-adv-x="604" 
d="M346 1534h354l-225 -307h-272zM20 0v1198h287l39 -280v18q0 106 14 178q17 56 59 76t130 20h39v-557h-82q-66 0 -82 -15t-16 -81v-557h-388z" />
    <glyph glyph-name="uni0156" unicode="&#x156;" horiz-adv-x="864" 
d="M461 438q0 37 -9.5 49.5t-33.5 14.5v-502h-398v1475h437q131 0 223 -29q87 -27 128.5 -104.5t41.5 -221.5v-200q0 -113 -26 -168.5t-95 -79.5q71 -22 94 -71.5t23 -156.5v-331q0 -53 5 -74.5t23 -38.5h-387q-26 11 -26 111v327zM418 1143v-314q28 1 36.5 12.5t8.5 39.5
v213q0 29 -8 39t-33 10h-4zM260 -340q119 0 173 10.5t67 44.5q-23 -6 -70 -6q-114 0 -151 23t-37 108q0 83 43.5 110t171.5 27q81 0 131 -12q47 -13 66.5 -52.5t19.5 -119.5q0 -101 -43 -147q-41 -50 -129 -70t-242 -20v104z" />
    <glyph glyph-name="uni0157" unicode="&#x157;" horiz-adv-x="604" 
d="M20 0v1198h287l39 -280v18q0 106 14 178q17 56 59 76t130 20h39v-557h-82q-66 0 -82 -15t-16 -81v-557h-388zM20 -340q119 0 173 10.5t67 44.5q-23 -6 -70 -6q-114 0 -151 23t-37 108q0 83 43.5 110t171.5 27q81 0 131 -12q47 -13 66.5 -52.5t19.5 -119.5
q0 -101 -43 -147q-41 -50 -129 -70t-242 -20v104z" />
    <glyph glyph-name="Rcaron" unicode="&#x158;" horiz-adv-x="864" 
d="M330 1499l-168 326h256l35 -101l41 101h245l-172 -326h-237zM461 438q0 37 -9.5 49.5t-33.5 14.5v-502h-398v1475h437q131 0 223 -29q87 -27 128.5 -104.5t41.5 -221.5v-200q0 -113 -26 -168.5t-95 -79.5q71 -22 94 -71.5t23 -156.5v-331q0 -53 5 -74.5t23 -38.5h-387
q-26 11 -26 111v327zM418 1143v-314q28 1 36.5 12.5t8.5 39.5v213q0 29 -8 39t-33 10h-4z" />
    <glyph glyph-name="rcaron" unicode="&#x159;" horiz-adv-x="604" 
d="M229 1227l-168 325h256l35 -100l41 100h246l-172 -325h-238zM20 0v1198h287l39 -280v18q0 106 14 178q17 56 59 76t130 20h39v-557h-82q-66 0 -82 -15t-16 -81v-557h-388z" />
    <glyph glyph-name="Sacute" unicode="&#x15a;" horiz-adv-x="884" 
d="M444 1835h355l-226 -307h-272zM434 -27q-227 0 -326.5 90.5t-99.5 288.5v197h414v-184q0 -25 4.5 -34t15.5 -9q12 0 17.5 9.5t5.5 39.5v84q0 44 -8 63q-7 24 -42.5 48.5t-129.5 74.5q-100 55 -168 113q-59 48 -81 110.5t-22 167.5v88q0 383 437 383q415 0 415 -352v-178
h-399v151v10q0 22 -1 30t-5 12t-15 4q-13 0 -16.5 -8t-3.5 -42v-94q0 -28 8 -41q7 -16 39 -37t115 -67q103 -54 176 -113q61 -54 84.5 -113t23.5 -155v-158q0 -199 -104 -289t-334 -90z" />
    <glyph glyph-name="sacute" unicode="&#x15b;" horiz-adv-x="858" 
d="M432 1550h354l-225 -307h-272zM430 -27q-158 0 -256 39q-90 40 -130 115.5t-40 189.5v115h399v-86q0 -45 29 -45q19 0 26 9.5t7 39.5q0 26 -10 49q-12 18 -47 38t-117 57q-111 54 -166 98q-61 47 -88 109.5t-27 154.5v10q0 174 104.5 263.5t309.5 89.5q160 0 254 -43
q172 -77 172 -295v-78h-385v51q0 41 -6 54.5t-25 13.5q-31 0 -31 -45v-9q0 -19 11 -34q19 -24 143 -82q109 -49 174 -101q65 -50 92 -116.5t27 -165.5v-11q0 -118 -37 -202q-81 -183 -383 -183z" />
    <glyph glyph-name="Scircumflex" unicode="&#x15c;" horiz-adv-x="884" 
d="M453 1622l-41 -98h-244l168 325h237l166 -325h-252zM434 -27q-227 0 -326.5 90.5t-99.5 288.5v197h414v-184q0 -25 4.5 -34t15.5 -9q12 0 17.5 9.5t5.5 39.5v84q0 44 -8 63q-7 24 -42.5 48.5t-129.5 74.5q-100 55 -168 113q-59 48 -81 110.5t-22 167.5v88q0 383 437 383
q415 0 415 -352v-178h-399v151v10q0 22 -1 30t-5 12t-15 4q-13 0 -16.5 -8t-3.5 -42v-94q0 -28 8 -41q7 -16 39 -37t115 -67q103 -54 176 -113q61 -54 84.5 -113t23.5 -155v-158q0 -199 -104 -289t-334 -90z" />
    <glyph glyph-name="scircumflex" unicode="&#x15d;" horiz-adv-x="858" 
d="M440 1339l-41 -98h-243l168 326h237l166 -326h-252zM430 -27q-158 0 -256 39q-90 40 -130 115.5t-40 189.5v115h399v-86q0 -45 29 -45q19 0 26 9.5t7 39.5q0 26 -10 49q-12 18 -47 38t-117 57q-111 54 -166 98q-61 47 -88 109.5t-27 154.5v10q0 174 104.5 263.5
t309.5 89.5q160 0 254 -43q172 -77 172 -295v-78h-385v51q0 41 -6 54.5t-25 13.5q-31 0 -31 -45v-9q0 -19 11 -34q19 -24 143 -82q109 -49 174 -101q65 -50 92 -116.5t27 -165.5v-11q0 -118 -37 -202q-81 -183 -383 -183z" />
    <glyph glyph-name="uni015E" unicode="&#x15e;" horiz-adv-x="884" 
d="M432 -465q-294 0 -328 246h281q15 -41 55 -41q45 0 45 31q0 30 -41 30h-133v181q-161 23 -232 112t-71 258v197h414v-184q0 -25 4.5 -34t15.5 -9q12 0 17.5 9.5t5.5 39.5v84q0 44 -8 63q-7 24 -42.5 48.5t-129.5 74.5q-100 55 -168 113q-59 48 -81 110.5t-22 167.5v88
q0 383 437 383q415 0 415 -352v-178h-399v151v10q0 22 -1 30t-5 12t-15 4q-13 0 -16.5 -8t-3.5 -42v-94q0 -28 8 -41q7 -16 39 -37t115 -67q103 -54 176 -113q61 -54 84.5 -113t23.5 -155v-158q0 -175 -78 -264t-251 -108v-29q100 -8 148 -49t48 -142q0 -107 -81 -166
t-226 -59z" />
    <glyph glyph-name="uni015F" unicode="&#x15f;" horiz-adv-x="858" 
d="M432 -471q-294 0 -328 246h281q15 -41 55 -41q24 0 34.5 6.5t10.5 23.5q0 31 -41 31h-133v185q-169 22 -238 104t-69 233v115h399v-86q0 -45 29 -45q19 0 26 9.5t7 39.5q0 26 -10 49q-12 18 -47 38t-117 57q-111 54 -166 98q-61 47 -88 109.5t-27 154.5v10
q0 174 104.5 263.5t309.5 89.5q160 0 254 -43q172 -77 172 -295v-78h-385v51q0 41 -6 54.5t-25 13.5q-31 0 -31 -45v-9q0 -19 11 -34q19 -24 143 -82q109 -49 174 -101q65 -50 92 -116.5t27 -165.5v-11q0 -165 -69.5 -259.5t-237.5 -116.5v-37q100 -8 148 -49t48 -142
q0 -107 -81 -166t-226 -59z" />
    <glyph glyph-name="Scaron" unicode="&#x160;" horiz-adv-x="884" 
d="M328 1528l-168 325h256l35 -100l41 100h245l-172 -325h-237zM434 -27q-227 0 -326.5 90.5t-99.5 288.5v197h414v-184q0 -25 4.5 -34t15.5 -9q12 0 17.5 9.5t5.5 39.5v84q0 44 -8 63q-7 24 -42.5 48.5t-129.5 74.5q-100 55 -168 113q-59 48 -81 110.5t-22 167.5v88
q0 383 437 383q415 0 415 -352v-178h-399v151v10q0 22 -1 30t-5 12t-15 4q-13 0 -16.5 -8t-3.5 -42v-94q0 -28 8 -41q7 -16 39 -37t115 -67q103 -54 176 -113q61 -54 84.5 -113t23.5 -155v-158q0 -199 -104 -289t-334 -90z" />
    <glyph glyph-name="scaron" unicode="&#x161;" horiz-adv-x="858" 
d="M315 1243l-168 326h256l35 -101l41 101h246l-172 -326h-238zM430 -27q-158 0 -256 39q-90 40 -130 115.5t-40 189.5v115h399v-86q0 -45 29 -45q19 0 26 9.5t7 39.5q0 26 -10 49q-12 18 -47 38t-117 57q-111 54 -166 98q-61 47 -88 109.5t-27 154.5v10q0 174 104.5 263.5
t309.5 89.5q160 0 254 -43q172 -77 172 -295v-78h-385v51q0 41 -6 54.5t-25 13.5q-31 0 -31 -45v-9q0 -19 11 -34q19 -24 143 -82q109 -49 174 -101q65 -50 92 -116.5t27 -165.5v-11q0 -118 -37 -202q-81 -183 -383 -183z" />
    <glyph glyph-name="uni0162" unicode="&#x162;" horiz-adv-x="745" 
d="M580 1092v-1092h-414v1092h-154v383h721v-383h-153zM174 -340q119 0 173 10.5t67 44.5q-23 -6 -70 -6q-114 0 -151 23t-37 108q0 83 43.5 110t171.5 27q81 0 131 -12q47 -13 66.5 -52.5t19.5 -119.5q0 -101 -43 -147q-41 -50 -129 -70t-242 -20v104z" />
    <glyph glyph-name="uni0163" unicode="&#x163;" horiz-adv-x="598" 
d="M586 0h-146q-129 0 -211 29q-76 29 -107.5 100.5t-31.5 206.5v463h-82v389q55 0 74 8q31 14 39 47q12 47 12 166h350v-211h103v-399h-103v-330q0 -58 13 -72t69 -14h21v-383zM123 -340q119 0 172.5 10.5t66.5 44.5q-23 -6 -69 -6q-114 0 -151.5 23t-37.5 108
q0 83 43.5 110t171.5 27q83 0 132 -12q47 -13 66.5 -52.5t19.5 -119.5q0 -101 -43 -147q-41 -50 -129 -70t-242 -20v104z" />
    <glyph glyph-name="Tcaron" unicode="&#x164;" horiz-adv-x="745" 
d="M262 1499l-168 326h256l35 -101l41 101h246l-172 -326h-238zM580 1092v-1092h-414v1092h-154v383h721v-383h-153z" />
    <glyph glyph-name="tcaron" unicode="&#x165;" horiz-adv-x="598" 
d="M563 1737h189l-146 -340h-104zM586 0h-146q-129 0 -211 29q-76 29 -107.5 100.5t-31.5 206.5v463h-82v389q55 0 74 8q31 14 39 47q12 47 12 166h350v-211h103v-399h-103v-330q0 -58 13 -72t69 -14h21v-383z" />
    <glyph glyph-name="Tbar" unicode="&#x166;" horiz-adv-x="745" 
d="M580 494v-494h-414v494h-109v368h109v230h-154v383h721v-383h-153v-230h104v-368h-104z" />
    <glyph glyph-name="tbar" unicode="&#x167;" horiz-adv-x="618" 
d="M608 0h-147q-141 0 -215 31q-80 29 -116 103.5t-36 207.5v158h-71v196h71v107h-90v379q40 0 70 10q31 11 45 26t26 50q15 50 15 141h340v-211h108v-395h-108v-107h84v-196h-84v-29q0 -63 16.5 -78.5t69.5 -15.5h22v-377z" />
    <glyph glyph-name="Utilde" unicode="&#x168;" 
d="M123 1499q0 137 16 219q17 76 57.5 108t112.5 32q39 0 86 -15q13 -6 35 -16.5t33.5 -16t26 -10t26.5 -4.5q39 0 39 53h221q0 -131 -18 -223q-18 -75 -57.5 -104t-110.5 -29q-54 0 -86 18q-13 6 -43 22t-48 23t-36 7q-23 0 -31 -15.5t-8 -48.5h-215zM444 -23
q-230 0 -328 106.5t-98 332.5v1059h406v-1035q0 -53 3 -64t17 -11t17.5 11t3.5 64v1035h407v-1059q0 -225 -103 -332t-325 -107z" />
    <glyph glyph-name="utilde" unicode="&#x169;" horiz-adv-x="874" 
d="M115 1223q0 137 16 219q17 76 57 107.5t113 31.5q42 0 86 -14q13 -6 35 -16.5t33.5 -16t26 -10t26.5 -4.5q39 0 39 53h221q0 -131 -18 -223q-18 -75 -57.5 -104t-110.5 -29q-54 0 -86 18q-13 6 -34.5 17t-33.5 17.5t-28.5 11.5t-30.5 5q-23 0 -31 -15.5t-8 -47.5h-215z
M487 158q-19 -91 -69 -133.5t-142 -42.5q-138 0 -198 79t-60 261v876h400v-809q0 -39 3 -50t15 -11q16 0 19.5 12t3.5 53v805h395v-1198h-324z" />
    <glyph glyph-name="Umacron" unicode="&#x16a;" 
d="M238 1765h413v-266h-413v266zM444 -23q-230 0 -328 106.5t-98 332.5v1059h406v-1035q0 -53 3 -64t17 -11t17.5 11t3.5 64v1035h407v-1059q0 -225 -103 -332t-325 -107z" />
    <glyph glyph-name="umacron" unicode="&#x16b;" horiz-adv-x="874" 
d="M229 1489h414v-266h-414v266zM487 158q-19 -91 -69 -133.5t-142 -42.5q-138 0 -198 79t-60 261v876h400v-809q0 -39 3 -50t15 -11q16 0 19.5 12t3.5 53v805h395v-1198h-324z" />
    <glyph glyph-name="Ubreve" unicode="&#x16c;" 
d="M446 1497q-148 0 -211 68.5t-63 230.5h240q0 -50 4.5 -60t29.5 -10q23 0 28 11t5 59h240q0 -165 -63 -232t-210 -67zM444 -23q-230 0 -328 106.5t-98 332.5v1059h406v-1035q0 -53 3 -64t17 -11t17.5 11t3.5 64v1035h407v-1059q0 -225 -103 -332t-325 -107z" />
    <glyph glyph-name="ubreve" unicode="&#x16d;" horiz-adv-x="874" 
d="M438 1221q-148 0 -211 68.5t-63 230.5h239q0 -50 5 -60t30 -10q23 0 28 11t5 59h240q0 -165 -63 -232t-210 -67zM487 158q-19 -91 -69 -133.5t-142 -42.5q-138 0 -198 79t-60 261v876h400v-809q0 -39 3 -50t15 -11q16 0 19.5 12t3.5 53v805h395v-1198h-324z" />
    <glyph glyph-name="Uring" unicode="&#x16e;" 
d="M446 1497q-122 0 -190 55.5t-68 161.5q0 115 72 173.5t186 58.5q117 0 188 -60.5t71 -167.5q0 -104 -67 -162.5t-192 -58.5zM449 1694q32 0 32 26q0 29 -32 29q-33 0 -33 -29q0 -26 33 -26zM444 -23q-230 0 -328 106.5t-98 332.5v1059h406v-1035q0 -53 3 -64t17 -11
t17.5 11t3.5 64v1035h407v-1059q0 -225 -103 -332t-325 -107z" />
    <glyph glyph-name="uring" unicode="&#x16f;" horiz-adv-x="874" 
d="M438 1221q-122 0 -190 55.5t-68 161.5q0 114 72 172.5t186 58.5q117 0 187.5 -60t70.5 -167q0 -104 -66.5 -162.5t-191.5 -58.5zM440 1417q33 0 33 27q0 29 -33 29q-32 0 -32 -29q0 -13 6.5 -20t25.5 -7zM487 158q-19 -91 -69 -133.5t-142 -42.5q-138 0 -198 79t-60 261
v876h400v-809q0 -39 3 -50t15 -11q16 0 19.5 12t3.5 53v805h395v-1198h-324z" />
    <glyph glyph-name="Uhungarumlaut" unicode="&#x170;" 
d="M248 1806h264l-113 -307h-186zM543 1806h276l-155 -307h-193zM444 -23q-230 0 -328 106.5t-98 332.5v1059h406v-1035q0 -53 3 -64t17 -11t17.5 11t3.5 64v1035h407v-1059q0 -225 -103 -332t-325 -107z" />
    <glyph glyph-name="uhungarumlaut" unicode="&#x171;" horiz-adv-x="874" 
d="M240 1530h264l-113 -307h-186zM535 1530h276l-156 -307h-192zM487 158q-19 -91 -69 -133.5t-142 -42.5q-138 0 -198 79t-60 261v876h400v-809q0 -39 3 -50t15 -11q16 0 19.5 12t3.5 53v805h395v-1198h-324z" />
    <glyph glyph-name="Uogonek" unicode="&#x172;" 
d="M492 -403q-277 0 -277 227q0 91 68 170q-141 34 -203 137t-62 285v1059h406v-1035q0 -53 3 -64t17 -11t17.5 11t3.5 64v1035h407v-1059q0 -314 -200 -398q-22 -17 -52 -40t-48.5 -38t-30.5 -26q-54 -50 -54 -70t17 -20q30 0 28 65h289q-26 -292 -329 -292z" />
    <glyph glyph-name="uogonek" unicode="&#x173;" horiz-adv-x="874" 
d="M983 -143q-26 -293 -330 -293q-276 0 -276 227q0 65 30.5 120.5t114.5 121.5l-35 125q-19 -91 -69 -133.5t-142 -42.5q-138 0 -198 79t-60 261v876h400v-809q0 -39 3 -50t15 -11q16 0 19.5 12t3.5 53v805h395v-1198q-46 -33 -145 -113q-60 -54 -60 -75t17 -21q30 0 28 66
h289z" />
    <glyph glyph-name="Wcircumflex" unicode="&#x174;" horiz-adv-x="1384" 
d="M692 1597l-41 -98h-243l167 326h238l166 -326h-252zM633 0h-527l-124 1475h421l21 -535l-2 -616l22 618l48 533h403l45 -533l27 -618l-6 616l30 535h412l-133 -1475h-520l-45 547l-11 475l-12 -475z" />
    <glyph glyph-name="wcircumflex" unicode="&#x175;" horiz-adv-x="1277" 
d="M653 1321l-41 -98h-243l168 325h237l166 -325h-252zM596 0h-492l-129 1198h402l24 -496l-4 -370l23 362l45 504h371l34 -500l17 -360l2 362l37 498h377l-136 -1198h-465l-51 371l-6 360l-14 -360z" />
    <glyph glyph-name="Ycircumflex" unicode="&#x176;" horiz-adv-x="870" 
d="M438 1597l-41 -98h-243l168 326h237l166 -326h-252zM225 0v399l-260 1076h408l49 -306l14 -317l8 317l56 306h403l-262 -1035v-440h-416z" />
    <glyph glyph-name="ycircumflex" unicode="&#x177;" horiz-adv-x="868" 
d="M446 1323l-40 -98h-244l168 325h237l166 -325h-252zM53 -399v366h84q51 0 65.5 10.5t20.5 53.5l-248 1167h414l39 -291l10 -501l19 499l37 293h399l-223 -1194q-27 -142 -60.5 -222t-85.5 -118q-48 -36 -124 -49.5t-201 -13.5h-146z" />
    <glyph glyph-name="Ydieresis" unicode="&#x178;" horiz-adv-x="870" 
d="M272 1497q-88 0 -114.5 28.5t-26.5 119.5q0 95 30 129t111 34q86 0 117 -33.5t31 -129.5q0 -86 -31 -117t-117 -31zM592 1497q-88 0 -114.5 28.5t-26.5 119.5q0 97 28.5 130t112.5 33t115.5 -33.5t31.5 -129.5q0 -86 -31 -117t-116 -31zM225 0v399l-260 1076h408l49 -306
l14 -317l8 317l56 306h403l-262 -1035v-440h-416z" />
    <glyph glyph-name="Zacute" unicode="&#x179;" horiz-adv-x="710" 
d="M346 1806h354l-225 -307h-272zM14 0v356l250 734h-248v385h678v-363l-248 -729h248v-383h-680z" />
    <glyph glyph-name="zacute" unicode="&#x17a;" horiz-adv-x="663" 
d="M305 1530h354l-225 -307h-272zM12 0v313l217 543h-217v342h639v-319l-207 -519h207v-360h-639z" />
    <glyph glyph-name="Zdotaccent" unicode="&#x17b;" horiz-adv-x="710" 
d="M362 1497q-76 0 -114 12q-40 12 -55 50t-15 120q0 75 17 121q17 37 55 51.5t112 14.5q69 0 113 -13q42 -14 59 -52.5t17 -121.5q0 -75 -16 -118q-17 -37 -56.5 -50.5t-116.5 -13.5zM14 0v356l250 734h-248v385h678v-363l-248 -729h248v-383h-680z" />
    <glyph glyph-name="zdotaccent" unicode="&#x17c;" horiz-adv-x="663" 
d="M332 1221q-78 0 -115 12q-40 12 -55 50t-15 120q0 75 17 121q17 37 55 51t113 14q72 0 112 -12q42 -14 59 -52.5t17 -121.5q0 -76 -16 -119q-17 -37 -56 -50t-116 -13zM12 0v313l217 543h-217v342h639v-319l-207 -519h207v-360h-639z" />
    <glyph glyph-name="Zcaron" unicode="&#x17d;" horiz-adv-x="710" 
d="M250 1499l-168 326h256l35 -101l41 101h245l-172 -326h-237zM14 0v356l250 734h-248v385h678v-363l-248 -729h248v-383h-680z" />
    <glyph glyph-name="zcaron" unicode="&#x17e;" horiz-adv-x="663" 
d="M217 1223l-168 325h256l35 -100l41 100h246l-172 -325h-238zM12 0v313l217 543h-217v342h639v-319l-207 -519h207v-360h-639z" />
    <glyph glyph-name="uni0192" unicode="&#x192;" horiz-adv-x="534" 
d="M467 -55q0 -180 -87.5 -257t-279.5 -77h-90v326h23q49 0 49 49v430h-70v364h70v371q0 182 82 256t282 74h76v-336h-10q-47 0 -47 -35v-330h57v-364h-55v-471z" />
    <glyph glyph-name="Aringacute" unicode="&#x1fa;" 
d="M455 2052h354l-225 -307h-273zM371 0h-391l204 1475v20q0 114 72 172.5t186 58.5q117 0 187.5 -60t70.5 -167q0 -15 -4 -43l215 -1456h-391l-10 113h-129zM444 1475q33 0 33 26q0 29 -33 29q-32 0 -32 -29q0 -13 6.5 -19.5t25.5 -6.5zM414 436h63l-20 199l-15 301
l-10 -301z" />
    <glyph glyph-name="aringacute" unicode="&#x1fb;" horiz-adv-x="866" 
d="M453 2011h354l-225 -307h-273zM444 1237q-122 0 -190 55.5t-68 161.5q0 115 72 173.5t186 58.5q117 0 187.5 -60.5t70.5 -167.5q0 -104 -66.5 -162.5t-191.5 -58.5zM446 1434q33 0 33 26q0 29 -33 29q-32 0 -32 -29q0 -13 6.5 -19.5t25.5 -6.5zM475 160
q-13 -103 -67 -145t-154 -42q-121 0 -181.5 62t-60.5 205v110q0 87 19 139t59 89q12 10 26 19.5t25.5 16t31.5 15t31 13t37 12.5t36 11t42.5 12.5t42.5 12.5q36 9 68 23q20 10 26.5 29t6.5 59v65q0 28 -4 35.5t-17 7.5t-17.5 -9t-4.5 -38v-143h-397v139q0 188 100 273.5
t319 85.5q156 0 238 -33q90 -32 129 -107t39 -209v-868h-336zM440 272q23 0 23 37v228l-4 -5q-3 -3 -13.5 -7.5t-15.5 -8.5q-12 -10 -12 -45v-158v-18.5t2 -11.5t7 -9t13 -2z" />
    <glyph glyph-name="AEacute" unicode="&#x1fc;" horiz-adv-x="1191" 
d="M537 1806h354l-225 -307h-273zM575 109h-167l-17 -109h-422l262 1475h945v-385h-314l19 -152h295v-383h-252l18 -160h234v-395h-586zM453 414h82l-23 172l-12 405l-21 -391z" />
    <glyph glyph-name="aeacute" unicode="&#x1fd;" horiz-adv-x="1286" 
d="M672 1536h354l-225 -307h-273zM881 -25q-138 0 -218.5 34t-119.5 106q-65 -142 -254 -142q-147 0 -211 60.5t-64 206.5v157q0 78 17.5 124.5t58.5 78.5q19 16 40 28t51 22t49.5 15.5t64 16t65.5 16.5q68 17 83.5 37t15.5 82v49q0 28 -5 37.5t-18 9.5t-17.5 -10t-4.5 -41
v-131h-389v127q0 166 101.5 262.5t305.5 96.5q153 0 238 -58q80 55 209 55q201 0 296 -100t95 -311v-299h-434v-119q0 -56 4.5 -69t19.5 -13q16 0 18.5 16.5t2.5 94.5v47h389v-76q0 -122 -37 -215q-78 -195 -352 -195zM836 721h51v98q0 54 -4 66t-21 12q-18 0 -22 -14.5
t-4 -75.5v-86zM436 272q23 0 23 37v221l-4 -4q-3 -3 -16 -7.5t-17 -8.5q-10 -10 -10 -45v-152q0 -23 4 -32t20 -9z" />
    <glyph glyph-name="Oslashacute" unicode="&#x1fe;" horiz-adv-x="897" 
d="M485 1987h355l-226 -308h-272zM88 -229l72 280q-144 107 -144 359v659q0 416 398 432l35 160h405l-72 -283q99 -107 99 -309v-659q0 -375 -334 -426l-47 -213h-412zM449 344q17 0 19.5 11t2.5 69v645q0 58 -2.5 69t-19.5 11t-20 -11.5t-3 -68.5v-645q0 -57 3 -68.5
t20 -11.5z" />
    <glyph glyph-name="oslashacute" unicode="&#x1ff;" horiz-adv-x="878" 
d="M483 1681h355l-226 -307h-272zM23 -217l81 307q-81 97 -81 293v418q0 373 339 409l41 146h422l-67 -248q98 -101 98 -307v-418q0 -201 -85 -297.5t-273 -108.5l-52 -194h-423zM440 317q8 0 12.5 5t7.5 22t3 49v406v72q-3 14 -23 14q-16 0 -19 -11t-3 -54v-21v-406
q0 -76 22 -76z" />
    <glyph glyph-name="uni0218" unicode="&#x218;" horiz-adv-x="884" 
d="M434 -27q-227 0 -326.5 90.5t-99.5 288.5v197h414v-184q0 -25 4.5 -34t15.5 -9q12 0 17.5 9.5t5.5 39.5v84q0 44 -8 63q-7 24 -42.5 48.5t-129.5 74.5q-100 55 -168 113q-59 48 -81 110.5t-22 167.5v88q0 383 437 383q415 0 415 -352v-178h-399v151v10q0 22 -1 30t-5 12
t-15 4q-13 0 -16.5 -8t-3.5 -42v-94q0 -28 8 -41q7 -16 39 -37t115 -67q103 -54 176 -113q61 -54 84.5 -113t23.5 -155v-158q0 -199 -104 -289t-334 -90zM246 -365q118 0 172 11t67 45q-23 -6 -69 -6q-114 0 -151.5 23t-37.5 108q0 83 43.5 110t171.5 27q82 0 131 -12
q47 -13 66.5 -52.5t19.5 -119.5q0 -102 -43 -148q-41 -50 -128.5 -70t-241.5 -20v104z" />
    <glyph glyph-name="uni0219" unicode="&#x219;" horiz-adv-x="858" 
d="M430 -27q-158 0 -256 39q-90 40 -130 115.5t-40 189.5v115h399v-86q0 -45 29 -45q19 0 26 9.5t7 39.5q0 26 -10 49q-12 18 -47 38t-117 57q-111 54 -166 98q-61 47 -88 109.5t-27 154.5v10q0 174 104.5 263.5t309.5 89.5q160 0 254 -43q172 -77 172 -295v-78h-385v51
q0 41 -6 54.5t-25 13.5q-31 0 -31 -45v-9q0 -19 11 -34q19 -24 143 -82q109 -49 174 -101q65 -50 92 -116.5t27 -165.5v-11q0 -118 -37 -202q-81 -183 -383 -183zM246 -367q118 0 172 11t67 45q-23 -6 -69 -6q-114 0 -151.5 23t-37.5 108q0 83 43.5 110t171.5 27
q82 0 131 -12q47 -13 66.5 -52.5t19.5 -119.5q0 -102 -43 -148q-41 -50 -128.5 -70t-241.5 -20v104z" />
    <glyph glyph-name="uni0237" unicode="&#x237;" horiz-adv-x="454" 
d="M-131 -39h106q29 0 37 9t8 40v1188h414v-1270q0 -188 -77 -262t-267 -74h-221v369z" />
    <glyph glyph-name="uni0245" unicode="&#x245;" 
d="M381 0h-401l204 1475h510l217 -1475h-401l-55 578l-13 266l-8 -266z" />
    <glyph glyph-name="circumflex" unicode="&#x2c6;" horiz-adv-x="641" 
d="M317 1360l-41 -98h-243l168 325h237l166 -325h-252z" />
    <glyph glyph-name="caron" unicode="&#x2c7;" horiz-adv-x="641" 
d="M199 1262l-168 325h256l35 -100l40 100h246l-172 -325h-237z" />
    <glyph glyph-name="breve" unicode="&#x2d8;" horiz-adv-x="641" 
d="M317 1260q-148 0 -211 68.5t-63 230.5h240q0 -50 4.5 -60t29.5 -10q23 0 28 11t5 59h240q0 -165 -63 -232t-210 -67z" />
    <glyph glyph-name="dotaccent" unicode="&#x2d9;" horiz-adv-x="638" 
d="M324 1260q-78 0 -115 12q-40 12 -55 50t-15 120q0 75 17 121q17 37 55 51t113 14q72 0 112 -12q42 -14 59 -52.5t17 -121.5q0 -76 -16 -119q-17 -37 -56 -50t-116 -13z" />
    <glyph glyph-name="ring" unicode="&#x2da;" horiz-adv-x="641" 
d="M324 1260q-122 0 -190 55.5t-68 161.5q0 114 72 172.5t186 58.5q117 0 187.5 -60t70.5 -167q0 -104 -66.5 -162.5t-191.5 -58.5zM326 1456q32 0 32 27q0 28 -32 28q-33 0 -33 -28q0 -27 33 -27z" />
    <glyph glyph-name="ogonek" unicode="&#x2db;" horiz-adv-x="641" 
d="M299 -436q-276 0 -276 227q0 40 18 96q43 100 229 217l230 -104q-55 -40 -146 -113q-59 -53 -59 -75q0 -21 16 -21q31 0 29 66h289q-26 -293 -330 -293z" />
    <glyph glyph-name="tilde" unicode="&#x2dc;" horiz-adv-x="641" 
d="M6 1262q0 132 17 219q17 76 57 107.5t113 31.5q42 0 86 -14q14 -6 35 -16.5t32.5 -16t26 -10t26.5 -4.5q39 0 39 53h221q0 -131 -18 -223q-18 -75 -57.5 -104.5t-110.5 -29.5q-52 0 -86 19q-13 6 -34.5 17t-33.5 17.5t-28.5 11.5t-30.5 5q-23 0 -31 -15.5t-8 -47.5h-215z
" />
    <glyph glyph-name="hungarumlaut" unicode="&#x2dd;" horiz-adv-x="641" 
d="M100 1569h265l-113 -307h-186zM395 1569h277l-156 -307h-192z" />
    <glyph glyph-name="uni03BC" unicode="&#x3bc;" horiz-adv-x="882" 
d="M479 -18q-27 0 -40 26t-17 103v-473h-399v1562h397v-801q0 -47 5 -53q4 -6 15 -6q13 0 17 12t4 41v807h401v-1200h-309l-27 129q-1 -96 -10.5 -121.5t-36.5 -25.5z" />
    <glyph glyph-name="pi" unicode="&#x3c0;" horiz-adv-x="1097" 
d="M565 1090h-43v-1090h-383v1090h-127v385h1069v-385h-133v-676q0 -27 8.5 -37t34.5 -10h90v-367h-196q-122 0 -195 25q-69 26 -97 92t-28 196v777z" />
    <glyph glyph-name="uni0E3F" unicode="&#xe3f;" horiz-adv-x="1048" 
d="M608 0v-131h-182v131h-406v1475h406v102h182v-102h8q200 0 304 -73t104 -212v-213q0 -151 -84 -211q96 -62 96 -211v-262q0 -141 -92 -217t-280 -76h-56zM426 915v254h-45v-254h45zM608 1169v-254h29q18 0 18 17v213q0 24 -22 24h-25zM426 330v288h-45v-288h45zM608 618
v-288h2q47 0 47 37v213q0 20 -9 29t-34 9h-6z" />
    <glyph glyph-name="Wgrave" unicode="&#x1e80;" horiz-adv-x="1384" 
d="M381 1806h354l103 -307h-246zM633 0h-527l-124 1475h421l21 -535l-2 -616l22 618l48 533h403l45 -533l27 -618l-6 616l30 535h412l-133 -1475h-520l-45 547l-11 475l-12 -475z" />
    <glyph glyph-name="wgrave" unicode="&#x1e81;" horiz-adv-x="1277" 
d="M324 1530h354l102 -307h-245zM596 0h-492l-129 1198h402l24 -496l-4 -370l23 362l45 504h371l34 -500l17 -360l2 362l37 498h377l-136 -1198h-465l-51 371l-6 360l-14 -360z" />
    <glyph glyph-name="Wacute" unicode="&#x1e82;" horiz-adv-x="1384" 
d="M684 1806h354l-225 -307h-272zM633 0h-527l-124 1475h421l21 -535l-2 -616l22 618l48 533h403l45 -533l27 -618l-6 616l30 535h412l-133 -1475h-520l-45 547l-11 475l-12 -475z" />
    <glyph glyph-name="wacute" unicode="&#x1e83;" horiz-adv-x="1277" 
d="M645 1530h354l-225 -307h-272zM596 0h-492l-129 1198h402l24 -496l-4 -370l23 362l45 504h371l34 -500l17 -360l2 362l37 498h377l-136 -1198h-465l-51 371l-6 360l-14 -360z" />
    <glyph glyph-name="Wdieresis" unicode="&#x1e84;" horiz-adv-x="1384" 
d="M526 1497q-88 0 -114.5 28.5t-26.5 119.5q0 95 30 129t111 34q86 0 117 -33.5t31 -129.5q0 -86 -31 -117t-117 -31zM846 1497q-88 0 -114.5 28.5t-26.5 119.5q0 97 28.5 130t112.5 33t115.5 -33.5t31.5 -129.5q0 -86 -31 -117t-116 -31zM633 0h-527l-124 1475h421
l21 -535l-2 -616l22 618l48 533h403l45 -533l27 -618l-6 616l30 535h412l-133 -1475h-520l-45 547l-11 475l-12 -475z" />
    <glyph glyph-name="wdieresis" unicode="&#x1e85;" horiz-adv-x="1277" 
d="M487 1221q-88 0 -114.5 28.5t-26.5 118.5q0 96 30 130t111 34q85 0 116.5 -34t31.5 -130q0 -86 -31 -116.5t-117 -30.5zM807 1221q-88 0 -114.5 28.5t-26.5 118.5q0 97 28.5 130.5t112.5 33.5t115.5 -34t31.5 -130q0 -86 -31 -116.5t-116 -30.5zM596 0h-492l-129 1198
h402l24 -496l-4 -370l23 362l45 504h371l34 -500l17 -360l2 362l37 498h377l-136 -1198h-465l-51 371l-6 360l-14 -360z" />
    <glyph glyph-name="Ygrave" unicode="&#x1ef2;" horiz-adv-x="870" 
d="M127 1806h354l103 -307h-246zM225 0v399l-260 1076h408l49 -306l14 -317l8 317l56 306h403l-262 -1035v-440h-416z" />
    <glyph glyph-name="ygrave" unicode="&#x1ef3;" horiz-adv-x="868" 
d="M113 1532h354l102 -307h-245zM53 -399v366h84q51 0 65.5 10.5t20.5 53.5l-248 1167h414l39 -291l10 -501l19 499l37 293h399l-223 -1194q-27 -142 -60.5 -222t-85.5 -118q-48 -36 -124 -49.5t-201 -13.5h-146z" />
    <glyph glyph-name="figuredash" unicode="&#x2012;" horiz-adv-x="897" 
d="M12 801h873v-373h-873v373z" />
    <glyph glyph-name="endash" unicode="&#x2013;" horiz-adv-x="600" 
d="M12 801h576v-373h-576v373z" />
    <glyph glyph-name="emdash" unicode="&#x2014;" horiz-adv-x="866" 
d="M12 801h842v-373h-842v373z" />
    <glyph glyph-name="uni2015" unicode="&#x2015;" horiz-adv-x="1153" 
d="M12 801h1129v-373h-1129v373z" />
    <glyph glyph-name="uni2016" unicode="&#x2016;" horiz-adv-x="817" 
d="M20 1548h369v-1603h-369v1603zM430 1548h367v-1603h-367v1603z" />
    <glyph glyph-name="underscoredbl" unicode="&#x2017;" horiz-adv-x="905" 
d="M14 326h877v-326h-877v326zM14 -27h877v-323h-877v323z" />
    <glyph glyph-name="quoteleft" unicode="&#x2018;" horiz-adv-x="489" 
d="M483 973q0 -108 -20 -158q-23 -54 -73.5 -75t-145.5 -21q-99 0 -146 20q-51 19 -71.5 83.5t-20.5 199.5q0 254 99 369.5t339 103.5l-2 -184q-77 5 -117 -16.5t-53 -73.5q8 2 25 2q109 0 147.5 -50.5t38.5 -199.5z" />
    <glyph glyph-name="quoteright" unicode="&#x2019;" horiz-adv-x="489" 
d="M483 1182q0 -125 -22 -213t-73 -149.5t-135.5 -88t-207.5 -20.5l2 182q79 -2 118 18.5t52 71.5q-8 -2 -24 -2q-109 0 -148 50.5t-39 199.5q0 101 21 160q23 54 73.5 75t145.5 21q96 0 145 -21q52 -20 72 -83.5t20 -200.5z" />
    <glyph glyph-name="quotesinglbase" unicode="&#x201a;" horiz-adv-x="395" 
d="M387 141q0 -204 -85.5 -305.5t-264.5 -97.5v164q70 0 102.5 20.5t40.5 65.5h-18q-54 0 -88 12q-36 14 -51 56t-15 130q0 78 17 131q18 43 58.5 60.5t115.5 17.5q79 0 114 -18q41 -19 57.5 -72.5t16.5 -163.5z" />
    <glyph glyph-name="uni201B" unicode="&#x201b;" horiz-adv-x="489" 
d="M444 723q-123 -6 -207.5 20.5t-135.5 88t-73 149.5t-22 213q0 126 23 188q20 65 71.5 91t149.5 26q93 0 143 -20q49 -20 69.5 -75t20.5 -161q0 -149 -38.5 -199.5t-147.5 -50.5q-17 0 -25 2q13 -50 53 -71t117 -19z" />
    <glyph glyph-name="quotedblleft" unicode="&#x201c;" horiz-adv-x="804" 
d="M201 840q-80 0 -115 18q-41 19 -58.5 74t-17.5 164q0 202 86.5 302.5t265.5 96.5v-166q-69 0 -102 -20t-41 -64h19q52 0 90 -12q33 -14 48 -56.5t15 -127.5q0 -81 -16 -131q-17 -43 -57.5 -60.5t-116.5 -17.5zM606 840q-79 0 -114 18q-41 19 -57.5 73.5t-16.5 164.5
q0 203 84.5 303t263.5 96v-166q-68 0 -100 -20t-43 -64h18q55 0 90 -12q36 -14 52 -56.5t16 -127.5q0 -125 -41 -167t-152 -42z" />
    <glyph glyph-name="quotedblright" unicode="&#x201d;" horiz-adv-x="804" 
d="M389 1231q0 -202 -84.5 -301.5t-263.5 -98.5v166q69 0 102 20t41 64h-18q-52 0 -90 15q-36 12 -52 54.5t-16 127.5q0 125 41 167t152 42q77 0 114 -19q41 -19 57.5 -72.5t16.5 -164.5zM797 1231q0 -201 -86.5 -301t-266.5 -99v166q70 0 103 20t41 64h-19q-53 0 -88 15
q-35 12 -50 54t-15 128q0 81 16 131q18 43 58.5 60.5t115.5 17.5q78 0 115 -19q41 -19 58.5 -73t17.5 -164z" />
    <glyph glyph-name="quotedblbase" unicode="&#x201e;" horiz-adv-x="804" 
d="M389 141q0 -204 -84.5 -304.5t-263.5 -96.5v166q69 0 102 20t41 64h-18q-55 0 -90 14q-36 12 -52 55t-16 129q0 125 40.5 166t152.5 41q79 0 114 -18q41 -17 57.5 -71t16.5 -165zM797 141q0 -203 -87 -304t-266 -97v166q70 0 103 20t41 64h-19q-56 0 -88 14
q-35 12 -50 54.5t-15 129.5q0 79 16 129q18 43 58.5 60.5t115.5 17.5q80 0 115 -18q41 -17 58.5 -71.5t17.5 -164.5z" />
    <glyph glyph-name="uni201F" unicode="&#x201f;" horiz-adv-x="808" 
d="M362 831q-182 -2 -267 91t-85 292q0 110 21 172q18 56 59.5 78.5t112.5 22.5q68 0 114 -17q41 -17 57.5 -61t16.5 -131q0 -80 -14 -127q-16 -41 -48 -55.5t-91 -14.5h-19q8 -44 41 -64t102 -20v-166zM766 831q-181 -1 -264.5 91t-83.5 292q0 113 20 172q18 56 58.5 78.5
t111.5 22.5q111 0 151 -42t40 -167q0 -81 -17 -127q-16 -41 -49 -55.5t-92 -14.5h-18q11 -44 43 -64t100 -20v-166z" />
    <glyph glyph-name="dagger" unicode="&#x2020;" horiz-adv-x="1005" 
d="M700 793v-998h-397v998h-287v399h287v487h397v-487h289v-399h-289z" />
    <glyph glyph-name="daggerdbl" unicode="&#x2021;" horiz-adv-x="1013" 
d="M709 264v-469h-398v469h-295v387h295v185h-295v385h295v458h398v-458h288v-385h-288v-185h288v-387h-288z" />
    <glyph glyph-name="bullet" unicode="&#x2022;" horiz-adv-x="524" 
d="M262 346q-143 0 -198.5 57.5t-55.5 212.5q0 151 57 210t197 59q142 0 199 -57.5t57 -211.5q0 -152 -58 -211t-198 -59z" />
    <glyph glyph-name="ellipsis" unicode="&#x2026;" horiz-adv-x="1347" 
d="M221 -16q-76 0 -135 18q-44 19 -62 74.5t-18 167.5q0 90 19 164q20 52 64.5 71t131.5 19q89 0 131 -19q47 -19 65.5 -72t18.5 -163q0 -103 -18 -166q-18 -56 -62.5 -75t-134.5 -19zM674 -16q-76 0 -135 18q-44 19 -62 74.5t-18 167.5q0 94 18 164q19 52 64.5 71t132.5 19
q89 0 131 -19q47 -19 65.5 -72t18.5 -163q0 -100 -19 -166q-18 -56 -62 -75t-134 -19zM1126 -16q-76 0 -135 18q-44 19 -62 74.5t-18 167.5q0 90 19 164q20 52 64.5 71t131.5 19q89 0 131 -19q47 -19 65.5 -72t18.5 -163q0 -103 -18 -166q-18 -56 -62.5 -75t-134.5 -19z" />
    <glyph glyph-name="perthousand" unicode="&#x2030;" horiz-adv-x="1816" 
d="M266 768q-130 0 -196 60.5t-66 189.5v229q0 123 72 186.5t194 63.5q124 0 195.5 -63t71.5 -187v-229q0 -250 -271 -250zM895 1475h381l-885 -1475h-391zM270 981q6 0 8.5 2t4.5 11.5t2 29.5v219q0 29 -3.5 38t-11.5 9q-14 0 -14 -47v-219q0 -28 3 -35.5t11 -7.5zM983 -57
q-130 0 -196 60.5t-66 189.5v229q0 123 72 186.5t194 63.5q124 0 195 -63t71 -187v-229q0 -250 -270 -250zM1542 -57q-130 0 -196 60.5t-66 189.5v229q0 123 72 186.5t194 63.5q124 0 195 -63t71 -187v-229q0 -250 -270 -250zM987 156q8 0 11 7t3 36v219q0 29 -3 38t-11 9
q-14 0 -14 -47v-219q0 -28 3 -35.5t11 -7.5zM1546 156q6 0 8.5 2t4.5 11.5t2 29.5v219q0 29 -3.5 38t-11.5 9q-14 0 -14 -47v-219q0 -28 3 -35.5t11 -7.5z" />
    <glyph glyph-name="uni2032" unicode="&#x2032;" horiz-adv-x="438" 
d="M-2 985l86 490h362l-170 -490h-278z" />
    <glyph glyph-name="uni2033" unicode="&#x2033;" horiz-adv-x="794" 
d="M-6 985l86 490h360l-168 -490h-278zM352 985l94 490h359l-172 -490h-281z" />
    <glyph glyph-name="uni2034" unicode="&#x2034;" horiz-adv-x="1095" 
d="M53 967q-3 11 -5.5 27.5t-6 41.5t-6.5 43q-23 239 -23 359v37h346v-37q0 -103 -8 -187q-10 -155 -35 -284h-262zM416 967q-11 45 -19 112q-22 163 -22 359v37h346v-37q0 -103 -8 -187q-13 -159 -37 -284h-260zM778 967q-9 36 -18 112q-23 171 -23 359v37h346v-37
q0 -103 -8 -187q-13 -159 -37 -284h-260z" />
    <glyph glyph-name="guilsinglleft" unicode="&#x2039;" horiz-adv-x="600" 
d="M236 219l-240 381v18l240 394h358l-248 -389l270 -404h-380z" />
    <glyph glyph-name="guilsinglright" unicode="&#x203a;" horiz-adv-x="600" 
d="M-14 219l270 404l-248 389h359l239 -394v-18l-239 -381h-381z" />
    <glyph glyph-name="exclamdbl" unicode="&#x203c;" horiz-adv-x="964" 
d="M92 434q-9 9 -31 94q-45 217 -45 480v467h449v-467q0 -140 -12 -269q-13 -122 -30.5 -207.5t-29.5 -97.5q-56 17 -149 17q-106 0 -152 -17zM575 434q-8 8 -30 94q-45 217 -45 480v467h448v-467q0 -140 -12 -269q-13 -123 -30 -208t-29 -97q-56 17 -150 17
q-106 0 -152 -17zM242 -16q-93 0 -146 16q-48 17 -67 63.5t-19 141.5t19 137q18 46 66.5 63t146.5 17q88 0 141 -16q49 -17 68.5 -62.5t19.5 -138.5q0 -83 -18 -139q-20 -46 -68 -64t-143 -18zM725 -16q-92 0 -145 16q-48 17 -67 63.5t-19 141.5q0 97 18 137q18 46 66.5 63
t146.5 17q88 0 141 -16q49 -17 68.5 -62.5t19.5 -138.5q0 -83 -18 -139q-20 -46 -68 -64t-143 -18z" />
    <glyph glyph-name="uni203D" unicode="&#x203d;" horiz-adv-x="1013" 
d="M647 424q-50 16 -125 16q-87 0 -125 -14q-5 9 -10 51q-12 282 -12 457v246q-33 -36 -33 -103v-391h-328v389q0 125 49 219q105 205 451 205q483 0 483 -383v-198q0 -79 -32 -125q-28 -45 -71.5 -76.5t-107.5 -63.5q-117 -58 -129 -135zM641 934q0 -78 -2 -117
q15 28 20.5 40t11 33t5.5 44v158q0 66 -35 96v-254zM522 -16q-81 0 -135 14q-46 17 -64 59.5t-18 128.5q0 78 19 129q18 43 63 58.5t135 15.5q77 0 135 -14q47 -13 66.5 -57.5t19.5 -131.5q0 -78 -18 -127q-20 -43 -65.5 -59t-137.5 -16z" />
    <glyph glyph-name="fraction" unicode="&#x2044;" horiz-adv-x="1171" 
d="M606 766l244 770l313 -168l-549 -608zM41 125l553 623l8 -7l-244 -802z" />
    <glyph glyph-name="uni2070" unicode="&#x2070;" horiz-adv-x="540" 
d="M270 1030q-122 0 -192 52.5t-70 166.5v330q0 111 71.5 163t190.5 52q118 0 190 -52t72 -163v-330q0 -113 -72 -166t-190 -53zM270 1241q10 0 12.5 6t2.5 31v283q0 26 -2 31t-13 5q-6 0 -8.5 -1.5t-4 -9.5t-1.5 -25v-283q0 -23 3 -30t11 -7z" />
    <glyph glyph-name="uni2074" unicode="&#x2074;" horiz-adv-x="589" 
d="M524 1118v-76h-239v76h-277v207l232 455h284v-441h56v-221h-56zM238 1339h47v56l16 127l-33 -123z" />
    <glyph glyph-name="uni2075" unicode="&#x2075;" horiz-adv-x="548" 
d="M283 1028q-146 0 -210.5 51.5t-64.5 153.5v94h258v-70q0 -7 4.5 -12.5t10.5 -5.5q12 0 12 18v113q0 19 -12 19q-11 0 -19 -19l-8 -20l-250 61l35 369h502v-35q0 -80 -13 -121q-11 -35 -47 -45t-125 -10h-90l-10 -103q41 84 133 84q81 0 116.5 -44t35.5 -126v-139
q0 -100 -62.5 -156.5t-195.5 -56.5z" />
    <glyph glyph-name="uni2076" unicode="&#x2076;" horiz-adv-x="540" 
d="M532 1233q0 -95 -67 -150t-197 -55q-260 0 -260 227v308q0 109 66.5 169t197.5 60t195.5 -54.5t64.5 -148.5v-86h-247v72q0 20 -13 20q-16 0 -16 -36v-136q37 58 129 58q74 0 110.5 -31.5t36.5 -101.5v-115zM272 1233q19 0 19 20v72q0 23 -17 23l-18 -5v-81q0 -29 16 -29
z" />
    <glyph glyph-name="uni2077" unicode="&#x2077;" horiz-adv-x="444" 
d="M35 1042q19 184 50.5 303.5t88.5 215.5h-164v219h428v-172q-53 -100 -76 -174q-49 -143 -77 -392h-250z" />
    <glyph glyph-name="uni2078" unicode="&#x2078;" horiz-adv-x="524" 
d="M262 1028q-144 0 -203 46t-59 138v86q0 93 82 127q-80 39 -80 121v60q0 99 65.5 142.5t192.5 43.5q137 0 199.5 -42t62.5 -142v-60q0 -84 -76 -121q78 -28 78 -124v-86q0 -88 -58.5 -138.5t-203.5 -50.5zM248 1520q0 -21 14 -21t14 21v79q0 15 -14 15t-14 -15v-79z
M262 1221q14 0 14 18v98q0 17 -14 17t-14 -21v-98q0 -14 14 -14z" />
    <glyph glyph-name="uni2079" unicode="&#x2079;" horiz-adv-x="540" 
d="M268 1026q-130 0 -195 55.5t-65 149.5v90h248v-76q0 -20 12 -20q17 0 17 37v131q-35 -54 -119 -54q-158 0 -158 134v114q0 95 67 149t197 54q132 0 196 -55.5t64 -169.5v-308q0 -110 -66.5 -170.5t-197.5 -60.5zM266 1473q3 0 19 4v82q0 28 -17 28q-18 0 -18 -20v-72
q0 -22 16 -22z" />
    <glyph glyph-name="uni207A" unicode="&#x207a;" horiz-adv-x="409" 
d="M303 1325v-108h-197v108h-100v201h100v108h197v-108h100v-201h-100z" />
    <glyph glyph-name="uni207B" unicode="&#x207b;" horiz-adv-x="411" 
d="M6 1528h400v-207h-400v207z" />
    <glyph glyph-name="uni207C" unicode="&#x207c;" horiz-adv-x="362" 
d="M6 1606h350v-172h-350v172zM6 1403h350v-172h-350v172z" />
    <glyph glyph-name="uni207D" unicode="&#x207d;" horiz-adv-x="315" 
d="M309 895q-94 3 -166 33q-69 30 -102 104.5t-33 212.5v309q0 128 33.5 203t97.5 106.5t170 34.5v-227q-47 -6 -60 -33.5t-13 -105.5v-262q0 -76 11.5 -97.5t61.5 -25.5v-252z" />
    <glyph glyph-name="uni207E" unicode="&#x207e;" horiz-adv-x="317" 
d="M6 1149q51 1 62.5 22.5t11.5 98.5v262q0 78 -13.5 106.5t-60.5 34.5v225q161 -5 232 -80.5t71 -263.5v-309q0 -146 -35 -215q-34 -70 -97.5 -100t-170.5 -35v254z" />
    <glyph glyph-name="uni2080" unicode="&#x2080;" horiz-adv-x="540" 
d="M270 -14q-122 0 -192 52.5t-70 166.5v330q0 111 71.5 163t190.5 52q118 0 190 -52t72 -163v-330q0 -113 -72 -166t-190 -53zM270 197q10 0 12.5 5.5t2.5 30.5v283q0 26 -2 31.5t-13 5.5q-8 0 -11 -6t-3 -31v-283q0 -23 3 -29.5t11 -6.5z" />
    <glyph glyph-name="uni2081" unicode="&#x2081;" horiz-adv-x="403" 
d="M6 0v225h70v203h-70v201q51 5 90 32.5t49 75.5h177v-512h75v-225h-391z" />
    <glyph glyph-name="uni2082" unicode="&#x2082;" horiz-adv-x="534" 
d="M4 0v184q0 65 25 107q41 65 141 100q5 2 19 8t19.5 8t17 7.5t16.5 8.5t13 8.5t12 10t8.5 10t6 12t1.5 13.5v68q0 16 -15 16q-14 0 -14 -24v-93h-250v109q0 89 65 143t197 54q136 0 199 -47t63 -144v-84q0 -61 -22 -100q-22 -34 -54.5 -56.5t-78.5 -44.5q-3 -1 -13.5 -5.5
t-14.5 -6t-12.5 -5.5t-12.5 -6l-11 -5.5t-11 -6.5t-9 -6.5t-8.5 -7.5t-6.5 -8h254v-217h-524z" />
    <glyph glyph-name="uni2083" unicode="&#x2083;" horiz-adv-x="544" 
d="M276 -18q-116 0 -174 24q-55 23 -75.5 65.5t-20.5 112.5v72h250v-49q0 -11 0.5 -15.5t4 -8t11.5 -3.5q13 0 13 25v53q0 22 -7.5 27.5t-33.5 5.5h-76v162h88q29 0 29 26v62q0 20 -15 20q-14 0 -14 -22v-52h-250v66q0 195 268 195q263 0 263 -183v-69q0 -95 -103 -119
q103 -14 103 -117v-94q0 -81 -66.5 -132.5t-194.5 -51.5z" />
    <glyph glyph-name="uni2084" unicode="&#x2084;" horiz-adv-x="589" 
d="M524 76v-76h-239v76h-277v207l232 454h284v-440h56v-221h-56zM238 297h47v55l16 127l-33 -123z" />
    <glyph glyph-name="uni2085" unicode="&#x2085;" horiz-adv-x="548" 
d="M283 -14q-146 0 -210.5 51t-64.5 153v95h258v-70q0 -7 4.5 -12.5t10.5 -5.5q12 0 12 18v113q0 18 -12 18q-11 0 -19 -18l-8 -21l-250 62l35 368h502v-35q0 -79 -13 -120q-11 -35 -47.5 -45.5t-124.5 -10.5h-90l-10 -102q41 84 133 84q81 0 116.5 -44t35.5 -126v-139
q0 -100 -62.5 -156.5t-195.5 -56.5z" />
    <glyph glyph-name="uni2086" unicode="&#x2086;" horiz-adv-x="540" 
d="M532 190q0 -95 -67 -149.5t-197 -54.5q-260 0 -260 227v307q0 110 66.5 170t197.5 60t195.5 -54.5t64.5 -148.5v-86h-247v71q0 21 -13 21q-16 0 -16 -37v-135q37 57 129 57q74 0 110.5 -31.5t36.5 -101.5v-115zM272 190q19 0 19 21v72q0 22 -17 22l-18 -4v-82
q0 -29 16 -29z" />
    <glyph glyph-name="uni2087" unicode="&#x2087;" horiz-adv-x="444" 
d="M35 0q19 184 50.5 303t88.5 215h-164v219h428v-172q-53 -100 -76 -174q-49 -143 -77 -391h-250z" />
    <glyph glyph-name="uni2088" unicode="&#x2088;" horiz-adv-x="524" 
d="M262 -14q-144 0 -203 46t-59 138v86q0 93 82 127q-80 39 -80 121v59q0 99 65.5 143t192.5 44q137 0 199.5 -42t62.5 -143v-59q0 -84 -76 -121q78 -28 78 -125v-86q0 -88 -58.5 -138t-203.5 -50zM248 477q0 -20 14 -20t14 20v80q0 14 -14 14t-14 -14v-80zM262 178
q14 0 14 19v98q0 16 -14 16t-14 -20v-98q0 -15 14 -15z" />
    <glyph glyph-name="uni2089" unicode="&#x2089;" horiz-adv-x="540" 
d="M268 -16q-130 0 -195 55t-65 149v91h248v-76q0 -21 12 -21q17 0 17 37v131q-35 -53 -119 -53q-158 0 -158 133v115q0 95 67 149t197 54q132 0 196 -56t64 -170v-307q0 -110 -66.5 -170.5t-197.5 -60.5zM266 430q3 0 19 4v82q0 29 -17 29q-18 0 -18 -21v-71q0 -23 16 -23z
" />
    <glyph glyph-name="uni208A" unicode="&#x208a;" horiz-adv-x="413" 
d="M305 283v-109h-196v109h-101v200h101v109h196v-109h101v-200h-101z" />
    <glyph glyph-name="uni208B" unicode="&#x208b;" horiz-adv-x="415" 
d="M8 485h400v-206h-400v206z" />
    <glyph glyph-name="uni208C" unicode="&#x208c;" horiz-adv-x="366" 
d="M8 563h350v-172h-350v172zM8 360h350v-172h-350v172z" />
    <glyph glyph-name="uni208D" unicode="&#x208d;" horiz-adv-x="315" 
d="M309 -147q-97 3 -166 32q-69 30 -102 105t-33 213v309q0 128 33.5 203t97.5 106.5t170 34.5v-227q-47 -6 -60 -34t-13 -106v-262q0 -76 11.5 -97.5t61.5 -25.5v-251z" />
    <glyph glyph-name="uni208E" unicode="&#x208e;" horiz-adv-x="317" 
d="M6 106q51 1 62.5 22.5t11.5 98.5v262q0 78 -13.5 107t-60.5 35v225q161 -5 232 -80.5t71 -263.5v-309q0 -146 -35 -215q-34 -70 -97.5 -100t-170.5 -35v253z" />
    <glyph glyph-name="colonmonetary" unicode="&#x20a1;" horiz-adv-x="892" 
d="M406 -23l-54 7l-30 -217h-189l35 280q-148 97 -148 363v659q0 347 279 414l27 186h190l-22 -168q10 -1 28.5 -2t28.5 -2l24 172h187l-37 -227q154 -93 154 -373v-238h-410v238q0 38 -2.5 55.5t-6 21t-11.5 3.5q-17 0 -20 -11.5t-3 -68.5v-645q0 -53 4.5 -66.5t18.5 -13.5
q13 0 16.5 13.5t3.5 66.5v260h410v-274q0 -353 -285 -418l-27 -225h-192z" />
    <glyph glyph-name="uni20A2" unicode="&#x20a2;" horiz-adv-x="1067" 
d="M1055 408q0 -211 -131.5 -322t-370.5 -111q-264 0 -400.5 136.5t-136.5 388.5v450q0 254 137 390.5t392 136.5q169 0 289 -54q221 -105 221 -350v-119h-348v62q0 149 -166 149q-97 0 -136.5 -50.5t-39.5 -180.5v-424q0 -118 34 -170v569h215l48 -133q11 70 52.5 101.5
t139.5 31.5h61v-321h-172q-43 0 -53 -9.5t-10 -46.5v-213q33 36 33 105v121h342v-137z" />
    <glyph glyph-name="franc" unicode="&#x20a3;" horiz-adv-x="686" 
d="M416 180v-180h-396v1475h648v-398h-252v-188h252v-336h-252v-37h252v-336h-252z" />
    <glyph glyph-name="lira" unicode="&#x20a4;" horiz-adv-x="999" 
d="M702 -18q-126 0 -258 90q-87 -90 -206 -90q-244 0 -244 213q0 107 60.5 163t174.5 56q65 0 129 -33v10q0 65 -20 121h-303v170h215l-21 33h-194v172h90q-61 126 -64 246q0 183 98.5 273.5t321.5 90.5q177 0 273 -45q94 -43 134 -131t40 -229v-164h-393v145
q0 57 -4.5 70.5t-22.5 13.5q-17 0 -22 -12.5t-5 -61.5q0 -28 21 -196h280v-172h-254q0 -13 4 -33h250v-170h-227q4 -62 4 -84q0 -74 -16 -152q3 0 8 -1t8 -1q24 0 31.5 16t7.5 62v121h377v-147q0 -141 -29 -220q-25 -70 -83 -97t-161 -27zM227 182q31 0 60 13q-42 30 -62 30
q-22 0 -22 -20q0 -23 24 -23z" />
    <glyph glyph-name="uni20A6" unicode="&#x20a6;" horiz-adv-x="1079" 
d="M444 0h-370v428h-74v283h74v55h-74v283h74v426h442l197 -932l-76 594v338h364v-426h78v-283h-78v-55h78v-283h-78v-428h-432l-180 895l55 -494v-401z" />
    <glyph glyph-name="peseta" unicode="&#x20a7;" horiz-adv-x="2273" 
d="M414 215v-215h-394v1475h416q201 0 302 -71t120 -214q13 0 33 4q32 6 48 21t26 51q3 10 5 19t3.5 19.5t2 17t1 20.5t0.5 19v24v26h340v-211h108v-397h-108v-309q0 -63 16.5 -79t69.5 -16h436q27 0 27 17q-3 22 -144 82q-74 34 -121.5 65.5t-84 73t-52.5 93.5t-16 122v2
q0 102 41 186q91 181 371 181q155 0 237 -43q162 -77 162 -293v-82h-367v55q0 38 -6 52t-24 14q-31 0 -31 -47v-3q0 -33 30 -57.5t124 -64.5q93 -37 149 -80q133 -91 133 -297v-15q0 -360 -414 -360h-575q-141 0 -215 31q-79 29 -115.5 104t-36.5 209v459h-47v-191
q0 -194 -102.5 -295.5t-327.5 -101.5h-20zM414 561q45 0 45 62v467q0 55 -45 55v-584z" />
    <glyph glyph-name="uni20A8" unicode="&#x20a8;" horiz-adv-x="1685" 
d="M444 438q0 39 -9.5 50.5t-37.5 13.5v-502h-377v1475h420q132 0 224 -29q87 -27 128.5 -104.5t41.5 -221.5v-211q0 -163 -97 -223q57 -25 74.5 -73.5t17.5 -147.5v-45q0 -27 10 -36t40 -9h372q27 0 27 18q-3 23 -143 82q-143 67 -209 153.5t-66 223.5v2q0 102 41 186
q91 181 371 181q155 0 237 -43q162 -77 162 -293v-82h-366v55q0 38 -6.5 52t-24.5 14q-31 0 -31 -47v-3q0 -33 30 -57.5t124 -64.5q93 -37 149 -80q133 -91 133 -297v-15q0 -360 -413 -360h-463q-194 0 -276.5 86t-82.5 272v80zM397 1143v-314q28 0 38.5 12t10.5 40v213
q0 30 -7.5 39.5t-32.5 9.5h-9z" />
    <glyph glyph-name="uni20A9" unicode="&#x20a9;" horiz-adv-x="1466" 
d="M674 0h-496l-41 422h-129v297h101l-5 35h-96v288h70l-43 433h414l22 -555l-4 -449l29 451l55 553h369l53 -553l28 -451l-4 449l27 555h408l-43 -433h69v-288h-96l-4 -35h100v-297h-129l-41 -422h-493l-50 547l-10 430l-12 -430z" />
    <glyph glyph-name="uni20AA" unicode="&#x20aa;" horiz-adv-x="1482" 
d="M354 1184v-1184h-334v1475h521q156 0 288 -60q128 -63 196.5 -176.5t68.5 -275.5v-375q0 -137 -62 -192.5t-203 -55.5h-59v520q0 130 -33 197q-34 69 -94.5 98t-155.5 29h-133zM395 0v1147h70q139 0 201.5 -56.5t62.5 -199.5v-588h119q98 0 160 27q65 27 96 97t31 200
v848h327v-928q0 -263 -141.5 -405t-409.5 -142h-516z" />
    <glyph glyph-name="Euro" unicode="&#x20ac;" horiz-adv-x="980" 
d="M963 410q0 -433 -431 -433q-213 0 -320.5 100t-107.5 333v153h-102v174h102v33h-102v176h102v123q0 432 439 432q221 0 320.5 -101.5t99.5 -330.5v-92h-410v92q0 38 -2.5 55.5t-6.5 21t-12 3.5q-17 0 -19.5 -11t-2.5 -69v-123h334l-37 -176h-297v-33h291l-39 -174h-252
v-139q0 -54 4 -67t18 -13q13 0 17 13.5t4 66.5v106h410v-120z" />
    <glyph glyph-name="uni20AE" unicode="&#x20ae;" horiz-adv-x="745" 
d="M580 457v-457h-414v330l-123 -37v184l123 39v68l-123 -37v184l123 39v322h-154v383h721v-383h-153v-193l114 35v-189l-114 -34v-66l114 35v-188z" />
    <glyph glyph-name="uni20B1" unicode="&#x20b1;" horiz-adv-x="983" 
d="M416 250v-250h-361v686h-47v156h47v51h-47v156h47v426h414q164 0 262 -58t146.5 -147.5t48.5 -196.5v-24h49v-156h-49v-51h49v-156h-49q0 -113 -45 -215q-100 -221 -412 -221h-53zM416 1184v-135h143v14q0 50 -31 85.5t-84 35.5h-28zM559 893h-143v-51h143v51zM442 551
q58 0 87.5 39.5t29.5 95.5h-143v-135h26z" />
    <glyph glyph-name="uni2105" unicode="&#x2105;" horiz-adv-x="1257" 
d="M266 768q-130 0 -196 60.5t-66 189.5v229q0 123 72 186.5t194 63.5q124 0 195.5 -63t71.5 -187v-96h-252v92q0 29 -3.5 38t-11.5 9q-14 0 -14 -47v-219q0 -28 3 -35.5t11 -7.5q6 0 8.5 2t4.5 11.5t2 29.5v98h252v-104q0 -250 -271 -250zM895 1475h381l-885 -1475h-391z
M983 -57q-130 0 -196 60.5t-66 189.5v229q0 123 72 186.5t194 63.5q124 0 195 -63t71 -187v-229q0 -250 -270 -250zM987 156q8 0 11 7t3 36v219q0 29 -3 38t-11 9q-14 0 -14 -47v-219q0 -28 3 -35.5t11 -7.5z" />
    <glyph glyph-name="uni2116" unicode="&#x2116;" horiz-adv-x="1597" 
d="M1278 668q-150 0 -225.5 67.5t-75.5 214.5v262q0 141 83 213t222 72q140 0 221.5 -71.5t81.5 -213.5v-262q0 -282 -307 -282zM391 0h-371v1475h443l196 -932l-75 594v338h364v-1475h-432l-180 895l55 -494v-401zM1282 909q6 0 9 2t5 13.5t2 33.5v250q0 35 -3 44.5
t-13 9.5t-13 -9.5t-3 -44.5v-250q0 -32 2.5 -40.5t13.5 -8.5zM977 633h608v-314h-608v314z" />
    <glyph glyph-name="uni2117" unicode="&#x2117;" horiz-adv-x="1212" 
d="M610 -27q-304 0 -434.5 135t-130.5 429v376q0 294 144.5 436t412.5 142q288 0 432 -137.5t144 -425.5v-389q0 -274 -140 -420t-428 -146zM610 225q128 0 197 29q63 29 85.5 97t22.5 198v369q0 172 -71 246.5t-242 74.5q-94 0 -149.5 -14.5t-90.5 -50.5h267q126 0 188 -58
t62 -149v-240q0 -120 -56.5 -172.5t-179.5 -50.5h-45v-215h-219q67 -64 231 -64zM307 549q0 -157 45 -227v837q-45 -66 -45 -258v-352zM598 969v-252h6q11 0 19 7t8 15v201q0 29 -29 29h-4z" />
    <glyph glyph-name="uni2120" unicode="&#x2120;" horiz-adv-x="927" 
d="M203 836q-107 0 -153 44t-46 136v74h189v-72q0 -8 2 -13.5t4.5 -7.5t3.5 -2q10 0 10 17v69q0 10 -13.5 17.5t-56.5 21.5q-77 31 -106 60.5t-29 85.5v61q0 85 47.5 125.5t153.5 40.5q190 0 190 -172v-49h-182v55q0 23 -12 23q-8 0 -8 -11v-53q0 -11 10 -17.5t53 -23.5
q77 -28 109 -62t32 -102v-73q0 -172 -198 -172zM594 1135v-281h-178v621h178l72 -181l69 181h178v-621h-180v279l-55 -136h-23z" />
    <glyph glyph-name="trademark" unicode="&#x2122;" horiz-adv-x="913" 
d="M299 1278v-424h-205v424h-88v197h377v-197h-84zM580 1135v-281h-179v621h179l71 -181l70 181h178v-621h-180v279l-55 -136h-23z" />
    <glyph glyph-name="uni2126" unicode="&#x2126;" horiz-adv-x="1167" 
d="M434 0h-420v377h131q-67 111 -101 227t-34 264q0 322 148.5 475.5t423.5 153.5q179 0 307 -61q268 -134 268 -570q-1 -147 -39.5 -261.5t-111.5 -227.5h147v-377h-416l-149 379q68 120 90 186q53 143 53 285q0 126 -22 180q-33 100 -127 100q-29 0 -70 -18
q-78 -41 -78 -260q0 -72 8 -135q23 -151 127 -338z" />
    <glyph glyph-name="uni2153" unicode="&#x2153;" horiz-adv-x="1171" 
d="M606 766l244 770l313 -168l-549 -608zM92 735v226h70v202h-70v201q51 5 90 33t49 76h177v-512h75v-226h-391zM41 125l553 623l8 -7l-244 -802zM881 -18q-115 0 -174 24q-55 23 -76 65.5t-21 112.5v72h250v-49q0 -15 3 -21t14 -6q12 0 12 25v53q0 22 -7.5 27.5t-33.5 5.5
h-76v162h88q29 0 29 26v62q0 20 -15 20q-14 0 -14 -22v-52h-250v66q0 195 269 195q262 0 262 -183v-69q0 -95 -103 -119q103 -14 103 -117v-94q0 -81 -66 -132.5t-194 -51.5z" />
    <glyph glyph-name="uni2154" unicode="&#x2154;" horiz-adv-x="1171" 
d="M606 766l244 770l313 -168l-549 -608zM29 735v185q0 66 24 106q41 64 142 100q74 31 90 45q22 18 22 41v68q0 16 -14 16t-14 -24v-92h-250v108q0 89 65 143t197 54q136 0 199 -47t63 -144v-84q0 -59 -23 -100q-22 -34 -54 -56t-79 -44q-81 -34 -98 -58h254v-217h-524z
M41 125l553 623l8 -7l-244 -802zM881 -18q-115 0 -174 24q-55 23 -76 65.5t-21 112.5v72h250v-49q0 -15 3 -21t14 -6q12 0 12 25v53q0 22 -7.5 27.5t-33.5 5.5h-76v162h88q29 0 29 26v62q0 20 -15 20q-14 0 -14 -22v-52h-250v66q0 195 269 195q262 0 262 -183v-69
q0 -95 -103 -119q103 -14 103 -117v-94q0 -81 -66 -132.5t-194 -51.5z" />
    <glyph glyph-name="uni2155" unicode="&#x2155;" horiz-adv-x="1171" 
d="M606 766l244 770l313 -168l-549 -608zM92 735v226h70v202h-70v201q51 5 90 33t49 76h177v-512h75v-226h-391zM41 125l553 623l8 -7l-244 -802zM895 -14q-146 0 -210 51t-64 153v95h258v-70q0 -18 14 -18q12 0 12 18v113q0 18 -12 18q-11 0 -19 -18l-8 -21l-250 62l35 368
h502v-35q0 -82 -12 -120q-11 -35 -47.5 -45.5t-124.5 -10.5h-90l-11 -102q41 84 133 84q81 0 116.5 -44t35.5 -126v-139q0 -100 -62.5 -156.5t-195.5 -56.5z" />
    <glyph glyph-name="uni2156" unicode="&#x2156;" horiz-adv-x="1171" 
d="M606 766l244 770l313 -168l-549 -608zM27 735v185q0 66 24 106q41 64 142 100q74 31 90 45q22 18 22 41v68q0 16 -14 16q-15 0 -15 -24v-92h-249v108q0 89 65 143t197 54q136 0 199 -47t63 -144v-84q0 -59 -23 -100q-22 -34 -54 -56t-79 -44q-81 -34 -98 -58h254v-217
h-524zM41 125l553 623l8 -7l-244 -802zM895 -14q-146 0 -210 51t-64 153v95h258v-70q0 -18 14 -18q12 0 12 18v113q0 18 -12 18q-11 0 -19 -18l-8 -21l-250 62l35 368h502v-35q0 -82 -12 -120q-11 -35 -47.5 -45.5t-124.5 -10.5h-90l-11 -102q41 84 133 84q81 0 116.5 -44
t35.5 -126v-139q0 -100 -62.5 -156.5t-195.5 -56.5z" />
    <glyph glyph-name="uni2157" unicode="&#x2157;" horiz-adv-x="1171" 
d="M606 766l244 770l313 -168l-549 -608zM262 717q-116 0 -174 24q-55 23 -75.5 66t-20.5 113v71h250v-49q0 -11 0.5 -15.5t4 -8t11.5 -3.5q12 0 12 25v53q0 22 -7.5 27.5t-33.5 5.5h-75v162h88q28 0 28 26v62q0 20 -14 20t-14 -22v-51h-250v65q0 195 268 195
q262 0 262 -183v-69q0 -95 -102 -119q102 -14 102 -117v-94q0 -81 -66 -132.5t-194 -51.5zM41 125l553 623l8 -7l-244 -802zM895 -14q-146 0 -210 51t-64 153v95h258v-70q0 -18 14 -18q12 0 12 18v113q0 18 -12 18q-11 0 -19 -18l-8 -21l-250 62l35 368h502v-35
q0 -82 -12 -120q-11 -35 -47.5 -45.5t-124.5 -10.5h-90l-11 -102q41 84 133 84q81 0 116.5 -44t35.5 -126v-139q0 -100 -62.5 -156.5t-195.5 -56.5z" />
    <glyph glyph-name="uni2158" unicode="&#x2158;" horiz-adv-x="1171" 
d="M606 766l244 770l313 -168l-549 -608zM498 811v-76h-240v76h-276v207l231 455h285v-441h55v-221h-55zM211 1032h47v55l16 127l-32 -122zM41 125l553 623l8 -7l-244 -802zM895 -14q-146 0 -210 51t-64 153v95h258v-70q0 -18 14 -18q12 0 12 18v113q0 18 -12 18
q-11 0 -19 -18l-8 -21l-250 62l35 368h502v-35q0 -82 -12 -120q-11 -35 -47.5 -45.5t-124.5 -10.5h-90l-11 -102q41 84 133 84q81 0 116.5 -44t35.5 -126v-139q0 -100 -62.5 -156.5t-195.5 -56.5z" />
    <glyph glyph-name="uni2159" unicode="&#x2159;" horiz-adv-x="1171" 
d="M606 766l244 770l313 -168l-549 -608zM92 735v226h70v202h-70v201q51 5 90 33t49 76h177v-512h75v-226h-391zM1151 190q0 -95 -67 -149.5t-197 -54.5q-260 0 -260 227v307q0 110 66.5 170t197.5 60t195.5 -54.5t64.5 -148.5v-86h-248v71q0 21 -12 21q-17 0 -17 -37v-135
q37 57 130 57q74 0 110.5 -31.5t36.5 -101.5v-115zM41 125l553 623l8 -7l-244 -802zM891 190q18 0 18 21v72q0 22 -16 22l-19 -4v-82q0 -29 17 -29z" />
    <glyph glyph-name="uni215A" unicode="&#x215a;" horiz-adv-x="1171" 
d="M606 766l244 770l313 -168l-549 -608zM289 721q-146 0 -210.5 51.5t-64.5 153.5v94h258v-70q0 -7 4.5 -12.5t10.5 -5.5q12 0 12 18v113q0 18 -12 18q-11 0 -19 -18l-8 -21l-250 62l35 369h502v-35q0 -84 -12 -121q-11 -35 -47.5 -45t-125.5 -10h-90l-10 -103
q41 84 133 84q81 0 116.5 -44t35.5 -126v-139q0 -100 -62.5 -156.5t-195.5 -56.5zM1151 190q0 -95 -67 -149.5t-197 -54.5q-260 0 -260 227v307q0 110 66.5 170t197.5 60t195.5 -54.5t64.5 -148.5v-86h-248v71q0 21 -12 21q-17 0 -17 -37v-135q37 57 130 57
q74 0 110.5 -31.5t36.5 -101.5v-115zM41 125l553 623l8 -7l-244 -802zM891 190q18 0 18 21v72q0 22 -16 22l-19 -4v-82q0 -29 17 -29z" />
    <glyph glyph-name="uni215B" unicode="&#x215b;" horiz-adv-x="1171" 
d="M606 766l244 770l313 -168l-549 -608zM92 735v226h70v202h-70v201q51 5 90 33t49 76h177v-512h75v-226h-391zM899 -14q-144 0 -203 46t-59 138v86q0 93 82 127q-80 39 -80 121v59q0 99 65.5 143t192.5 44q137 0 199.5 -42t62.5 -143v-59q0 -84 -76 -121q78 -28 78 -125
v-86q0 -88 -58.5 -138t-203.5 -50zM41 125l553 623l8 -7l-244 -802zM885 477q0 -20 14 -20t14 20v80q0 14 -14 14t-14 -14v-80zM899 178q14 0 14 19v98q0 16 -14 16t-14 -20v-98q0 -15 14 -15z" />
    <glyph glyph-name="uni215C" unicode="&#x215c;" horiz-adv-x="1171" 
d="M606 766l244 770l313 -168l-549 -608zM262 717q-116 0 -174 24q-55 23 -75.5 66t-20.5 113v71h250v-49q0 -11 0.5 -15.5t4 -8t11.5 -3.5q12 0 12 25v53q0 22 -7.5 27.5t-33.5 5.5h-75v162h88q28 0 28 26v62q0 20 -14 20t-14 -22v-51h-250v65q0 195 268 195
q262 0 262 -183v-69q0 -95 -102 -119q102 -14 102 -117v-94q0 -81 -66 -132.5t-194 -51.5zM899 -14q-144 0 -203 46t-59 138v86q0 93 82 127q-80 39 -80 121v59q0 99 65.5 143t192.5 44q137 0 199.5 -42t62.5 -143v-59q0 -84 -76 -121q78 -28 78 -125v-86q0 -88 -58.5 -138
t-203.5 -50zM41 125l553 623l8 -7l-244 -802zM885 477q0 -20 14 -20t14 20v80q0 14 -14 14t-14 -14v-80zM899 178q14 0 14 19v98q0 16 -14 16t-14 -20v-98q0 -15 14 -15z" />
    <glyph glyph-name="uni215D" unicode="&#x215d;" horiz-adv-x="1171" 
d="M606 766l244 770l313 -168l-549 -608zM268 721q-146 0 -210 51.5t-64 153.5v94h258v-70q0 -18 14 -18q13 0 13 18v113q0 18 -13 18q-10 0 -18 -18l-8 -21l-250 62l35 369h501v-35q0 -84 -12 -121q-11 -35 -47 -45t-125 -10h-90l-10 -103q41 84 133 84q81 0 116 -43.5
t35 -126.5v-139q0 -100 -62.5 -156.5t-195.5 -56.5zM899 -14q-144 0 -203 46t-59 138v86q0 93 82 127q-80 39 -80 121v59q0 99 65.5 143t192.5 44q137 0 199.5 -42t62.5 -143v-59q0 -84 -76 -121q78 -28 78 -125v-86q0 -88 -58.5 -138t-203.5 -50zM41 125l553 623l8 -7
l-244 -802zM885 477q0 -20 14 -20t14 20v80q0 14 -14 14t-14 -14v-80zM899 178q14 0 14 19v98q0 16 -14 16t-14 -20v-98q0 -15 14 -15z" />
    <glyph glyph-name="uni215E" unicode="&#x215e;" horiz-adv-x="1171" 
d="M606 766l244 770l313 -168l-549 -608zM121 735q19 184 50.5 303t88.5 215h-164v220h428v-173q-50 -96 -75 -174q-51 -148 -78 -391h-250zM899 -14q-144 0 -203 46t-59 138v86q0 93 82 127q-80 39 -80 121v59q0 99 65.5 143t192.5 44q137 0 199.5 -42t62.5 -143v-59
q0 -84 -76 -121q78 -28 78 -125v-86q0 -88 -58.5 -138t-203.5 -50zM41 125l553 623l8 -7l-244 -802zM885 477q0 -20 14 -20t14 20v80q0 14 -14 14t-14 -14v-80zM899 178q14 0 14 19v98q0 16 -14 16t-14 -20v-98q0 -15 14 -15z" />
    <glyph glyph-name="uni215F" unicode="&#x215f;" horiz-adv-x="1171" 
d="M606 766l244 770l313 -168l-549 -608zM92 735v226h70v202h-70v201q51 5 90 33t49 76h177v-512h75v-226h-391zM41 125l553 623l8 -7l-244 -802z" />
    <glyph glyph-name="arrowleft" unicode="&#x2190;" horiz-adv-x="1441" 
d="M604 563q164 -136 232 -299h-435q-25 67 -77 137q-101 143 -265 248v178q73 47 144 111q70 66 122.5 139.5t75.5 139.5h418q-63 -163 -213 -299h744v-355h-746z" />
    <glyph glyph-name="arrowup" unicode="&#x2191;" horiz-adv-x="1441" 
d="M1204 627q-174 67 -299 219v-740h-354v740q-125 -152 -299 -219v415q62 23 139 78q158 113 254 262h172q52 -82 111 -141q138 -150 276 -199v-415z" />
    <glyph glyph-name="arrowright" unicode="&#x2192;" horiz-adv-x="1441" 
d="M606 264q69 165 230 299h-744v355h742q-149 138 -211 299h417q26 -70 76 -140q118 -161 266 -250v-178q-67 -42 -143 -112q-147 -135 -201 -273h-432z" />
    <glyph glyph-name="arrowdown" unicode="&#x2193;" horiz-adv-x="1441" 
d="M637 86q-40 63 -113 143q-142 149 -274 197v416q180 -69 299 -221v741h354v-737q124 147 299 217v-416q-57 -19 -141 -76q-156 -115 -252 -264h-172z" />
    <glyph glyph-name="uni2196" unicode="&#x2196;" horiz-adv-x="1441" 
d="M1051 170l-525 522q23 -188 -57 -364l-293 290q32 76 45 154q30 199 -10 365l121 120q76 -19 182 -22q199 -9 332 57l297 -295q-172 -71 -367 -55l527 -524z" />
    <glyph glyph-name="uni2197" unicode="&#x2197;" horiz-adv-x="1441" 
d="M1008 328q-72 174 -56 362l-526 -520l-252 248l526 522q-193 -17 -366 55l293 295q60 -32 155 -45q195 -29 367 6l121 -121q-20 -77 -23 -176q-9 -193 56 -333z" />
    <glyph glyph-name="uni2198" unicode="&#x2198;" horiz-adv-x="1441" 
d="M1143 205q-76 19 -182 22q-211 3 -332 -57l-297 295q170 76 368 53l-528 524l252 250l524 -524q-17 199 58 367l294 -291q-35 -84 -45 -154q-29 -193 9 -364z" />
    <glyph glyph-name="uni2199" unicode="&#x2199;" horiz-adv-x="1441" 
d="M848 170q-59 32 -154 45q-202 30 -364 -8l-121 121q17 99 20 180q10 207 -55 330l297 295q75 -182 53 -365l525 524l251 -250l-526 -522q193 23 371 -57z" />
    <glyph glyph-name="partialdiff" unicode="&#x2202;" horiz-adv-x="849" 
d="M412 -25q-206 0 -301 92t-95 291v420q0 200 60.5 286.5t204.5 86.5q94 0 143.5 -36t75.5 -111q-39 141 -162.5 274.5t-368.5 296.5h498q173 -113 271 -307.5t98 -444.5v-417q0 -219 -110 -325t-314 -106zM426 319q13 0 18 11t5 47v387q0 39 -5 49t-18 10t-18 -10t-5 -49
v-387q0 -36 5 -47t18 -11z" />
    <glyph glyph-name="uni2206" unicode="&#x2206;" horiz-adv-x="1126" 
d="M563 1507l592 -1507h-1186zM565 545l-78 -219h156z" />
    <glyph glyph-name="product" unicode="&#x220f;" horiz-adv-x="1097" 
d="M569 1090h-43v-1090h-383v1090h-131v385h1069v-385h-129v-1090h-383v1090z" />
    <glyph glyph-name="summation" unicode="&#x2211;" horiz-adv-x="749" 
d="M733 0h-717v354l301 408l-301 371v342h717v-353h-252l267 -354l-289 -399h274v-369z" />
    <glyph glyph-name="minus" unicode="&#x2212;" horiz-adv-x="823" 
d="M16 897h791v-342h-791v342z" />
    <glyph glyph-name="radical" unicode="&#x221a;" horiz-adv-x="1175" 
d="M315 0l-178 618h-129v392h414l84 -301l16 -347l13 347l253 766h418l-491 -1475h-400z" />
    <glyph glyph-name="infinity" unicode="&#x221e;" horiz-adv-x="1316" 
d="M338 395q-338 0 -338 348q0 95 41 172q44 80 121 124t182 44q102 0 168 -29.5t147 -109.5q33 33 99 82q79 57 217 57q103 0 176 -47q78 -44 122 -122t44 -173q0 -162 -84.5 -253t-249.5 -91q-106 0 -177 31.5t-153 110.5q-72 -68 -96 -82q-85 -62 -219 -62zM365 702
q12 0 24 6.5t17.5 11.5t25.5 23q-36 34 -51 38q-7 3 -16 3q-20 0 -31.5 -11.5t-11.5 -29.5t11.5 -29.5t31.5 -11.5zM954 702q20 0 31.5 11.5t11.5 29.5t-11.5 29.5t-31.5 11.5q-12 0 -24 -6.5t-17.5 -11.5t-25.5 -23l6 -6q34 -31 52 -34q5 -1 9 -1z" />
    <glyph glyph-name="integral" unicode="&#x222b;" horiz-adv-x="471" 
d="M-51 -84h22q49 0 49 49v1186q0 182 82.5 256t282.5 74h76v-336h-10q-48 0 -48 -35l3 -1186q0 -180 -87.5 -257t-279.5 -77h-90v326z" />
    <glyph glyph-name="approxequal" unicode="&#x2248;" horiz-adv-x="737" 
d="M563 731q-69 0 -131 23q-22 7 -65 21t-67.5 21.5t-58.5 14t-61 6.5q-52 0 -98 -21.5t-66 -56.5v342q21 30 68.5 52t97.5 22q61 0 129 -22q9 -3 43.5 -16t46.5 -17.5t40.5 -13.5t44.5 -12.5t37.5 -7t39.5 -3.5q48 0 90 22.5t68 63.5v-332q-57 -86 -158 -86zM563 342
q-66 0 -139 25q-20 7 -64 23t-67 24t-55.5 15t-57.5 7q-44 0 -90.5 -25.5t-73.5 -62.5v350q25 37 68.5 61.5t95.5 24.5q54 0 113 -20q62 -22 92 -32.5t83 -22t95 -11.5q103 0 158 74v-358q-19 -28 -63 -50t-95 -22z" />
    <glyph glyph-name="notequal" unicode="&#x2260;" horiz-adv-x="759" 
d="M371 385l-45 -135h-224l45 135h-131v324h238l10 34h-248v324h357l45 139h227l-47 -139h145v-324h-251l-13 -34h264v-324h-372z" />
    <glyph glyph-name="equivalence" unicode="&#x2261;" horiz-adv-x="759" 
d="M16 1255h727v-329h-727v329zM16 891h727v-334h-727v334zM16 520h727v-332h-727v332z" />
    <glyph glyph-name="lessequal" unicode="&#x2264;" horiz-adv-x="743" 
d="M16 829v273l709 274v-311l-309 -96l309 -99v-309zM18 535h705v-297h-705v297z" />
    <glyph glyph-name="greaterequal" unicode="&#x2265;" horiz-adv-x="741" 
d="M18 870l310 99l-310 96v311l707 -274v-273l-707 -268v309zM18 535h707v-297h-707v297z" />
    <glyph glyph-name="uni22A0" unicode="&#x22a0;" horiz-adv-x="1540" 
d="M27 1475h1486v-1475h-1486v1475zM930 578v321h-318v-321h318zM774 684l-80 -80l-49 49l78 80l-80 80l51 51l78 -80l80 82l53 -51l-82 -82l80 -82l-49 -49z" />
    <glyph glyph-name="house" unicode="&#x2302;" horiz-adv-x="1740" 
d="M197 836l673 643l674 -643v-836h-1347v836z" />
    <glyph glyph-name="filledbox" unicode="&#x25a0;" horiz-adv-x="1540" 
d="M27 1475h1486v-1475h-1486v1475z" />
    <glyph glyph-name="uni25A1" unicode="&#x25a1;" horiz-adv-x="1540" 
d="M27 0v1475h1486v-1475h-1486zM612 578h318v321h-318v-321z" />
    <glyph glyph-name="uni25AA" unicode="&#x25aa;" horiz-adv-x="1267" 
d="M25 1212h1218v-1212h-1218v1212z" />
    <glyph glyph-name="uni25AB" unicode="&#x25ab;" horiz-adv-x="1267" 
d="M25 1212h1218v-1212h-1218v1212zM766 471v272h-266v-272h266z" />
    <glyph glyph-name="triagup" unicode="&#x25b2;" horiz-adv-x="1832" 
d="M918 1526l884 -1526h-1771z" />
    <glyph glyph-name="triagrt" unicode="&#x25ba;" horiz-adv-x="1832" 
d="M197 1647l1532 -881l-1532 -885v1766z" />
    <glyph glyph-name="triagdn" unicode="&#x25bc;" horiz-adv-x="1832" 
d="M31 1501h1771l-884 -1526z" />
    <glyph glyph-name="triaglf" unicode="&#x25c4;" horiz-adv-x="1832" 
d="M104 766l1532 881v-1766z" />
    <glyph glyph-name="lozenge" unicode="&#x25ca;" horiz-adv-x="1046" 
d="M-12 739l534 533l537 -535l-535 -530zM590 737l-66 64l-63 -64l63 -63z" />
    <glyph glyph-name="circle" unicode="&#x25cb;" horiz-adv-x="1693" 
d="M846 -23q-228 0 -400 99q-176 97 -272 268.5t-96 392.5q0 330 213 543q104 104 245.5 160.5t309.5 56.5q337 0 555 -215q215 -215 215 -545q0 -331 -213 -544q-216 -216 -557 -216zM846 518q94 0 148.5 62.5t54.5 156.5q0 95 -54.5 158t-148.5 63q-97 0 -150 -62
t-53 -159q0 -95 53 -157t150 -62z" />
    <glyph glyph-name="uni25CE" unicode="&#x25ce;" horiz-adv-x="1865" 
d="M934 -20q-221 0 -393 96q-175 99 -270 269.5t-95 391.5q0 327 211 541q215 215 547 215q330 0 543 -213t213 -543q0 -328 -211 -542q-212 -215 -545 -215zM934 248q136 0 250 63q110 65 172.5 176.5t62.5 249.5q0 140 -63 248q-65 115 -174.5 179.5t-247.5 64.5
q-132 0 -248 -64q-112 -67 -176 -178t-64 -250q0 -136 64 -252q67 -112 177.5 -174.5t246.5 -62.5zM936 385q-108 0 -182 45q-81 48 -126.5 127t-45.5 178q0 103 47 180q47 80 128 125t179 45q104 0 178 -45q81 -45 126.5 -124.5t45.5 -180.5q0 -98 -45 -178
q-49 -80 -127.5 -126t-177.5 -46zM936 616q49 0 80 34t31 85q0 54 -30.5 86.5t-80.5 32.5q-51 0 -82 -32.5t-31 -86.5q0 -52 31.5 -85.5t81.5 -33.5z" />
    <glyph glyph-name="uni25CF" unicode="&#x25cf;" horiz-adv-x="1693" 
d="M846 -23q-228 0 -400 99q-176 97 -272 268.5t-96 392.5q0 330 213 543q104 104 245.5 160.5t309.5 56.5q337 0 555 -215q215 -215 215 -545q0 -331 -213 -544q-216 -216 -557 -216z" />
    <glyph glyph-name="uni25E2" unicode="&#x25e2;" horiz-adv-x="1832" 
d="M82 1554l1712 -456l-1251 -1250z" />
    <glyph glyph-name="uni25E3" unicode="&#x25e3;" horiz-adv-x="1832" 
d="M43 1098l1712 456l-461 -1706z" />
    <glyph glyph-name="uni25E4" unicode="&#x25e4;" horiz-adv-x="1832" 
d="M49 348l1251 1245l461 -1706z" />
    <glyph glyph-name="uni25E5" unicode="&#x25e5;" horiz-adv-x="1832" 
d="M543 1585l1249 -1247l-1712 -459z" />
    <glyph glyph-name="uni2605" unicode="&#x2605;" horiz-adv-x="1839" 
d="M678 627l-385 276l475 -2l147 449l148 -449l473 -2l-385 -274l147 -449l-385 277l-383 -277z" />
    <glyph glyph-name="sun" unicode="&#x263c;" horiz-adv-x="1896" 
d="M887 1460h112l-34 -293h-43zM530 1337l97 58l114 -275l-32 -18zM1145 1120l112 275l99 -58l-180 -235zM279 1051l59 94l237 -176l-20 -31zM1309 971l235 174l62 -92l-277 -115zM944 375q-98 0 -180 49q-84 50 -132 131.5t-48 177.5t49 178q50 84 132 132.5t179 48.5
q95 0 178 -50q84 -50 131 -131t47 -178q0 -96 -49 -178q-48 -84 -129 -132t-178 -48zM213 791l293 -35v-41l-293 -35v111zM1378 715v41l293 35v-111zM279 418l276 117l20 -35l-233 -174zM1309 502l20 33l277 -115l-58 -94zM530 133l179 236l32 -19l-114 -276zM1145 350
l31 19l180 -236l-99 -59zM922 301h43l34 -293h-112z" />
    <glyph glyph-name="uni263E" unicode="&#x263e;" horiz-adv-x="1605" 
d="M872 121q-254 0 -432 178q-180 180 -180 430t180 430q178 178 432 178q201 0 367 -118q-81 24 -145 24q-139 0 -248 -69q-116 -72 -181 -187t-65 -258q0 -144 68 -260q67 -118 180 -187t246 -69q61 0 145 25q-164 -117 -367 -117z" />
    <glyph glyph-name="spade" unicode="&#x2660;" horiz-adv-x="1843" 
d="M666 0q3 6 30 56t45 87q117 244 117 443q-25 -74 -70 -133q-97 -142 -272 -142q-86 0 -174 43q-80 44 -127 117t-47 160q0 115 49 213q51 93 152.5 194.5t275.5 239.5l283 225h4l280 -225q182 -142 269 -234q102 -104 147 -200.5t45 -212.5q0 -82 -43 -160
q-43 -73 -114.5 -114.5t-159.5 -41.5q-101 0 -172 39q-134 68 -195 232q0 -163 82 -344q19 -47 42 -94t46.5 -90.5t30.5 -57.5h-524z" />
    <glyph glyph-name="club" unicode="&#x2663;" horiz-adv-x="1843" 
d="M1325 264q-112 0 -198.5 66t-129.5 174q15 -111 54 -205q12 -31 26 -64t25 -57.5t26.5 -55.5t23.5 -46.5t22.5 -43t17.5 -32.5h-524q30 52 65 123q102 196 123 385q-42 -110 -132.5 -177t-205.5 -67q-98 0 -180 49q-84 50 -132 132.5t-48 179.5q0 98 49 180
q50 81 132 128.5t179 47.5q30 0 84 -12q-41 90 -41 172q0 102 49 178q48 80 130 127t178 47q105 0 178 -47q84 -47 130 -127t46 -178q0 -88 -37 -176q43 16 92 16q97 0 180 -47q81 -51 128.5 -132t47.5 -177q0 -99 -49 -181q-48 -84 -128.5 -132t-180.5 -48z" />
    <glyph glyph-name="heart" unicode="&#x2665;" horiz-adv-x="1843" 
d="M631 283q-172 194 -271 329q-100 143 -145 262.5t-45 237.5q0 106 49 191q54 88 138 139t186 51q111 0 182 -43q80 -43 130 -116t60 -165q13 94 60 164q51 75 131 117.5t180 42.5q102 0 193 -51q90 -55 141 -141t51 -189q0 -121 -47 -238q-46 -118 -148 -258.5
t-276 -332.5l-285 -318z" />
    <glyph glyph-name="diamond" unicode="&#x2666;" horiz-adv-x="1843" 
d="M258 750l664 759l661 -759l-661 -770z" />
    <glyph glyph-name="uni267B" unicode="&#x267b;" horiz-adv-x="1691" 
d="M928 1042l71 41l-127 215q-22 45 -63 68q-23 14 -47 22t-36 10l-13 1v2h340q30 -1 46 -3t38.5 -9.5t40 -25t32.5 -46.5l50 -84l77 43l-110 -289zM356 1085l117 205q19 34 62 56q45 29 110 26q61 -4 110 -29.5t66 -60.5l-203 -348zM1155 813l260 150l121 -205
q18 -21 18 -76q0 -65 -32 -111q-35 -49 -80.5 -78.5t-83.5 -29.5zM162 551q-19 33 -26.5 54t-4.5 53t23 69l49 86l-74 43l305 53l105 -288l-74 43l-62 -107q-60 -103 -63 -113q-27 -46 -27 -86q1 -25 6 -50t10 -38l5 -12h-4zM899 266l197 236v-86h254q49 0 88 22
q22 14 41.5 31t28.5 27l8 10l2 -2l-168 -291q-18 -26 -27 -37.5t-28 -28.5t-43 -23.5t-56 -6.5h-100v-88zM553 117q-43 0 -80 22q-57 37 -78 84q-26 53 -28.5 108t16.5 85h405v-299h-235z" />
    <glyph glyph-name="uni267C" unicode="&#x267c;" horiz-adv-x="1691" 
d="M850 35q-144 0 -272 53t-226 150q-205 205 -205 491q0 289 205 494q98 98 225.5 151t272.5 53q287 0 491 -204q205 -205 205 -494q0 -286 -205 -491q-206 -203 -491 -203zM1214 1161l-57 -33l-39 66q-24 40 -51 51.5t-72 11.5h-262v-2l23 -4q72 -19 100 -71l100 -166
l-57 -33l234 -43zM823 1167q-11 23 -51 45q-96 47 -172 2q-32 -18 -43 -43l-94 -155l205 -119zM1239 530q25 0 66 23q88 62 88 149q0 30 -17 60l-92 156l-203 -117zM444 373q-4 6 -6 22q-22 60 11 123l100 170l55 -35l-80 224l-237 -39l59 -35l-39 -66q-14 -21 -19.5 -38.5
t-1 -36.5t9 -29.5t17.5 -34.5l129 -225h2zM1038 264h76q34 0 57.5 11.5t33.5 24.5t26 40l133 223l-2 2l-16 -16q-15 -21 -46 -37t-69 -16h-193v65l-155 -182l155 -182v67zM793 264v232h-318q-15 -24 -12 -68q2 -43 24 -83t62 -64q39 -17 59 -17h185z" />
    <glyph glyph-name="uni267D" unicode="&#x267d;" horiz-adv-x="1691" 
d="M850 35q-144 0 -272 53t-226 150q-205 205 -205 491q0 289 205 494q98 98 225.5 151t272.5 53q287 0 491 -204q205 -205 205 -494q0 -286 -205 -491q-206 -203 -491 -203zM850 68q273 0 467 194q192 192 192 467q0 276 -192 471q-196 193 -467 193q-277 0 -473 -193
q-195 -195 -195 -471q0 -275 195 -467q194 -194 473 -194zM899 981l57 33l-100 166q-20 33 -49 49q-17 10 -35.5 16.5t-28.5 8.5l-10 1v2h262q45 0 72 -11.5t51 -51.5l39 -66l57 33l-81 -223zM463 1016l94 155q11 25 43 43q40 24 86 21q48 -5 86.5 -23.5t50.5 -44.5
l-155 -270zM1081 801l203 117l92 -156q17 -30 17 -60q0 -48 -27 -86q-26 -38 -62 -62t-65 -24zM313 598q-13 24 -17.5 34.5t-9 29.5t1 36.5t19.5 38.5l39 66l-59 35l237 39l80 -224l-55 35l-100 -170q-19 -31 -19 -67q0 -21 3.5 -40.5t6.5 -28.5l4 -9h-2zM883 379l155 182
v-65h193q46 0 69 18q18 10 33.5 23t22.5 21l6 7l2 -2l-133 -223q-16 -27 -26 -40t-33.5 -24.5t-57.5 -11.5h-76v-67zM608 264q-20 0 -59 17q-44 26 -64 65q-20 40 -22 83.5t12 66.5h318v-232h-185z" />
    <glyph glyph-name="uni26AC" unicode="&#x26ac;" horiz-adv-x="1193" 
d="M596 -20q-196 0 -334 79q-142 80 -219.5 220.5t-77.5 324.5q0 174 76 320q80 144 222 224.5t333 80.5q197 0 334 -80q145 -78 222 -218t77 -327q0 -177 -78 -321q-80 -144 -222 -223.5t-333 -79.5zM596 471q58 0 90.5 39t32.5 94q0 57 -32 96t-91 39t-92 -38.5t-33 -96.5
q0 -55 33.5 -94t91.5 -39z" />
    <glyph glyph-name="uni2E18" unicode="&#x2e18;" horiz-adv-x="1013" 
d="M489 1225q78 0 136 -15q47 -17 64.5 -58.5t17.5 -129.5q0 -92 -19 -129q-18 -42 -64 -58t-135 -16q-73 0 -135 15q-47 17 -66.5 59.5t-19.5 128.5q0 76 19 127q20 43 66.5 59.5t135.5 16.5zM498 -291q-484 0 -484 383v199q0 78 33 125q19 31 51 58.5t58.5 43t68.5 37.5
q117 58 129 135l11 94q50 -16 124 -16q78 0 125 14q7 -9 11 -51q12 -86 12 -457v-245q33 36 33 102v391h327v-389q0 -125 -49 -219q-105 -205 -450 -205zM336 117q0 -67 35 -97v254q0 82 2 117q-15 -28 -20.5 -40t-11 -33t-5.5 -44v-157z" />
    <glyph glyph-name="uni3008" unicode="&#x3008;" horiz-adv-x="591" 
d="M197 -281l-211 897l225 859h397l-239 -857l235 -899h-407z" />
    <glyph glyph-name="uni3009" unicode="&#x3009;" horiz-adv-x="591" 
d="M-14 -281l235 918l-237 838h399l221 -838l-211 -918h-407z" />
    <glyph glyph-name="I.alt" horiz-adv-x="624" 
d="M16 0v381h103v715h-103v379h592v-379h-98v-715h98v-381h-592z" />
    <glyph glyph-name="Iacute.alt" horiz-adv-x="624" 
d="M326 1806h354l-225 -307h-273zM16 0v381h103v715h-103v379h592v-379h-98v-715h98v-381h-592z" />
    <glyph glyph-name="Ibreve.alt" horiz-adv-x="624" 
d="M311 1497q-148 0 -211 68.5t-63 230.5h239q0 -50 5 -60t30 -10q23 0 28 11t5 59h240q0 -165 -63 -232t-210 -67zM16 0v381h103v715h-103v379h592v-379h-98v-715h98v-381h-592z" />
    <glyph glyph-name="Icircumflex.alt" horiz-adv-x="624" 
d="M311 1597l-41 -98h-243l168 326h237l166 -326h-252zM16 0v381h103v715h-103v379h592v-379h-98v-715h98v-381h-592z" />
    <glyph glyph-name="Idieresis.alt" horiz-adv-x="624" 
d="M152 1497q-88 0 -115 29t-27 119q0 95 30.5 129t111.5 34q85 0 116 -33.5t31 -129.5q0 -86 -30.5 -117t-116.5 -31zM471 1497q-88 0 -114.5 28.5t-26.5 119.5q0 97 28.5 130t112.5 33t115.5 -33.5t31.5 -129.5q0 -86 -31 -117t-116 -31zM16 0v381h103v715h-103v379h592
v-379h-98v-715h98v-381h-592z" />
    <glyph glyph-name="Idotaccent.alt" horiz-adv-x="624" 
d="M322 1497q-78 0 -115 12q-40 12 -55 50t-15 120q0 75 17 121q17 37 55.5 51.5t112.5 14.5q68 0 112 -13q42 -14 59 -52.5t17 -121.5q0 -75 -16 -118q-17 -37 -56 -50.5t-116 -13.5zM16 0v381h103v715h-103v379h592v-379h-98v-715h98v-381h-592z" />
    <glyph glyph-name="Igrave.alt" horiz-adv-x="624" 
d="M-16 1806h354l102 -307h-245zM16 0v381h103v715h-103v379h592v-379h-98v-715h98v-381h-592z" />
    <glyph glyph-name="Imacron.alt" horiz-adv-x="624" 
d="M102 1765h414v-266h-414v266zM16 0v381h103v715h-103v379h592v-379h-98v-715h98v-381h-592z" />
    <glyph glyph-name="Iogonek.alt" horiz-adv-x="624" 
d="M737 -143q-26 -293 -329 -293q-277 0 -277 227q0 56 23 105t84 104h-222v381h103v715h-103v379h592v-379h-98v-715h98v-381q-46 -33 -145 -113q-60 -54 -60 -75t17 -21q31 0 29 66h288z" />
    <glyph glyph-name="Itilde.alt" horiz-adv-x="624" 
d="M-6 1499q0 137 16 219q17 76 57.5 108t112.5 32q39 0 86 -15q13 -6 35 -16.5t33.5 -16t26 -10t26.5 -4.5q39 0 39 53h221q0 -131 -18 -223q-18 -75 -57.5 -104t-110.5 -29q-54 0 -86 18q-13 6 -43 22t-48 23t-36 7q-23 0 -31 -15.5t-8 -48.5h-215zM16 0v381h103v715h-103
v379h592v-379h-98v-715h98v-381h-592z" />
    <glyph glyph-name="g.alt" horiz-adv-x="864" 
d="M379 -379q-147 0 -236 25q-86 24 -123.5 66.5t-37.5 103.5q0 86 58.5 126.5t188.5 34.5q-118 7 -171.5 53t-53.5 132q0 189 234 215q-116 13 -171 88t-55 217v180q0 162 69 243t226 101l45 6q67 10 83 29t16 90v21h419v-2q0 -68 -9 -101.5t-34 -50.5q-46 -21 -254 -12
q152 -20 214.5 -88t62.5 -219v-201q0 -192 -101 -274t-331 -82h-88q-37 0 -50.5 -4t-13.5 -15q0 -10 14 -12t76 -2h119q217 0 306 -76t89 -240v-4q0 -122 -45 -196q-45 -77 -150.5 -114.5t-289.5 -37.5h-6zM428 590q23 0 23 45v260q0 34 -3 41.5t-20 7.5q-14 0 -19.5 -10
t-5.5 -41v-256q0 -26 5.5 -36.5t19.5 -10.5zM453 -68q65 0 65 23v4q0 16 -47 16h-76q-34 0 -46.5 -5t-12.5 -17v-2q0 -19 67 -19h50z" />
    <glyph glyph-name="i.dot" horiz-adv-x="454" 
d="M225 1171q-80 0 -133 17q-46 17 -63 59.5t-17 130.5q0 74 17 127q19 42 64 60t132 18q85 0 135 -16q46 -18 64 -61t18 -128q0 -77 -16 -127q-17 -44 -62.5 -62t-138.5 -18zM20 1194q28 -31 72 -44t135 -13q92 0 134 13t73 46v-1196h-414v1194z" />
    <glyph glyph-name="zero.inf" horiz-adv-x="540" 
d="M270 -369q-122 0 -192 52.5t-70 166.5v330q0 111 71.5 163t190.5 52q118 0 190 -52t72 -163v-330q0 -113 -72 -166t-190 -53zM270 -158q10 0 12.5 6t2.5 31v283q0 26 -2 31.5t-13 5.5q-8 0 -11 -6t-3 -31v-283q0 -23 3 -30t11 -7z" />
    <glyph glyph-name="one.inf" horiz-adv-x="403" 
d="M6 -356v225h70v203h-70v200q51 5 90 33t49 76h177v-512h75v-225h-391z" />
    <glyph glyph-name="two.inf" horiz-adv-x="534" 
d="M4 -356v184q0 64 25 106q42 66 141 101q5 2 19 8t19.5 8t17 7.5t16.5 8.5t13 8.5t12 10t8.5 10t6 12t1.5 13.5v67q0 17 -15 17q-14 0 -14 -25v-92h-250v109q0 88 65 142t197 54q136 0 199 -47t63 -143v-84q0 -62 -22 -101q-22 -34 -54 -56t-79 -44q-3 -1 -13.5 -5.5
t-14.5 -6t-12.5 -5.5t-12.5 -6l-11 -5.5t-11 -6.5t-9 -6.5t-8.5 -7.5t-6.5 -8h254v-217h-524z" />
    <glyph glyph-name="three.inf" horiz-adv-x="544" 
d="M276 -375q-113 0 -174 25q-55 23 -75.5 65.5t-20.5 112.5v72h250v-50q0 -11 0.5 -15.5t4 -7.5t11.5 -3q13 0 13 24v54q0 22 -7.5 27t-33.5 5h-76v162h88q29 0 29 27v61q0 21 -15 21q-14 0 -14 -23v-51h-250v66q0 194 268 194q263 0 263 -182v-70q0 -95 -103 -119
q103 -14 103 -116v-94q0 -81 -66.5 -133t-194.5 -52z" />
    <glyph glyph-name="four.inf" horiz-adv-x="589" 
d="M524 -281v-75h-239v75h-277v207l232 455h284v-440h56v-222h-56zM238 -59h47v55l16 127l-33 -123z" />
    <glyph glyph-name="five.inf" horiz-adv-x="548" 
d="M283 -371q-146 0 -210.5 51.5t-64.5 153.5v94h258v-69q0 -8 4.5 -13.5t10.5 -5.5q12 0 12 19v112q0 19 -12 19q-11 0 -19 -19l-8 -20l-250 61l35 369h502v-35q0 -80 -13 -121q-11 -35 -47 -45t-125 -10h-90l-10 -102q41 84 133 84q81 0 116.5 -44t35.5 -126v-140
q0 -100 -62.5 -156.5t-195.5 -56.5z" />
    <glyph glyph-name="six.inf" horiz-adv-x="540" 
d="M532 -166q0 -95 -67 -150t-197 -55q-260 0 -260 228v307q0 109 66.5 169t197.5 60t195.5 -54.5t64.5 -148.5v-86h-247v72q0 21 -13 21q-16 0 -16 -37v-135q37 57 129 57q74 0 110.5 -31.5t36.5 -101.5v-115zM272 -166q19 0 19 21v71q0 23 -17 23l-18 -4v-82q0 -29 16 -29
z" />
    <glyph glyph-name="seven.inf" horiz-adv-x="444" 
d="M35 -356q19 184 50.5 303t88.5 215h-164v219h428v-172q-53 -100 -76 -174q-49 -143 -77 -391h-250z" />
    <glyph glyph-name="eight.inf" horiz-adv-x="524" 
d="M262 -371q-144 0 -203 46.5t-59 138.5v86q0 93 82 127q-39 19 -59.5 46.5t-20.5 73.5v60q0 99 65.5 142.5t192.5 43.5q137 0 199.5 -42t62.5 -142v-59q0 -84 -76 -121q78 -28 78 -125v-86q0 -88 -58.5 -138.5t-203.5 -50.5zM248 121q0 -21 14 -21t14 21v80q0 14 -14 14
t-14 -14v-80zM262 -178q14 0 14 18v99q0 16 -14 16t-14 -21v-98q0 -14 14 -14z" />
    <glyph glyph-name="nine.inf" horiz-adv-x="540" 
d="M268 -373q-130 0 -195 55.5t-65 149.5v90h248v-76q0 -20 12 -20q17 0 17 37v131q-35 -53 -119 -53q-158 0 -158 133v114q0 95 67 149t197 54q132 0 196 -55.5t64 -169.5v-307q0 -110 -66.5 -171t-197.5 -61zM266 74q3 0 19 4v82q0 28 -17 28q-18 0 -18 -20v-72
q0 -22 16 -22z" />
    <glyph glyph-name="underscore" horiz-adv-x="886" 
d="M4 307h879v-307h-879v307z" />
    <glyph glyph-name="backslash.cap" horiz-adv-x="671" 
d="M-20 1475h438l274 -1475h-440z" />
    <glyph glyph-name="periodcentered.cap" horiz-adv-x="446" 
d="M225 512q-83 0 -133 16q-47 13 -65.5 61.5t-18.5 151.5q0 91 19 154q19 50 63 66t135 16q78 0 131 -16q47 -13 65.5 -63.5t18.5 -156.5q0 -88 -18 -147q-18 -48 -63 -65t-134 -17z" />
    <glyph glyph-name="bullet.cap" horiz-adv-x="524" 
d="M262 459q-142 0 -198 58.5t-56 211.5t57 211.5t197 58.5q142 0 199 -57.5t57 -212.5q0 -151 -58 -210.5t-198 -59.5z" />
    <glyph glyph-name="uni2016.cap" horiz-adv-x="817" 
d="M20 1548h369v-1603h-369v1603zM430 1548h367v-1603h-367v1603z" />
    <glyph glyph-name="exclamdown.cap" horiz-adv-x="479" 
d="M242 1491q88 0 141 -16q49 -17 68.5 -64t19.5 -141q0 -81 -18 -137q-20 -46 -67.5 -63t-143.5 -17q-93 0 -146 16q-49 17 -67.5 62.5t-18.5 138.5q0 96 19 141q18 46 66.5 63t146.5 17zM16 467q0 141 15 270q13 122 30.5 206t30.5 97q43 -16 152 -16q96 0 149 16
q15 -15 29 -96q43 -208 43 -477v-467h-449v467z" />
    <glyph glyph-name="uni2E18.cap" horiz-adv-x="1013" 
d="M489 1499q82 0 136 -14q47 -17 64.5 -59t17.5 -130q0 -92 -19 -129q-18 -41 -64 -57t-135 -16q-77 0 -135 14q-47 17 -66.5 59.5t-19.5 128.5q0 76 19 127q20 43 66.5 59.5t135.5 16.5zM498 -16q-484 0 -484 383v198q0 78 33 125q19 31 51 58.5t58.5 43t68.5 37.5
q117 58 129 136l11 94q53 -17 124 -17q74 0 125 15q7 -9 11 -51q12 -86 12 -457v-246q33 36 33 103v391h327v-389q0 -126 -49 -220q-104 -204 -450 -204zM336 391q0 -66 35 -96v254q0 82 2 117q-15 -28 -20.5 -40t-11 -33t-5.5 -44v-158z" />
    <glyph glyph-name="questiondown.cap" horiz-adv-x="880" 
d="M467 1495q79 0 137 -14q47 -17 64.5 -59t17.5 -130q0 -80 -18 -129q-18 -41 -64.5 -57t-136.5 -16q-75 0 -133 14q-47 17 -66.5 59.5t-19.5 128.5q0 78 18 127q20 43 66.5 59.5t134.5 16.5zM653 1090q6 -66 6 -193v-8q0 -38 -10 -76q-11 -33 -43.5 -64.5t-97.5 -72.5
q-50 -31 -67 -49.5t-17 -44.5v-238q0 -13 5 -22t13 -9q21 0 21 35v268h403v-282q0 -357 -424 -357q-222 0 -325 88.5t-103 247.5v262q0 93 11 130q10 41 39 69t100 72q62 41 76 53q38 31 41 72l6 116q59 -32 180 -32q133 0 186 35z" />
    <glyph glyph-name="slash.cap" horiz-adv-x="671" 
d="M254 1475h438l-272 -1475h-440z" />
    <glyph glyph-name="uni3008.cap" horiz-adv-x="591" 
d="M197 -152l-211 895l225 861h397l-239 -859l235 -897h-407z" />
    <glyph glyph-name="uni3009.cap" horiz-adv-x="591" 
d="M-14 -152l235 918l-237 838h399l221 -840l-211 -916h-407z" />
    <glyph glyph-name="braceleft.cap" horiz-adv-x="548" 
d="M274 -152q-262 0 -262 240q0 98 68 209q25 40 35 57.5t21 46t11 50.5q0 46 -22.5 63.5t-79.5 17.5h-31v371h19q56 0 79 19t23 69q0 43 -31 103q-2 3 -12.5 21.5t-13.5 23.5t-12.5 23t-12.5 25.5t-11 25t-11 28t-8 27.5t-7 31t-4 31t-2 34q0 111 63 175.5t197 64.5h258
v-330h-36q-78 0 -78 -45q0 -47 30 -82q21 -29 26 -36.5t22.5 -35.5t23.5 -45.5t12.5 -45.5t6.5 -56q0 -93 -50.5 -139.5t-169.5 -47.5v-47q122 -1 169.5 -45t47.5 -139q0 -71 -26 -119q-10 -19 -34 -56.5t-35 -62.5t-11 -51t15 -35.5t53 -9.5h34v-328h-254z" />
    <glyph glyph-name="braceright.cap" horiz-adv-x="548" 
d="M20 176h35q38 0 53 9.5t15 35.5q0 41 -27 82q-20 29 -28.5 42.5t-23.5 43t-21.5 59t-6.5 62.5q0 95 47.5 139t169.5 45v47q-119 1 -169 47.5t-50 139.5q0 78 31 125q11 19 39 60t39.5 66t11.5 50q0 45 -78 45h-37v330h259q134 0 197 -64.5t63 -175.5q0 -78 -31 -152
q-13 -27 -40.5 -77t-40.5 -82t-13 -62q0 -50 23 -69t79 -19h19v-371h-31q-57 0 -80 -17.5t-23 -63.5q0 -44 61 -142q5 -8 7 -12q68 -111 68 -209q0 -112 -62.5 -176t-200.5 -64h-254v328z" />
    <glyph glyph-name="bracketleft.cap" horiz-adv-x="550" 
d="M539 -152h-519v1756h519v-373h-121v-1010h121v-373z" />
    <glyph glyph-name="bracketright.cap" horiz-adv-x="550" 
d="M12 -152v373h121v1010h-121v373h518v-1756h-518z" />
    <glyph glyph-name="parenleft.cap" horiz-adv-x="563" 
d="M551 -160q-167 -2 -269.5 22.5t-160.5 82.5q-56 58 -78.5 155t-22.5 256v729q0 200 46 316q44 117 158.5 167t326.5 46v-375q-53 0 -74 -8q-24 -10 -31.5 -43.5t-7.5 -114.5v-694q0 -78 8 -109q6 -30 28 -37.5t77 -5.5v-387z" />
    <glyph glyph-name="parenright.cap" horiz-adv-x="563" 
d="M12 227q46 -3 70 6q24 10 33.5 47.5t9.5 118.5v652q0 89 -8 125q-10 40 -33 53t-72 8v375q179 2 282 -21.5t157 -81.5q53 -57 72.5 -161t19.5 -285v-688q0 -173 -21.5 -275.5t-75.5 -160.5q-54 -57 -155.5 -79t-278.5 -20v387z" />
    <glyph glyph-name="parenleft.inf" horiz-adv-x="315" 
d="M309 -504q-94 3 -166 33q-69 30 -102 104.5t-33 212.5v310q0 128 33.5 203t97.5 106.5t170 34.5v-228q-47 -6 -60 -33.5t-13 -105.5v-262q0 -76 11.5 -97.5t61.5 -25.5v-252z" />
    <glyph glyph-name="parenright.inf" horiz-adv-x="317" 
d="M6 -250q51 1 62.5 22.5t11.5 98.5v262q0 78 -13.5 106.5t-60.5 34.5v226q161 -5 232 -80.5t71 -263.5v-310q0 -146 -35 -215q-34 -70 -97.5 -100t-170.5 -35v254z" />
    <glyph glyph-name="emdash.cap" horiz-adv-x="733" 
d="M12 934h709v-375h-709v375z" />
    <glyph glyph-name="endash.cap" horiz-adv-x="497" 
d="M12 934h473v-375h-473v375z" />
    <glyph glyph-name="figuredash.cap" horiz-adv-x="866" 
d="M12 934h842v-375h-842v375z" />
    <glyph glyph-name="uni2015.cap" horiz-adv-x="897" 
d="M12 934h873v-375h-873v375z" />
    <glyph glyph-name="hyphen.cap" horiz-adv-x="647" 
d="M12 934h623v-375h-623v375z" />
    <glyph glyph-name="guillemotleft.cap" horiz-adv-x="1001" 
d="M240 332l-242 373v20l254 397h346l-256 -405l254 -385h-356zM647 332l-248 375v30l244 385h356l-254 -391l267 -399h-365z" />
    <glyph glyph-name="guillemotright.cap" horiz-adv-x="1001" 
d="M-6 332l266 399l-254 391h356l244 -385v-30l-248 -375h-364zM410 332l254 385l-256 405h346l254 -397v-20l-242 -373h-356z" />
    <glyph glyph-name="guilsinglleft.cap" horiz-adv-x="600" 
d="M236 332l-240 381v16l240 393h358l-248 -389l270 -401h-380z" />
    <glyph glyph-name="guilsinglright.cap" horiz-adv-x="600" 
d="M-14 332l270 401l-248 389h359l239 -393v-16l-239 -381h-381z" />
    <glyph glyph-name="periodcentered.smcp" horiz-adv-x="1153" 
d="M12 934h1129v-375h-1129v375z" />
    <glyph glyph-name="space_dotbelowcomb" horiz-adv-x="638" 
d="M324 -389q-78 0 -115 12q-41 10 -55.5 46.5t-14.5 121.5q0 75 17 121q17 37 55 51t113 14q72 0 112 -12q41 -13 57.5 -53t16.5 -121q0 -76 -16 -119q-17 -35 -55 -48t-115 -13z" />
    <glyph glyph-name="uni00200326" horiz-adv-x="638" 
d="M123 -340q119 0 172.5 10.5t66.5 44.5q-23 -6 -69 -6q-114 0 -151.5 23t-37.5 108q0 83 43.5 110t171.5 27q83 0 132 -12q47 -13 66.5 -52.5t19.5 -119.5q0 -101 -43 -147q-41 -50 -129 -70t-242 -20v104z" />
    <glyph glyph-name="uni00200326.alt" horiz-adv-x="638" 
d="M309 1260q-81 0 -131 12q-47 13 -66.5 52.5t-19.5 119.5q0 101 43 147q41 50 129 70t242 20v-104q-119 0 -173 -10.5t-67 -44.5q23 6 70 6q115 0 151.5 -22.5t36.5 -108.5q0 -83 -43.5 -110t-171.5 -27z" />
    <glyph glyph-name="plus.inf" horiz-adv-x="409" 
d="M303 -74v-108h-197v108h-100v201h100v109h197v-109h100v-201h-100z" />
    <glyph glyph-name="minus.inf" horiz-adv-x="411" 
d="M6 129h400v-207h-400v207z" />
    <glyph glyph-name="equal.inf" horiz-adv-x="362" 
d="M6 207h350v-172h-350v172zM6 4h350v-172h-350v172z" />
    <glyph glyph-name="at.cap" horiz-adv-x="1069" 
d="M541 -113q-521 0 -521 539v612q0 265 135 398t382 133q512 0 512 -522v-588q0 -87 -19 -140q-18 -61 -69.5 -90.5t-151.5 -29.5q-149 0 -205 82q-40 -78 -139 -78q-197 0 -197 256v534q0 134 42 193t139 59q58 0 86 -23t36 -77l52 90h178v-731q0 -70 2.5 -88.5
t15.5 -18.5q11 0 15 11t4 180v461q0 116 -23 184q-24 75 -88.5 109t-191.5 34q-171 0 -237.5 -81t-66.5 -277v-567q0 -184 71 -276.5t239 -92.5q61 0 102.5 14t60 31.5t39.5 48.5h291q-64 -151 -183 -220t-310 -69zM535 410q12 0 15 12t3 51v508q0 59 -16 59
q-14 0 -17.5 -10t-3.5 -51v-506q0 -40 3 -51.5t16 -11.5z" />
    <glyph glyph-name="registered.cap" horiz-adv-x="1212" 
d="M610 -27q-304 0 -434.5 135t-130.5 429v376q0 294 144.5 436t412.5 142q288 0 432 -137.5t144 -425.5v-389q0 -274 -140 -420t-428 -146zM874 313q41 63 41 236v369q0 172 -71 246.5t-242 74.5q-89 0 -143 -13t-88 -44h266q242 0 242 -189v-164q0 -98 -68 -147
q63 -28 63 -123v-246zM307 549q0 -154 41 -221v825q-41 -67 -41 -252v-352zM594 981v-184h12q27 0 27 18v141q0 25 -25 25h-14zM610 225q176 0 236 54h-211q-14 8 -14 59v197q0 23 -6.5 30.5t-20.5 7.5v-294h-203q73 -54 219 -54z" />
    <glyph glyph-name="bar.cap" horiz-adv-x="434" 
d="M20 1548h394v-1640h-394v1640z" />
    <glyph glyph-name="brokenbar.cap" horiz-adv-x="434" 
d="M20 1548h394v-794h-394v794zM20 719h394v-811h-394v811z" />
    <glyph glyph-name="Aumlaut" 
d="M68 1108q-38 0 -51 37.5t-13 148.5q0 119 14 161t50 42t48.5 -41.5t12.5 -161.5q0 -110 -12.5 -148t-48.5 -38zM819 1108q-37 0 -50 38t-13 148q0 119 13.5 161t49.5 42q38 0 52 -42t14 -161q0 -108 -14 -147t-52 -39zM510 113h-129l-10 -113h-391l204 1475h510
l217 -1475h-391zM414 436h63l-20 199l-15 301l-10 -301z" />
    <glyph glyph-name="Oumlaut" horiz-adv-x="897" 
d="M823 1409q-49 0 -64.5 16t-15.5 64q0 50 16.5 67t63.5 17q48 0 66 -17.5t18 -66.5q0 -44 -18.5 -62t-65.5 -18zM66 1407q-44 0 -60 16.5t-16 63.5q0 49 16 66.5t60 17.5q47 0 64 -17.5t17 -66.5q0 -45 -17 -62.5t-64 -17.5zM449 -23q-212 0 -322.5 102.5t-110.5 330.5
v659q0 432 433 432q120 0 225 -43q207 -93 207 -389v-659q0 -162 -56 -252q-101 -181 -376 -181zM449 344q17 0 19.5 11t2.5 69v645q0 58 -2.5 69t-19.5 11t-20 -11.5t-3 -68.5v-645q0 -57 3 -68.5t20 -11.5z" />
    <glyph glyph-name="Uumlaut" horiz-adv-x="1015" 
d="M465 1071q-23 0 -31 39t-8 156q0 124 9 171.5t30 47.5q25 0 32 -42.5t7 -176.5q0 -119 -7 -157t-32 -38zM555 1071q-26 0 -33.5 38t-7.5 157q0 131 7.5 175t31.5 44t31.5 -44t7.5 -175q0 -119 -6.5 -157t-30.5 -38zM508 -23q-259 0 -375.5 106.5t-116.5 362.5v1029h400
v-1004q0 -71 20 -88.5t74 -17.5q26 0 40 2.5t27.5 12t19 32t5.5 59.5v1004h397v-1029q0 -250 -121 -359.5t-370 -109.5z" />
    <glyph glyph-name="cordinal" horiz-adv-x="614" 
d="M305 668q-150 0 -225.5 68t-75.5 216v262q0 141 83 213t222 72q140 0 221.5 -71.5t81.5 -213.5v-106h-286v102q0 35 -3 44.5t-14 9.5q-10 0 -13 -9.5t-3 -44.5v-249q0 -32 3 -41t13 -9q6 0 9 2.5t5.5 14t2.5 33.5v120h286v-129q0 -284 -307 -284z" />
    <glyph glyph-name="caronSlovak" horiz-adv-x="641" 
d="M164 1556h188l-145 -339h-105z" />
    <glyph glyph-name="altcedilla" horiz-adv-x="641" 
d="M332 -467q-294 0 -328 246h281q15 -41 55 -41q45 0 45 31q0 30 -41 30h-133v174h160q136 0 202 -47.5t66 -167.5q0 -107 -81 -166t-226 -59z" />
    <glyph glyph-name="doublegrave" horiz-adv-x="641" 
d="M-63 1569h280l90 -307h-190zM258 1569h264l33 -307h-188z" />
    <glyph glyph-name="invertedbreve" horiz-adv-x="641" 
d="M43 1262q0 164 68 234.5t215 70.5q156 0 218 -68.5t62 -236.5h-246q0 48 -6 60.5t-30 12.5q-21 0 -28 -13.5t-7 -59.5h-246z" />
    <glyph glyph-name="onethirdemdash" horiz-adv-x="497" 
d="M12 801h473v-373h-473v373z" />
    <glyph glyph-name="threequarteremdash" horiz-adv-x="733" 
d="M12 801h709v-373h-709v373z" />
    <glyph glyph-name="onethirdemdash.cap" horiz-adv-x="647" 
d="M12 934h623v-375h-623v375z" />
    <glyph glyph-name="threequarteremdash.cap" horiz-adv-x="600" 
d="M12 934h576v-375h-576v375z" />
    <glyph glyph-name="onesixteenth" horiz-adv-x="1650" 
d="M606 766l244 770l313 -168l-549 -608zM92 735v226h70v202h-70v201q51 5 90 33t49 76h177v-512h75v-226h-391zM1628 190q0 -95 -67 -149.5t-197 -54.5q-260 0 -260 227v307q0 110 66.5 170t197.5 60t195.5 -54.5t64.5 -148.5v-86h-248v71q0 21 -12 21q-16 0 -16 -37v-135
q37 57 129 57q74 0 110.5 -31.5t36.5 -101.5v-115zM41 125l553 623l8 -7l-244 -802zM680 2v225h70v203h-70v201q51 5 90 32.5t49 75.5h176v-512h76v-225h-391zM1368 190q18 0 18 21v72q0 22 -16 22l-18 -4v-82q0 -29 16 -29z" />
    <glyph glyph-name="threesixteenths" horiz-adv-x="1650" 
d="M606 766l244 770l313 -168l-549 -608zM262 717q-116 0 -174 24q-55 23 -75.5 66t-20.5 113v71h250v-49q0 -11 0.5 -15.5t4 -8t11.5 -3.5q12 0 12 25v53q0 22 -7.5 27.5t-33.5 5.5h-75v162h88q28 0 28 26v62q0 20 -14 20t-14 -22v-51h-250v65q0 195 268 195
q262 0 262 -183v-69q0 -95 -102 -119q102 -14 102 -117v-94q0 -81 -66 -132.5t-194 -51.5zM1628 190q0 -95 -67 -149.5t-197 -54.5q-260 0 -260 227v307q0 110 66.5 170t197.5 60t195.5 -54.5t64.5 -148.5v-86h-248v71q0 21 -12 21q-16 0 -16 -37v-135q37 57 129 57
q74 0 110.5 -31.5t36.5 -101.5v-115zM41 125l553 623l8 -7l-244 -802zM678 2v225h70v203h-70v201q51 5 90 32.5t49 75.5h176v-512h76v-225h-391zM1368 190q18 0 18 21v72q0 22 -16 22l-18 -4v-82q0 -29 16 -29z" />
    <glyph glyph-name="fivesixteenths" horiz-adv-x="1650" 
d="M606 766l244 770l313 -168l-549 -608zM266 721q-146 0 -210 51.5t-64 153.5v94h258v-70q0 -18 14 -18q12 0 12 18v113q0 18 -12 18q-10 0 -18 -18l-8 -21l-250 62l35 369h501v-35q0 -84 -12 -121q-11 -35 -47 -45t-125 -10h-90l-10 -103q41 84 133 84q81 0 116 -43.5
t35 -126.5v-139q0 -100 -62.5 -156.5t-195.5 -56.5zM1628 190q0 -95 -67 -149.5t-197 -54.5q-260 0 -260 227v307q0 110 66.5 170t197.5 60t195.5 -54.5t64.5 -148.5v-86h-248v71q0 21 -12 21q-16 0 -16 -37v-135q37 57 129 57q74 0 110.5 -31.5t36.5 -101.5v-115zM41 125
l553 623l8 -7l-244 -802zM678 2v225h70v203h-70v201q51 5 90 32.5t49 75.5h176v-512h76v-225h-391zM1368 190q18 0 18 21v72q0 22 -16 22l-18 -4v-82q0 -29 16 -29z" />
    <glyph glyph-name="sevensixteenths" horiz-adv-x="1650" 
d="M606 766l244 770l313 -168l-549 -608zM129 735q19 184 50.5 303t88.5 215h-164v220h428v-173q-50 -96 -75 -174q-51 -148 -78 -391h-250zM1628 190q0 -95 -67 -149.5t-197 -54.5q-260 0 -260 227v307q0 110 66.5 170t197.5 60t195.5 -54.5t64.5 -148.5v-86h-248v71
q0 21 -12 21q-16 0 -16 -37v-135q37 57 129 57q74 0 110.5 -31.5t36.5 -101.5v-115zM41 125l553 623l8 -7l-244 -802zM678 2v225h70v203h-70v201q51 5 90 32.5t49 75.5h176v-512h76v-225h-391zM1368 190q18 0 18 21v72q0 22 -16 22l-18 -4v-82q0 -29 16 -29z" />
    <glyph glyph-name="ninesixteenths" horiz-adv-x="1650" 
d="M606 766l244 770l313 -168l-549 -608zM299 719q-130 0 -195 55.5t-65 149.5v90h248v-76q0 -20 12 -20q16 0 16 36v131q-35 -53 -118 -53q-158 0 -158 133v115q0 95 67 149t197 54q132 0 196 -56t64 -170v-307q0 -110 -66.5 -170.5t-197.5 -60.5zM297 1165q2 0 18 4v82
q0 29 -16 29q-18 0 -18 -20v-72q0 -23 16 -23zM1628 190q0 -95 -67 -149.5t-197 -54.5q-260 0 -260 227v307q0 110 66.5 170t197.5 60t195.5 -54.5t64.5 -148.5v-86h-248v71q0 21 -12 21q-16 0 -16 -37v-135q37 57 129 57q74 0 110.5 -31.5t36.5 -101.5v-115zM41 125
l553 623l8 -7l-244 -802zM678 2v225h70v203h-70v201q51 5 90 32.5t49 75.5h176v-512h76v-225h-391zM1368 190q18 0 18 21v72q0 22 -16 22l-18 -4v-82q0 -29 16 -29z" />
    <glyph glyph-name="elevensixteenths" horiz-adv-x="2011" 
d="M1001 766l244 770l314 -168l-549 -608zM92 735v226h70v202h-70v201q51 5 90 33t49 76h177v-512h75v-226h-391zM530 735v226h70v202h-70v201q51 5 90.5 33t49.5 76h176v-512h76v-226h-392zM1972 190q0 -95 -67 -149.5t-197 -54.5q-260 0 -260 227v307q0 110 66.5 170
t197.5 60t195.5 -54.5t64.5 -148.5v-86h-248v71q0 21 -12 21q-16 0 -16 -37v-135q37 57 129 57q74 0 110.5 -31.5t36.5 -101.5v-115zM436 125l553 623l8 -7l-243 -802zM1022 2v225h70v203h-70v201q51 5 90 32.5t49 75.5h176v-512h76v-225h-391zM1712 190q19 0 19 21v72
q0 22 -17 22l-18 -4v-82q0 -29 16 -29z" />
    <glyph glyph-name="thirteensixteenths" horiz-adv-x="2211" 
d="M1137 766l243 770l314 -168l-549 -608zM809 715q-115 0 -174 24q-55 23 -75.5 66t-20.5 113v71h249v-49q0 -15 3 -21t14 -6q12 0 12 25v53q0 22 -7.5 27.5t-33.5 5.5h-76v162h88q29 0 29 26v62q0 20 -14 20q-15 0 -15 -22v-51h-249v65q0 195 268 195q262 0 262 -183v-69
q0 -95 -102 -119q102 -14 102 -117v-94q0 -81 -66 -132.5t-194 -51.5zM92 735v226h70v202h-70v201q51 5 90 33t49 76h177v-512h75v-226h-391zM2138 190q0 -95 -67 -149.5t-197 -54.5q-260 0 -260 227v307q0 110 66.5 170t197.5 60t195.5 -54.5t64.5 -148.5v-86h-248v71
q0 21 -12 21q-16 0 -16 -37v-135q37 57 129 57q74 0 110.5 -31.5t36.5 -101.5v-115zM571 125l553 623l9 -7l-244 -802zM1188 2v225h69v203h-69v201q51 5 90 32.5t49 75.5h176v-512h76v-225h-391zM1878 190q18 0 18 21v72q0 22 -16 22l-18 -4v-82q0 -29 16 -29z" />
    <glyph glyph-name="fifteensixteenths" horiz-adv-x="2199" 
d="M1128 766l244 770l314 -168l-549 -608zM119 735v226h69v202h-69v201q51 5 90 33t49 76h176v-512h76v-226h-391zM831 721q-146 0 -210 51.5t-64 153.5v94h258v-70q0 -18 14 -18q13 0 13 18v113q0 18 -13 18q-10 0 -18 -18l-8 -21l-250 62l35 369h502v-35q0 -80 -13 -121
q-11 -35 -47 -45t-125 -10h-90l-10 -103q41 84 133 84q81 0 116.5 -44t35.5 -126v-139q0 -100 -63 -156.5t-196 -56.5zM2126 190q0 -95 -67 -149.5t-197 -54.5q-260 0 -260 227v307q0 110 66.5 170t197.5 60t195.5 -54.5t64.5 -148.5v-86h-248v71q0 21 -12 21q-17 0 -17 -37
v-135q37 57 129 57q74 0 111 -31.5t37 -101.5v-115zM563 125l553 623l8 -7l-243 -802zM1176 2v225h69v203h-69v201q51 5 90 32.5t49 75.5h176v-512h76v-225h-391zM1866 190q18 0 18 21v72q0 22 -16 22l-19 -4v-82q0 -29 17 -29z" />
    <glyph glyph-name="mediumblackcircle" horiz-adv-x="1193" 
d="M596 -20q-196 0 -334 79q-142 80 -219.5 220.5t-77.5 324.5q0 174 76 320q80 144 222 224.5t333 80.5q197 0 334 -80q145 -78 222 -218t77 -327q0 -177 -78 -321q-80 -144 -222 -223.5t-333 -79.5z" />
    <glyph glyph-name="ballotboxwithx" horiz-adv-x="1267" 
d="M25 1212h1218v-1212h-1218v1212zM766 471v272h-266v-272h266zM635 580l-76 -78l-29 28l78 80l-76 78l29 31l76 -80l76 78l30 -25l-79 -82l77 -82l-28 -28z" />
    <glyph glyph-name="ttfautohint" horiz-adv-x="583" 
 />
    </font>
</defs>
</svg>
